<?xml version="1.0" encoding="UTF-8"?>
<svg width="23px" height="22px" viewBox="0 0 23 22" version="1.1" xmlns="http://www.w3.org/2000/svg" xmlns:xlink="http://www.w3.org/1999/xlink">
    <!-- Generator: Sketch 50.2 (55047) - http://www.bohemiancoding.com/sketch -->
    <title>in</title>
    <desc>Created with Sketch.</desc>
    <defs></defs>
    <g id="Symbols" stroke="none" stroke-width="1" fill="none" fill-rule="evenodd">
        <g id="Components-/-Footer" transform="translate(-946.000000, -170.000000)" fill="#FFFFFF">
            <g id="Group" transform="translate(850.000000, 168.000000)">
                <path d="M96.3666667,9.27272727 L100.95,9.27272727 L100.95,24 L96.3666667,24 L96.3666667,9.27272727 Z M96,4.63636364 C96,3.90908727 96.2597196,3.28788136 96.7791667,2.77272727 C97.2986137,2.25757318 97.9249963,2 98.6583333,2 C99.3916703,2 100.018053,2.25757318 100.5375,2.77272727 C101.056947,3.28788136 101.316667,3.90908727 101.316667,4.63636364 C101.316667,5.36364 101.056947,5.98484591 100.5375,6.5 C100.018053,7.01515409 99.3916703,7.27272727 98.6583333,7.27272727 C97.9249963,7.27272727 97.2986137,7.01515409 96.7791667,6.5 C96.2597196,5.98484591 96,5.36364 96,4.63636364 Z M104.25,9.27272727 L108.65,9.27272727 L108.65,11.2727273 L108.711111,11.2727273 C108.853704,10.9898976 109.057406,10.7070721 109.322222,10.4242424 C109.587038,10.1414127 109.902776,9.88889 110.269444,9.66666667 C110.636113,9.44444333 111.053701,9.26262697 111.522222,9.12121212 C111.990743,8.97979727 112.499997,8.90909091 113.05,8.90909091 C114.211117,8.90909091 115.148145,9.08585682 115.861111,9.43939394 C116.574078,9.79293106 117.129165,10.2828252 117.526389,10.9090909 C117.923613,11.5353567 118.193518,12.272723 118.336111,13.1212121 C118.478704,13.9697012 118.55,14.8888839 118.55,15.8787879 L118.55,24 L113.966667,24 L113.966667,16.7878788 C113.966667,16.3636342 113.951389,15.9242447 113.920833,15.469697 C113.890278,15.0151492 113.798612,14.5959615 113.645833,14.2121212 C113.493055,13.8282809 113.258798,13.5151527 112.943056,13.2727273 C112.627313,13.0303018 112.174077,12.9090909 111.583333,12.9090909 C110.99259,12.9090909 110.513891,13.0151505 110.147222,13.2272727 C109.780554,13.439395 109.500464,13.7222205 109.306944,14.0757576 C109.113425,14.4292947 108.986111,14.8282806 108.925,15.2727273 C108.863889,15.7171739 108.833333,16.1818158 108.833333,16.6666667 L108.833333,24 L104.25,24 L104.25,9.27272727 Z" id="in"></path>
            </g>
        </g>
    </g>
</svg>