<?xml version="1.0" encoding="UTF-8"?>
<svg width="162px" height="35px" viewBox="0 0 162 35" version="1.1" xmlns="http://www.w3.org/2000/svg" xmlns:xlink="http://www.w3.org/1999/xlink">
    <!-- Generator: Sketch 50.2 (55047) - http://www.bohemiancoding.com/sketch -->
    <title>logo-white</title>
    <desc>Created with Sketch.</desc>
    <defs></defs>
    <g id="logo-white" stroke="none" stroke-width="1" fill="none" fill-rule="evenodd">
        <g id="Semi-solid" transform="translate(116.613583, 10.539706)" fill="#C0CCCE">
            <polygon id="Fill-2" points="5.39249953 23.2303307 10.4511108 18.1179072 5.39249953 18.1179072 0.33388829 18.1179072 0.33388829 23.2303307"></polygon>
            <polygon id="Fill-3" points="20.5681436 23.2303307 20.5681436 18.1179072 15.5095323 18.1179072 10.4511108 18.1179072 15.5095323 23.2303307"></polygon>
            <polygon id="Fill-5" points="30.6887047 23.2303307 35.7473159 18.1179072 30.6887047 18.1179072 25.6300934 18.1179072 25.6300934 23.2303307"></polygon>
            <polygon id="Fill-6" points="40.8058513 18.1180031 35.74724 18.1180031 40.8058513 23.2302348 45.8642728 23.2302348 45.8642728 18.1180031"></polygon>
            <polygon id="Fill-8" points="18.0390845 5.33704031 23.0976958 0.224616854 18.0390845 0.224616854 12.9804733 0.224616854 12.9804733 5.33704031"></polygon>
            <polygon id="Fill-9" points="33.2146717 5.33704031 33.2146717 0.224616854 28.1560604 0.224616854 23.0976389 0.224616854 28.1560604 5.33704031"></polygon>
        </g>
        <g id="Solid" fill="#FFFFFF">
            <path d="M46.1404773,26.8707865 C43.6300464,26.8707865 41.5877841,24.8066074 41.5877841,22.2696629 C41.5877841,19.7325267 43.6300464,17.6685393 46.1404773,17.6685393 C48.6509082,17.6685393 50.6931705,19.7325267 50.6931705,22.2696629 C50.6931705,24.8066074 48.6509082,26.8707865 46.1404773,26.8707865 M46.1404773,10 C39.4354984,10 33.9999621,15.4933581 33.9999621,22.2696629 C33.9999621,29.0459677 39.4354984,34.5393258 46.1404773,34.5393258 C52.8454562,34.5393258 58.2809925,29.0459677 58.2809925,22.2696629 C58.2809925,15.4933581 52.8454562,10 46.1404773,10" id="Fill-12"></path>
            <polygon id="Fill-14" points="95.7016646 10.7668539 90.0107981 16.5182584 90.0107981 10.7668539 82.4229761 10.7668539 82.4229761 33.7724719 90.0107981 33.7724719 90.0107981 28.0210674 95.7016646 33.7724719 105.186442 33.7724719 93.8047091 22.2696629 105.186442 10.7668539"></polygon>
            <path d="M71.9390721,17.6685393 C73.1942876,17.6685393 74.3324609,18.1844403 75.1568778,19.0176271 L80.5237443,13.5936692 C78.3266904,11.3734354 75.2915616,10 71.9390721,10 C65.2340932,10 59.7985569,15.4933581 59.7985569,22.2696629 C59.7985569,29.0459677 65.2340932,34.5393258 71.9390721,34.5393258 C75.2915616,34.5393258 78.3266904,33.1658904 80.5237443,30.9456566 L75.1568778,25.521507 C74.3324609,26.3546938 73.1942876,26.8707865 71.9390721,26.8707865 C69.4286412,26.8707865 67.3863789,24.8066074 67.3863789,22.2696629 C67.3863789,19.7325267 69.4286412,17.6685393 71.9390721,17.6685393" id="Fill-16"></path>
            <polygon id="Fill-10" points="27.1709602 10.7668539 19.5831382 10.7668539 19.5831382 33.7724719 32.8618267 33.7724719 32.8618267 26.1039326 27.1709602 26.1039326"></polygon>
            <polygon id="Fill-11" points="0.613583138 10.7668156 0.613583138 33.7726253 8.20140515 33.7726253 8.20140515 28.0210291 13.8922717 28.0210291 13.8922717 22.2696246 8.20140515 22.2696246 8.20140515 18.4355466 17.6861827 18.4355466 17.6861827 10.7668156"></polygon>
            <polygon id="Fill-1" points="137.181784 28.6577096 127.064751 18.4330544 116.947528 28.6577096"></polygon>
            <polygon id="Fill-4" points="142.243771 28.6577096 162.478027 28.6577096 152.360804 18.4330544"></polygon>
            <polygon id="Fill-7" points="139.711222 0.539725632 129.594189 10.7643808 149.828255 10.7643808"></polygon>
        </g>
    </g>
</svg>