<?xml version="1.0" encoding="UTF-8"?>
<svg width="24px" height="19px" viewBox="0 0 24 19" version="1.1" xmlns="http://www.w3.org/2000/svg" xmlns:xlink="http://www.w3.org/1999/xlink">
    <!-- Generator: Sketch 50.2 (55047) - http://www.bohemiancoding.com/sketch -->
    <title>Shape</title>
    <desc>Created with Sketch.</desc>
    <defs></defs>
    <g id="Symbols" stroke="none" stroke-width="1" fill="none" fill-rule="evenodd">
        <g id="Components-/-Footer" transform="translate(-996.000000, -173.000000)" fill="#FFFFFF" fill-rule="nonzero">
            <g id="Group" transform="translate(850.000000, 168.000000)">
                <g id="Monogram" transform="translate(146.000000, 5.000000)">
                    <path d="M2.81629318,3.87595531 C2.84580075,3.58216814 2.73462214,3.2917922 2.51692344,3.09406231 L0.299369747,0.402116402 L0.299369747,0 L7.18487395,0 L12.5070028,11.7619047 L17.1860412,0 L23.75,0 L23.75,0.402116402 L21.8539916,2.23398001 C21.6905349,2.35953468 21.609452,2.56589267 21.6433241,2.77013522 L21.6433241,16.2298649 C21.609452,16.4341074 21.6905349,16.6404653 21.8539916,16.76602 L23.705649,18.5978836 L23.705649,19 L14.3919235,19 L14.3919235,18.5978836 L16.3101075,16.7213404 C16.4985994,16.531452 16.4985994,16.4756026 16.4985994,16.1851853 L16.4985994,5.30570254 L11.1653828,18.9553204 L10.4446779,18.9553204 L4.23552754,5.30570254 L4.23552754,14.4538506 C4.1837579,14.8384645 4.31051983,15.2256865 4.57924836,15.5038213 L7.07399626,18.553204 L7.07399626,18.9553204 L0,18.9553204 L0,18.553204 L2.4947479,15.5038213 C2.76151985,15.2252254 2.88089019,14.8354348 2.81629318,14.4538506 L2.81629318,3.87595531 Z" id="Shape"></path>
                </g>
            </g>
        </g>
    </g>
</svg>