<?xml version="1.0" encoding="UTF-8"?>
<svg width="511px" height="239px" viewBox="0 0 511 239" version="1.1" xmlns="http://www.w3.org/2000/svg" xmlns:xlink="http://www.w3.org/1999/xlink">
    <!-- Generator: Sketch 50.2 (55047) - http://www.bohemiancoding.com/sketch -->
    <title>drone-camera</title>
    <desc>Created with Sketch.</desc>
    <defs></defs>
    <g id="Page-1" stroke="none" stroke-width="1" fill="none" fill-rule="evenodd">
        <g id="Home" transform="translate(-12.000000, -1613.000000)" fill="#FFE001" fill-rule="nonzero">
            <g id="drone-camera" transform="translate(12.000000, 1613.000000)">
                <path d="M503.5,24 L439,24 L439,23.5 C439,10.542 428.458,0 415.5,0 C402.542,0 392,10.542 392,23.5 L392,24 L327.5,24 C323.358,24 320,27.358 320,31.5 C320,35.642 323.358,39 327.5,39 L384,39 L384,47.5 C384,47.668 384.01,47.833 384.013,48 L335.656,48 C335.649,48 335.642,48 335.635,48 L175.378,48 C175.365,48 175.352,48 175.339,48 L126.987,48 C126.99,47.833 127,47.668 127,47.5 L127,39 L183.5,39 C187.642,39 191,35.642 191,31.5 C191,27.358 187.642,24 183.5,24 L119,24 L119,23.5 C119,10.542 108.458,0 95.5,0 C82.542,0 72,10.542 72,23.5 L72,24 L7.5,24 C3.358,24 0,27.358 0,31.5 C0,35.642 3.358,39 7.5,39 L64,39 L64,47.5 C64,64.869 78.131,79 95.5,79 C107.237,79 117.487,72.543 122.906,63 L170.094,63 L177.091,83.991 C182.476,100.146 197.536,111 214.564,111 L248,111 L248,128 L207.5,128 C190.131,128 176,142.131 176,159.5 L176,207.5 C176,224.869 190.131,239 207.5,239 L303.5,239 C320.869,239 335,224.869 335,207.5 L335,159.5 C335,142.131 320.869,128 303.5,128 L263,128 L263,111 L296.436,111 C313.465,111 328.524,100.146 333.909,83.991 L340.906,63 L388.094,63 C393.513,72.543 403.763,79 415.5,79 C432.869,79 447,64.869 447,47.5 L447,39 L503.5,39 C507.642,39 511,35.642 511,31.5 C511,27.358 507.642,24 503.5,24 Z M87,23.5 C87,18.813 90.813,15 95.5,15 C100.187,15 104,18.813 104,23.5 L104,24 L87,24 L87,23.5 Z M95.5,64 C86.402,64 79,56.598 79,47.5 L79,39 L112,39 L112,47.5 C112,56.598 104.598,64 95.5,64 Z M320,159.5 L320,207.5 C320,216.598 312.598,224 303.5,224 L207.5,224 C198.402,224 191,216.598 191,207.5 L191,159.5 C191,150.402 198.402,143 207.5,143 L303.5,143 C312.598,143 320,150.402 320,159.5 Z M319.678,79.248 C316.338,89.268 306.998,96 296.435,96 L214.564,96 C204.001,96 194.661,89.268 191.321,79.248 L185.906,63 L325.094,63 L319.678,79.248 Z M407,23.5 C407,18.813 410.813,15 415.5,15 C420.187,15 424,18.813 424,23.5 L424,24 L407,24 L407,23.5 Z M432,47.5 C432,56.598 424.598,64 415.5,64 C406.402,64 399,56.598 399,47.5 L399,39 L432,39 L432,47.5 Z" id="Shape"></path>
                <path d="M231.5,152 C214.131,152 200,166.131 200,183.5 C200,200.869 214.131,215 231.5,215 C248.869,215 263,200.869 263,183.5 C263,166.131 248.869,152 231.5,152 Z M231.5,200 C222.402,200 215,192.598 215,183.5 C215,174.402 222.402,167 231.5,167 C240.598,167 248,174.402 248,183.5 C248,192.598 240.598,200 231.5,200 Z" id="Shape"></path>
                <path d="M287.5,167 L295.5,167 C299.642,167 303,163.642 303,159.5 C303,155.358 299.642,152 295.5,152 L287.5,152 C283.358,152 280,155.358 280,159.5 C280,163.642 283.358,167 287.5,167 Z" id="Shape"></path>
                <path d="M231.5,176 C229.53,176 227.59,176.8 226.2,178.2 C224.8,179.59 224,181.53 224,183.5 C224,185.47 224.8,187.41 226.2,188.8 C227.59,190.2 229.53,191 231.5,191 C233.47,191 235.41,190.2 236.8,188.8 C238.2,187.41 239,185.47 239,183.5 C239,181.53 238.2,179.59 236.8,178.2 C235.41,176.8 233.47,176 231.5,176 Z" id="Shape"></path>
            </g>
        </g>
    </g>
</svg>