<?xml version="1.0" encoding="UTF-8"?>
<svg width="44px" height="43px" viewBox="0 0 44 43" version="1.1" xmlns="http://www.w3.org/2000/svg" xmlns:xlink="http://www.w3.org/1999/xlink">
    <!-- Generator: Sketch 52.6 (67491) - http://www.bohemiancoding.com/sketch -->
    <title>icons/PAYF/white</title>
    <desc>Created with Sketch.</desc>
    <g id="icons/PAYF/white" stroke="none" stroke-width="1" fill="none" fill-rule="evenodd">
        <g id="Group-27" transform="translate(6.000000, 5.000000)">
            <path d="M8.7564,6.7268 C8.4024,6.7268 8.0484,6.5948 7.7734,6.3308 C7.2094,5.7878 7.1924,4.8898 7.7354,4.3258 L11.4824,0.4338 C12.0264,-0.1292 12.9234,-0.1462 13.4864,0.3958 C14.0504,0.9388 14.0674,1.8358 13.5244,2.4008 L9.7774,6.2918 C9.4994,6.5808 9.1284,6.7268 8.7564,6.7268" id="Fill-1" fill="#FED900"></path>
            <path d="M1.4175,14.0657 C1.0635,14.0657 0.7095,13.9337 0.4345,13.6697 C-0.1295,13.1267 -0.1465,12.2287 0.3965,11.6647 L4.1435,7.7717 C4.6865,7.2087 5.5845,7.1917 6.1475,7.7337 C6.7115,8.2767 6.7285,9.1737 6.1855,9.7387 L2.4385,13.6307 C2.1605,13.9197 1.7895,14.0657 1.4175,14.0657" id="Fill-3" fill="#FED900"></path>
            <path d="M6.7496,7.6155 C6.3206,7.6155 5.9706,7.2805 5.9706,6.8675 C5.9706,6.4565 6.3206,6.1215 6.7496,6.1215 C7.1786,6.1215 7.5276,6.4565 7.5276,6.8675 C7.5276,7.2805 7.1786,7.6155 6.7496,7.6155 Z M10.0266,8.1745 C10.2016,7.7705 10.2996,7.3305 10.2996,6.8675 C10.2996,4.9885 8.7076,3.4595 6.7496,3.4595 C4.7916,3.4595 3.1996,4.9885 3.1996,6.8675 C3.1996,8.7475 4.7916,10.2755 6.7496,10.2755 C7.2076,10.2755 7.6426,10.1855 8.0446,10.0335 L10.6246,12.5565 L12.5866,10.6785 L10.0266,8.1745 Z" id="Fill-5" fill="#FFFFFF"></path>
            <path d="M23.0381,6.7268 C22.6661,6.7268 22.2951,6.5808 22.0171,6.2918 L18.2701,2.4008 C17.7271,1.8358 17.7441,0.9388 18.3081,0.3958 C18.8721,-0.1462 19.7681,-0.1292 20.3121,0.4338 L24.0591,4.3258 C24.6021,4.8898 24.5851,5.7878 24.0211,6.3308 C23.7461,6.5948 23.3921,6.7268 23.0381,6.7268" id="Fill-7" fill="#FED900"></path>
            <path d="M30.3765,14.0657 C30.0045,14.0657 29.6335,13.9197 29.3555,13.6307 L25.6085,9.7387 C25.0655,9.1737 25.0835,8.2767 25.6475,7.7337 C26.2105,7.1917 27.1085,7.2087 27.6515,7.7717 L31.3975,11.6647 C31.9405,12.2287 31.9235,13.1267 31.3595,13.6697 C31.0845,13.9337 30.7305,14.0657 30.3765,14.0657" id="Fill-9" fill="#FED900"></path>
            <path d="M24.2672,6.8675 C24.2672,6.4565 24.6162,6.1215 25.0452,6.1215 C25.4742,6.1215 25.8242,6.4565 25.8242,6.8675 C25.8242,7.2805 25.4742,7.6155 25.0452,7.6155 C24.6162,7.6155 24.2672,7.2805 24.2672,6.8675 Z M19.2072,10.6795 L21.1702,12.5565 L23.7502,10.0335 C24.1522,10.1855 24.5872,10.2755 25.0452,10.2755 C27.0022,10.2755 28.5952,8.7475 28.5952,6.8675 C28.5952,4.9885 27.0022,3.4595 25.0452,3.4595 C23.0872,3.4595 21.4942,4.9885 21.4942,6.8675 C21.4942,7.3305 21.5932,7.7705 21.7682,8.1745 L19.2072,10.6795 Z" id="Fill-11" fill="#FFFFFF"></path>
            <path d="M12.5035,32.0657 C12.1315,32.0657 11.7605,31.9197 11.4825,31.6307 L7.7355,27.7387 C7.1925,27.1737 7.2095,26.2767 7.7735,25.7337 C8.3375,25.1917 9.2355,25.2077 9.7775,25.7717 L13.5245,29.6647 C14.0675,30.2287 14.0505,31.1267 13.4865,31.6697 C13.2115,31.9337 12.8575,32.0657 12.5035,32.0657" id="Fill-13" fill="#FED900"></path>
            <path d="M5.1646,24.7268 C4.7926,24.7268 4.4216,24.5808 4.1436,24.2918 L0.3966,20.4008 C-0.1464,19.8358 -0.1294,18.9388 0.4346,18.3958 C0.9986,17.8538 1.8956,17.8698 2.4386,18.4338 L6.1856,22.3258 C6.7286,22.8898 6.7116,23.7878 6.1476,24.3308 C5.8726,24.5948 5.5186,24.7268 5.1646,24.7268" id="Fill-15" fill="#FED900"></path>
            <path d="M7.5274,25.1966 C7.5274,25.6086 7.1784,25.9436 6.7494,25.9436 C6.3204,25.9436 5.9704,25.6086 5.9704,25.1966 C5.9704,24.7846 6.3204,24.4496 6.7494,24.4496 C7.1784,24.4496 7.5274,24.7846 7.5274,25.1966 Z M12.5874,21.3856 L10.6244,19.5076 L8.0444,22.0316 C7.6424,21.8796 7.2074,21.7886 6.7494,21.7886 C4.7914,21.7886 3.1994,23.3176 3.1994,25.1966 C3.1994,27.0766 4.7914,28.6056 6.7494,28.6056 C8.7074,28.6056 10.2994,27.0766 10.2994,25.1966 C10.2994,24.7336 10.2014,24.2936 10.0264,23.8906 L12.5874,21.3856 Z" id="Fill-17" fill="#FFFFFF"></path>
            <path d="M19.2911,32.0657 C18.9371,32.0657 18.5831,31.9337 18.3081,31.6697 C17.7441,31.1267 17.7271,30.2287 18.2701,29.6647 L22.0171,25.7717 C22.5601,25.2077 23.4581,25.1917 24.0211,25.7337 C24.5851,26.2767 24.6021,27.1737 24.0591,27.7387 L20.3121,31.6307 C20.0341,31.9197 19.6631,32.0657 19.2911,32.0657" id="Fill-19" fill="#FED900"></path>
            <path d="M26.6299,24.7268 C26.2759,24.7268 25.9219,24.5948 25.6469,24.3308 C25.0829,23.7878 25.0659,22.8898 25.6089,22.3258 L29.3559,18.4338 C29.8989,17.8698 30.7969,17.8538 31.3589,18.3958 C31.9229,18.9388 31.9409,19.8358 31.3979,20.4008 L27.6509,24.2918 C27.3729,24.5808 27.0019,24.7268 26.6299,24.7268" id="Fill-21" fill="#FED900"></path>
            <path d="M25.045,24.4495 C25.474,24.4495 25.824,24.7845 25.824,25.1965 C25.824,25.6085 25.474,25.9435 25.045,25.9435 C24.616,25.9435 24.267,25.6085 24.267,25.1965 C24.267,24.7845 24.616,24.4495 25.045,24.4495 Z M21.768,23.8905 C21.593,24.2935 21.494,24.7335 21.494,25.1965 C21.494,27.0765 23.087,28.6055 25.045,28.6055 C27.003,28.6055 28.595,27.0765 28.595,25.1965 C28.595,23.3175 27.003,21.7885 25.045,21.7885 C24.587,21.7885 24.152,21.8795 23.75,22.0315 L21.17,19.5075 L19.208,21.3865 L21.768,23.8905 Z" id="Fill-23" fill="#FFFFFF"></path>
            <path d="M15.8536,20.011 C13.7016,20.011 11.9566,18.266 11.9566,16.113 C11.9566,13.96 13.7016,12.215 15.8536,12.215 C18.0066,12.215 19.7516,13.96 19.7516,16.113 C19.7516,18.266 18.0066,20.011 15.8536,20.011 M15.8536,9.631 C12.2736,9.631 9.3716,12.532 9.3716,16.113 C9.3716,19.693 12.2736,22.595 15.8536,22.595 C19.4336,22.595 22.3356,19.693 22.3356,16.113 C22.3356,12.532 19.4336,9.631 15.8536,9.631" id="Fill-25" fill="#FFFFFF"></path>
        </g>
    </g>
</svg>
