<?xml version="1.0" encoding="UTF-8"?>
<svg width="511px" height="239px" viewBox="0 0 511 239" version="1.1" xmlns="http://www.w3.org/2000/svg" xmlns:xlink="http://www.w3.org/1999/xlink">
    <!-- Generator: Sketch 50.2 (55047) - http://www.bohemiancoding.com/sketch -->
    <title>drone</title>
    <desc>Created with Sketch.</desc>
    <defs></defs>
    <g id="Page-1" stroke="none" stroke-width="1" fill="none" fill-rule="evenodd">
        <g id="Home" transform="translate(-50.000000, -1926.000000)" fill="#5FD9EE" fill-rule="nonzero">
            <g id="drone" transform="translate(50.000000, 1925.000000)">
                <path d="M503.5,16.999 L415,16.999 L415,8.499 C415,4.357 411.642,0.999 407.5,0.999 C403.358,0.999 400,4.357 400,8.499 L400,16.999 L311.5,16.999 C307.358,16.999 304,20.357 304,24.499 C304,28.641 307.358,31.999 311.5,31.999 L400,31.999 L400,42.233 C390.71,45.371 384,54.163 384,64.499 L384,72.999 L341.766,72.999 C338.628,63.709 329.836,56.999 319.5,56.999 L191.5,56.999 C181.164,56.999 172.372,63.709 169.234,72.999 L127,72.999 L127,64.499 C127,54.164 120.29,45.372 111,42.233 L111,31.999 L199.5,31.999 C203.642,31.999 207,28.641 207,24.499 C207,20.357 203.642,16.999 199.5,16.999 L111,16.999 L111,8.499 C111,4.357 107.642,0.999 103.5,0.999 C99.358,0.999 96,4.357 96,8.499 L96,16.999 L7.5,16.999 C3.358,16.999 0,20.357 0,24.499 C0,28.641 3.358,31.999 7.5,31.999 L96,31.999 L96,42.233 C86.71,45.371 80,54.163 80,64.499 L80,96.499 C80,109.457 90.542,119.999 103.5,119.999 C116.458,119.999 127,109.457 127,96.499 L127,87.999 L169.234,87.999 C172.372,97.289 181.164,103.999 191.5,103.999 L200,103.999 L200,129.084 C186.478,130.036 175.009,139.541 171.679,152.859 L153.644,224.999 L143.5,224.999 C139.358,224.999 136,228.357 136,232.499 C136,236.641 139.358,239.999 143.5,239.999 L159.478,239.999 C159.487,239.999 159.497,240.001 159.506,240.001 C159.513,240.001 159.519,239.999 159.526,239.999 L175.5,239.999 C179.642,239.999 183,236.641 183,232.499 C183,228.357 179.642,224.999 175.5,224.999 L169.106,224.999 L186.231,156.497 C187.99,149.461 194.087,144.467 201.249,144.041 C204.399,153.31 213.18,159.999 223.5,159.999 L287.5,159.999 C297.82,159.999 306.601,153.31 309.751,144.041 C316.912,144.467 323.01,149.461 324.769,156.497 L341.894,224.999 L335.5,224.999 C331.358,224.999 328,228.357 328,232.499 C328,236.641 331.358,239.999 335.5,239.999 L351.474,239.999 C351.481,239.999 351.487,240.001 351.494,240.001 C351.503,240.001 351.513,239.999 351.522,239.999 L367.5,239.999 C371.642,239.999 375,236.641 375,232.499 C375,228.357 371.642,224.999 367.5,224.999 L357.356,224.999 L339.321,152.859 C335.992,139.54 324.522,130.036 311,129.084 L311,103.999 L319.5,103.999 C329.836,103.999 338.628,97.289 341.766,87.999 L384,87.999 L384,96.499 C384,109.457 394.542,119.999 407.5,119.999 C420.458,119.999 431,109.457 431,96.499 L431,64.499 C431,54.164 424.29,45.372 415,42.233 L415,31.999 L503.5,31.999 C507.642,31.999 511,28.641 511,24.499 C511,20.357 507.642,16.999 503.5,16.999 Z M112,96.499 C112,101.186 108.187,104.999 103.5,104.999 C98.813,104.999 95,101.186 95,96.499 L95,64.499 C95,59.812 98.813,55.999 103.5,55.999 C108.187,55.999 112,59.812 112,64.499 L112,96.499 Z M319.5,88.999 L303.5,88.999 L287.5,88.999 C283.358,88.999 280,92.357 280,96.499 C280,100.641 283.358,103.999 287.5,103.999 L296,103.999 L296,136.499 C296,141.186 292.187,144.999 287.5,144.999 L223.5,144.999 C218.813,144.999 215,141.186 215,136.499 L215,103.999 L255.5,103.999 C259.642,103.999 263,100.641 263,96.499 C263,92.357 259.642,88.999 255.5,88.999 L207.5,88.999 L191.5,88.999 C186.813,88.999 183,85.186 183,80.499 C183,75.812 186.813,71.999 191.5,71.999 L319.5,71.999 C324.187,71.999 328,75.812 328,80.499 C328,85.186 324.187,88.999 319.5,88.999 Z M416,96.499 C416,101.186 412.187,104.999 407.5,104.999 C402.813,104.999 399,101.186 399,96.499 L399,64.499 C399,59.812 402.813,55.999 407.5,55.999 C412.187,55.999 416,59.812 416,64.499 L416,96.499 Z" id="Shape"></path>
            </g>
        </g>
    </g>
</svg>