<?xml version="1.0" encoding="UTF-8"?>
<svg width="94px" height="21px" viewBox="0 0 94 21" version="1.1" xmlns="http://www.w3.org/2000/svg" xmlns:xlink="http://www.w3.org/1999/xlink">
    <!-- Generator: Sketch 52.4 (67378) - http://www.bohemiancoding.com/sketch -->
    <title>logos/flock</title>
    <desc>Created with Sketch.</desc>
    <g id="Page-1" stroke="none" stroke-width="1" fill="none" fill-rule="evenodd">
        <g id="Desktop" transform="translate(-152.000000, -21.000000)">
            <g id="logos/flock" transform="translate(152.000000, 21.000000)">
                <g id="Group">
                    <g id="Semi-solid" transform="translate(67.060976, 6.416667)" fill="#393D3D">
                        <polygon id="Fill-2" points="3.0908229 13.5510262 5.99027081 10.5687792 3.0908229 10.5687792 0.191374996 10.5687792 0.191374996 13.5510262"></polygon>
                        <polygon id="Fill-3" points="11.7890579 13.5510262 11.7890579 10.5687792 8.88960999 10.5687792 5.99027081 10.5687792 8.88960999 13.5510262"></polygon>
                        <polygon id="Fill-5" points="17.5898673 13.5510262 20.4893152 10.5687792 17.5898673 10.5687792 14.6904194 10.5687792 14.6904194 13.5510262"></polygon>
                        <polygon id="Fill-6" points="23.3887196 10.5688351 20.4892717 10.5688351 23.3887196 13.5509703 26.2880588 13.5509703 26.2880588 10.5688351"></polygon>
                        <polygon id="Fill-8" points="10.3394753 3.11327351 13.2389232 0.131026498 10.3394753 0.131026498 7.44002738 0.131026498 7.44002738 3.11327351"></polygon>
                        <polygon id="Fill-9" points="19.0376777 3.11327351 19.0376777 0.131026498 16.1382298 0.131026498 13.2388906 0.131026498 16.1382298 3.11327351"></polygon>
                    </g>
                    <g id="Solid" transform="translate(0.286585, 0.291667)" fill="#000000">
                        <path d="M26.4463711,15.6746255 C25.0074656,15.6746255 23.8369006,14.470521 23.8369006,12.9906367 C23.8369006,11.5106406 25.0074656,10.3066479 26.4463711,10.3066479 C27.8852766,10.3066479 29.0558416,11.5106406 29.0558416,12.9906367 C29.0558416,14.470521 27.8852766,15.6746255 26.4463711,15.6746255 M26.4463711,5.83333333 C22.6032735,5.83333333 19.4877831,9.03779225 19.4877831,12.9906367 C19.4877831,16.9434812 22.6032735,20.1479401 26.4463711,20.1479401 C30.2894688,20.1479401 33.4049591,16.9434812 33.4049591,12.9906367 C33.4049591,9.03779225 30.2894688,5.83333333 26.4463711,5.83333333" id="Fill-12"></path>
                        <polygon id="Fill-14" points="54.8533931 6.28066479 51.591555 9.63565075 51.591555 6.28066479 47.2424375 6.28066479 47.2424375 19.7006086 51.591555 19.7006086 51.591555 16.3456227 54.8533931 19.7006086 60.28979 19.7006086 53.7661138 12.9906367 60.28979 6.28066479"></polygon>
                        <path d="M41.2333706,10.3066479 C41.9528234,10.3066479 42.605191,10.6075902 43.0777226,11.0936158 L46.1538534,7.92964039 C44.8945664,6.63450398 43.1549194,5.83333333 41.2333706,5.83333333 C37.3902729,5.83333333 34.2747826,9.03779225 34.2747826,12.9906367 C34.2747826,16.9434812 37.3902729,20.1479401 41.2333706,20.1479401 C43.1549194,20.1479401 44.8945664,19.3467694 46.1538534,18.051633 L43.0777226,14.8875458 C42.605191,15.3735714 41.9528234,15.6746255 41.2333706,15.6746255 C39.7944651,15.6746255 38.6239001,14.470521 38.6239001,12.9906367 C38.6239001,11.5106406 39.7944651,10.3066479 41.2333706,10.3066479" id="Fill-16"></path>
                        <polygon id="Fill-10" points="15.5735991 6.28066479 11.2244816 6.28066479 11.2244816 19.7006086 18.8354373 19.7006086 18.8354373 15.227294 15.5735991 15.227294"></polygon>
                        <polygon id="Fill-11" points="0.351687896 6.28064243 0.351687896 19.7006981 4.70080539 19.7006981 4.70080539 16.3456003 7.96264351 16.3456003 7.96264351 12.9906143 4.70080539 12.9906143 4.70080539 10.7540689 10.1372023 10.7540689 10.1372023 6.28064243"></polygon>
                        <polygon id="Fill-1" points="78.6285833 16.7169972 72.8297962 10.752615 67.0309004 16.7169972"></polygon>
                        <polygon id="Fill-4" points="81.5299666 16.7169972 93.1276494 16.7169972 87.3287536 10.752615"></polygon>
                        <polygon id="Fill-7" points="80.0783833 0.314839952 74.2795963 6.27922215 85.8771704 6.27922215"></polygon>
                    </g>
                </g>
            </g>
        </g>
    </g>
</svg>