<?xml version="1.0" encoding="UTF-8"?>
<svg width="30px" height="21px" viewBox="0 0 30 21" version="1.1" xmlns="http://www.w3.org/2000/svg" xmlns:xlink="http://www.w3.org/1999/xlink">
    <!-- Generator: Sketch 52.4 (67378) - http://www.bohemiancoding.com/sketch -->
    <title>logos/flock copy</title>
    <desc>Created with Sketch.</desc>
    <g id="Page-1" stroke="none" stroke-width="1" fill="none" fill-rule="evenodd">
        <g id="Artboard-Copy" transform="translate(-173.000000, -18.000000)">
            <g id="logos/flock-copy" transform="translate(173.000000, 18.000000)">
                <g id="Group">
                    <g id="Semi-solid" transform="translate(0.625000, 6.722222)" fill="#393D3D">
                        <polygon id="Fill-2" points="3.37031221 14.1963132 6.53194423 11.0720544 3.37031221 11.0720544 0.208680181 11.0720544 0.208680181 14.1963132"></polygon>
                        <polygon id="Fill-3" points="12.8550897 14.1963132 12.8550897 11.0720544 9.6934577 11.0720544 6.53194423 11.0720544 9.6934577 14.1963132"></polygon>
                        <polygon id="Fill-5" points="19.1804404 14.1963132 22.3420725 11.0720544 19.1804404 11.0720544 16.0188084 11.0720544 16.0188084 14.1963132"></polygon>
                        <polygon id="Fill-6" points="25.5036571 11.072113 22.342025 11.072113 25.5036571 14.1962546 28.6651705 14.1962546 28.6651705 11.072113"></polygon>
                        <polygon id="Fill-8" points="11.2744278 3.26152463 14.4360599 0.137265855 11.2744278 0.137265855 8.11279581 0.137265855 8.11279581 3.26152463"></polygon>
                        <polygon id="Fill-9" points="20.7591698 3.26152463 20.7591698 0.137265855 17.5975378 0.137265855 14.4360243 0.137265855 17.5975378 3.26152463"></polygon>
                    </g>
                    <g id="Solid" transform="translate(0.312500, 0.305556)" fill="#000000">
                        <polygon id="Fill-1" points="13.2386148 17.5130447 6.91546926 11.2646443 0.592205211 17.5130447"></polygon>
                        <polygon id="Fill-4" points="16.4023571 17.5130447 29.0487667 17.5130447 22.7255026 11.2646443"></polygon>
                        <polygon id="Fill-7" points="14.8195138 0.329832331 8.49636827 6.57823273 21.1426593 6.57823273"></polygon>
                    </g>
                </g>
            </g>
        </g>
    </g>
</svg>