<?xml version="1.0" encoding="UTF-8"?>
<svg width="27px" height="21px" viewBox="0 0 27 21" version="1.1" xmlns="http://www.w3.org/2000/svg" xmlns:xlink="http://www.w3.org/1999/xlink">
    <!-- Generator: Sketch 50.2 (55047) - http://www.bohemiancoding.com/sketch -->
    <title>icons-cloud</title>
    <desc>Created with Sketch.</desc>
    <defs>
        <polygon id="path-1" points="26.23 18.3477 26.23 0.301 0.0005 0.301 0.0005 18.3477"></polygon>
    </defs>
    <g id="Page-1" stroke="none" stroke-width="1" fill="none" fill-rule="evenodd">
        <g id="Home" transform="translate(-651.000000, -3574.000000)">
            <g id="How-it-works-+-Risk" transform="translate(0.000000, 2046.000000)">
                <g id="Group-16" transform="translate(65.000000, 908.000000)">
                    <g transform="translate(585.000000, 0.000000)" id="Group-15">
                        <g transform="translate(0.000000, 304.000000)">
                            <g id="Group-5" transform="translate(1.000000, 315.000000)">
                                <g id="icons-cloud">
                                    <polygon id="Fill-1" fill="#FFE001" points="11.5479 13.793 8.8929 16.449 10.0789 17.636 12.7349 14.98"></polygon>
                                    <polygon id="Fill-2" fill="#FFE001" points="4.8294 20.5121 6.0154 21.6991 9.2654 18.4491 8.0784 17.2631"></polygon>
                                    <polygon id="Fill-3" fill="#FFE001" points="8.2715 14.98 7.0845 13.793 4.4275 16.449 5.6155 17.636"></polygon>
                                    <polygon id="Fill-4" fill="#FFE001" points="0 16.4495 1.187 17.6365 3.843 14.9795 2.656 13.7925"></polygon>
                                    <polygon id="Fill-5" fill="#FFE001" points="0.8559 20.0099 2.0419 21.1969 4.8029 18.4359 3.6169 17.2489"></polygon>
                                    <g transform="translate(0.000000, 0.699200)">
                                        <mask id="mask-2" fill="white">
                                            <use xlink:href="#path-1"></use>
                                        </mask>
                                        <g id="Clip-7"></g>
                                        <path d="M26.2305,11.3477 C26.0265,8.2617 23.6915,5.7647 20.6805,5.3057 C19.4345,2.3647 16.5215,0.3007 13.1255,0.3007 C13.1225,0.3007 13.1195,0.3017 13.1155,0.3017 C13.1115,0.3017 13.1085,0.3007 13.1055,0.3007 C9.7095,0.3007 6.7955,2.3647 5.5485,5.3057 C2.5395,5.7647 0.2045,8.2617 0.0005,11.3477 L0.0195,11.3477 C0.0105,11.4927 0.0005,11.6377 0.0005,11.7847 C0.0005,12.4517 0.0995,13.0967 0.2855,13.7027 L1.6605,12.2227 C1.6475,12.0787 1.6405,11.9327 1.6405,11.7847 C1.6405,9.3787 3.4355,7.2907 5.8165,6.9277 L6.7225,6.7897 L7.0805,5.9467 C8.1095,3.5157 10.4785,1.9457 13.1155,1.9417 C15.7515,1.9457 18.1215,3.5157 19.1505,5.9467 L19.5075,6.7897 L20.4145,6.9277 C22.7945,7.2907 24.5895,9.3787 24.5895,11.7847 C24.5895,14.4987 22.3805,16.7067 19.6685,16.7067 L14.2635,16.7067 L11.9665,16.7067 L10.3265,18.3477 L15.9045,18.3477 L19.6685,18.3477 C23.2925,18.3477 26.2305,15.4097 26.2305,11.7847 C26.2305,11.6377 26.2195,11.4927 26.2095,11.3477 L26.2305,11.3477 Z" id="Fill-6" fill="#FFE001" mask="url(#mask-2)"></path>
                                    </g>
                                </g>
                            </g>
                        </g>
                    </g>
                </g>
            </g>
        </g>
    </g>
</svg>