<?xml version="1.0" encoding="UTF-8"?>
<svg width="19px" height="19px" viewBox="0 0 19 19" version="1.1" xmlns="http://www.w3.org/2000/svg" xmlns:xlink="http://www.w3.org/1999/xlink">
    <!-- Generator: Sketch 50.2 (55047) - http://www.bohemiancoding.com/sketch -->
    <title>icons-house</title>
    <desc>Created with Sketch.</desc>
    <defs></defs>
    <g id="Page-1" stroke="none" stroke-width="1" fill="none" fill-rule="evenodd">
        <g id="Home" transform="translate(-655.000000, -3260.000000)" fill="#FFE001">
            <g id="How-it-works-+-Risk" transform="translate(0.000000, 2046.000000)">
                <g id="Group-16" transform="translate(65.000000, 908.000000)">
                    <g transform="translate(585.000000, 0.000000)" id="Group-15">
                        <g transform="translate(0.000000, 304.000000)">
                            <g id="Group-31" transform="translate(5.000000, 0.000000)">
                                <g id="risk-/-buildings-/-yellow" transform="translate(0.000000, 2.000000)">
                                    <g id="risk-/-buildings-/-white">
                                        <polygon id="Fill-1" points="7.278 3.8841 8.599 3.8841 8.599 2.5741 7.278 2.5741"></polygon>
                                        <polygon id="Fill-2" points="10.221 3.8841 11.541 3.8841 11.541 2.5741 10.221 2.5741"></polygon>
                                        <polygon id="Fill-3" points="7.278 5.9881 8.599 5.9881 8.599 4.6781 7.278 4.6781"></polygon>
                                        <polygon id="Fill-4" points="10.221 5.9881 11.541 5.9881 11.541 4.6781 10.221 4.6781"></polygon>
                                        <polygon id="Fill-5" points="7.278 7.8491 8.599 7.8491 8.599 6.5391 7.278 6.5391"></polygon>
                                        <polygon id="Fill-6" points="10.221 7.8491 11.541 7.8491 11.541 6.5391 10.221 6.5391"></polygon>
                                        <polygon id="Fill-7" points="7.323 9.7471 8.643 9.7471 8.643 8.4371 7.323 8.4371"></polygon>
                                        <polygon id="Fill-8" points="10.265 9.7471 11.586 9.7471 11.586 8.4371 10.265 8.4371"></polygon>
                                        <polygon id="Fill-9" points="7.278 11.6491 8.599 11.6491 8.599 10.3391 7.278 10.3391"></polygon>
                                        <polygon id="Fill-10" points="10.221 11.6491 11.541 11.6491 11.541 10.3391 10.221 10.3391"></polygon>
                                        <path d="M4.0586,0.2575 L4.0586,8.2265 L0.2576,8.2265 L0.2576,18.6785 L4.0586,18.6785 L4.7336,18.6785 L14.1746,18.6785 L14.4286,18.6785 L18.6516,18.6785 L18.6516,8.2265 L14.4286,8.2265 L14.4286,0.2575 L4.0586,0.2575 Z M5.3686,1.5675 L13.1186,1.5675 L13.1186,17.3685 L11.7466,17.3685 L11.7466,12.3365 L7.1626,12.3365 L7.1626,17.3685 L5.3686,17.3685 L5.3686,1.5675 Z M14.4286,17.3685 L17.3416,17.3685 L17.3416,9.5365 L14.4286,9.5365 L14.4286,17.3685 Z M1.5676,17.3685 L4.0586,17.3685 L4.0586,9.5365 L1.5676,9.5365 L1.5676,17.3685 Z M8.4716,17.3685 L10.4366,17.3685 L10.4366,13.6465 L8.4716,13.6465 L8.4716,17.3685 Z" id="Fill-11"></path>
                                        <path d="M4.059,0.2575 L4.059,8.2265 L0.257,8.2265 L0.257,18.6785 L4.059,18.6785 L4.733,18.6785 L14.175,18.6785 L14.429,18.6785 L18.652,18.6785 L18.652,8.2265 L14.429,8.2265 L14.429,0.2575 L4.059,0.2575 Z M5.368,1.5675 L13.118,1.5675 L13.118,17.3685 L11.747,17.3685 L11.747,12.3375 L7.162,12.3375 L7.162,17.3685 L5.368,17.3685 L5.368,1.5675 Z M14.429,17.3695 L17.342,17.3695 L17.342,9.5365 L14.429,9.5365 L14.429,17.3695 Z M1.568,17.3695 L4.059,17.3695 L4.059,9.5365 L1.568,9.5365 L1.568,17.3695 Z M8.472,17.3675 L10.437,17.3675 L10.437,13.6465 L8.472,13.6465 L8.472,17.3675 Z" id="Fill-12"></path>
                                    </g>
                                </g>
                            </g>
                        </g>
                    </g>
                </g>
            </g>
        </g>
    </g>
</svg>