<svg xmlns="http://www.w3.org/2000/svg" width="34" height="34" viewBox="0 0 34 34">
  <g fill="none" fill-rule="evenodd">
    <path fill="#000000" fill-rule="nonzero" d="M17,34 C7.61115925,34 0,26.3888407 0,17 C0,7.61115925 7.61115925,0 17,0 C26.3888407,0 34,7.61115925 34,17 C34,26.3888407 26.3888407,34 17,34 Z M17,32 C25.2842712,32 32,25.2842712 32,17 C32,8.71572875 25.2842712,2 17,2 C8.71572875,2 2,8.71572875 2,17 C2,25.2842712 8.71572875,32 17,32 Z"/>
    <path fill="#F0D006" d="M18.49056,8.89504 C19.8106733,8.89504 20.8587695,9.2649563 21.63488,10.0048 C22.4109905,10.7446437 22.79904,11.8036198 22.79904,13.18176 L22.79904,13.3776 L20.66656,13.3776 L20.66656,13.0512 C20.66656,12.3983967 20.4453355,11.8652821 20.00288,11.45184 C19.5604245,11.0383979 19.00555,10.83168 18.33824,10.83168 C17.6419165,10.83168 17.0797888,11.0311447 16.65184,11.43008 C16.2238912,11.8290153 16.00992,12.3693833 16.00992,13.0512 L16.00992,15.72768 L20.07904,15.72768 L20.07904,17.66432 L16.00992,17.66432 L15.64,22.10336 L22.23328,22.10336 L22.23328,24.04 L11.91904,24.04 L11.91904,22.10336 L13.87744,22.10336 L13.87744,17.66432 L11.13568,17.66432 L11.13568,15.72768 L13.87744,15.72768 L13.87744,13.18176 C13.87744,11.8616467 14.2836226,10.8171772 15.096,10.04832 C15.9083774,9.27946282 16.9746067,8.89504 18.29472,8.89504 L18.49056,8.89504 Z"/>
  </g>
</svg>
