<?xml version="1.0" encoding="UTF-8"?>
<svg width="43px" height="19px" viewBox="0 0 43 19" version="1.1" xmlns="http://www.w3.org/2000/svg" xmlns:xlink="http://www.w3.org/1999/xlink">
    <!-- Generator: Sketch 52.5 (67469) - http://www.bohemiancoding.com/sketch -->
    <title>icons/binoculars</title>
    <desc>Created with Sketch.</desc>
    <defs>
        <polygon id="path-1" points="0 0.575 42.5195 0.575 42.5195 18.9997 0 18.9997"></polygon>
    </defs>
    <g id="Page-1" stroke="none" stroke-width="1" fill="none" fill-rule="evenodd">
        <g id="Fly-Unlimited-Page" transform="translate(-1216.000000, -3190.000000)">
            <g id="icons/binoculars" transform="translate(1215.000000, 3177.000000)">
                <g id="Group-8" transform="translate(1.000000, 12.000000)">
                    <g id="Group-3" transform="translate(0.000000, 0.425200)">
                        <mask id="mask-2" fill="white">
                            <use xlink:href="#path-1"></use>
                        </mask>
                        <g id="Clip-2"></g>
                        <path d="M33.3075,16.6967 C29.5865,16.6967 26.3975,13.6847 26.3975,9.7877 C26.3975,5.8897 29.4095,2.8777 33.3075,2.8777 C37.2045,2.8777 40.2165,5.8897 40.2165,9.7877 C40.2165,13.6847 37.0275,16.6967 33.3075,16.6967 M21.2595,7.4847 C20.0195,7.4847 18.9565,8.1927 18.4255,9.2557 C18.4255,8.0157 18.0715,6.9527 17.5385,5.8897 C19.6645,4.2957 22.8545,4.2957 24.8035,5.8897 C24.2715,6.9527 24.0945,8.1927 23.9165,9.4327 C23.5635,8.1927 22.4995,7.4847 21.2595,7.4847 M9.2125,16.6967 C5.4925,16.6967 2.3035,13.6847 2.3035,9.7877 C2.3035,5.8897 5.3155,2.8777 9.2125,2.8777 C12.9335,2.8777 16.1215,5.8897 16.1215,9.7877 C16.1215,13.6847 13.1105,16.6967 9.2125,16.6967 M33.3075,0.5747 C30.4725,0.5747 27.9925,1.8147 26.2205,3.9407 C24.8035,2.8777 23.0315,2.3467 21.2595,2.3467 C19.4885,2.3467 17.7165,2.8777 16.2995,3.9407 C14.5275,1.9917 12.0465,0.5747 9.2125,0.5747 C4.2515,0.5747 -0.0005,4.6497 -0.0005,9.7877 C-0.0005,14.9257 4.0755,18.9997 9.2125,18.9997 C12.5785,18.9997 15.5905,17.0507 17.1855,14.3937 C18.9565,14.0397 20.3735,12.6217 20.3735,10.6737 C20.3735,10.1417 20.7285,9.7877 21.2595,9.7877 C21.7905,9.7877 22.1455,10.1417 22.1455,10.6737 C22.1455,12.6217 23.5635,14.0397 25.3345,14.3937 C26.9295,17.2287 29.9415,18.9997 33.3075,18.9997 C38.4455,18.9997 42.5195,14.9257 42.5195,9.7877 C42.5195,4.6497 38.2675,0.5747 33.3075,0.5747" id="Fill-1" fill="#020303" mask="url(#mask-2)"></path>
                    </g>
                    <path d="M4.3065,10.0692 C4.3065,7.5842 6.3215,5.5692 8.8065,5.5692" id="Stroke-4" stroke="#FED900" stroke-width="2.835" stroke-linecap="round"></path>
                    <path d="M28.577,10.0692 C28.577,7.5842 30.592,5.5692 33.077,5.5692" id="Stroke-6" stroke="#FED900" stroke-width="2.835" stroke-linecap="round"></path>
                </g>
            </g>
        </g>
    </g>
</svg>