<?xml version="1.0" encoding="UTF-8"?>
<svg width="44px" height="43px" viewBox="0 0 44 43" version="1.1" xmlns="http://www.w3.org/2000/svg" xmlns:xlink="http://www.w3.org/1999/xlink">
    <!-- Generator: Sketch 52.6 (67491) - http://www.bohemiancoding.com/sketch -->
    <title>icons/infinity copy 5</title>
    <desc>Created with Sketch.</desc>
    <defs>
        <path d="M0.435,7.495 C0.435,11.163 3.42,14.15 7.088,14.15 C10.759,14.15 13.745,11.163 13.745,7.495 C13.745,3.824 10.759,0.839 7.088,0.839 C3.42,0.839 0.435,3.824 0.435,7.495 Z M3.17,7.495 C3.17,5.332 4.927,3.574 7.088,3.574 C9.252,3.574 11.01,5.332 11.01,7.495 C11.01,9.655 9.252,11.415 7.088,11.415 C4.927,11.415 3.17,9.655 3.17,7.495 Z" id="path-1"></path>
    </defs>
    <g id="icons/infinity-copy-5" stroke="none" stroke-width="1" fill="none" fill-rule="evenodd">
        <g id="Group-9" transform="translate(7.000000, 6.000000)">
            <g id="Group-3" transform="translate(8.000000, 8.021000)">
                <mask id="mask-2" fill="white">
                    <use xlink:href="#path-1"></use>
                </mask>
                <g id="Clip-2"></g>
                <polygon id="Fill-1" fill="#ffffff" mask="url(#mask-2)" points="-1.414 15.999 15.595 15.999 15.595 -1.01 -1.414 -1.01"></polygon>
            </g>
            <g id="Group-8" transform="translate(0.000000, 0.021000)">
                <path d="M25.951,0.727 L4.229,0.727 C2.08,0.727 0.322,2.485 0.322,4.633 L0.322,26.355 C0.322,28.504 2.08,30.262 4.229,30.262 L25.951,30.262 C28.099,30.262 29.857,28.504 29.857,26.355 L29.857,4.633 C29.857,2.485 28.099,0.727 25.951,0.727 M25.951,3.427 C26.604,3.427 27.157,3.979 27.157,4.633 L27.157,26.355 C27.157,27.01 26.604,27.562 25.951,27.562 L4.229,27.562 C3.575,27.562 3.022,27.01 3.022,26.355 L3.022,4.633 C3.022,3.979 3.575,3.427 4.229,3.427 L25.951,3.427" id="Fill-4" fill="#ffffff"></path>
                <path d="M24.3338,7.5448 C24.3338,8.2588 23.7548,8.8388 23.0398,8.8388 C22.3248,8.8388 21.7448,8.2588 21.7448,7.5448 C21.7448,6.8298 22.3248,6.2508 23.0398,6.2508 C23.7548,6.2508 24.3338,6.8298 24.3338,7.5448" id="Fill-6" fill="#FED900"></path>
            </g>
        </g>
    </g>
</svg>
