<?xml version="1.0" encoding="UTF-8"?>
<svg width="68px" height="32px" viewBox="0 0 68 32" version="1.1" xmlns="http://www.w3.org/2000/svg" xmlns:xlink="http://www.w3.org/1999/xlink">
    <!-- Generator: Sketch 50.2 (55047) - http://www.bohemiancoding.com/sketch -->
    <title>commercial-pilot</title>
    <desc>Created with Sketch.</desc>
    <defs></defs>
    <g id="Page-1" stroke="none" stroke-width="1" fill="none" fill-rule="evenodd">
        <g id="Pricing" transform="translate(-70.000000, -2441.000000)" fill="#F0D006">
            <g id="Group-18" transform="translate(50.000000, 2239.000000)">
                <g id="Group-14" transform="translate(0.000000, 172.000000)">
                    <g id="Group-32">
                        <g id="Group-24" transform="translate(20.000000, 30.000000)">
                            <g id="Drone-/-2-/-Yellow">
                                <g id="Drone-/-2">
                                    <path d="M67.0019569,3.21338912 L58.4187867,3.21338912 L58.4187867,3.14644351 C58.4187867,1.41148117 57.0159374,0 55.2915851,0 C53.5672329,0 52.1643836,1.41148117 52.1643836,3.14644351 L52.1643836,3.21338912 L43.5812133,3.21338912 C43.0300274,3.21338912 42.5831703,3.66299582 42.5831703,4.21757322 C42.5831703,4.77215063 43.0300274,5.22175732 43.5812133,5.22175732 L51.0998043,5.22175732 L51.0998043,6.35983264 C51.0998043,6.38232636 51.101135,6.40441841 51.1015342,6.42677824 L44.6665519,6.42677824 C44.6656204,6.42677824 44.6646888,6.42677824 44.6637573,6.42677824 L23.3379726,6.42677824 C23.3362427,6.42677824 23.3345127,6.42677824 23.3327828,6.42677824 L16.8984658,6.42677824 C16.898865,6.40441841 16.9001957,6.38232636 16.9001957,6.35983264 L16.9001957,5.22175732 L24.4187867,5.22175732 C24.9699726,5.22175732 25.4168297,4.77215063 25.4168297,4.21757322 C25.4168297,3.66299582 24.9699726,3.21338912 24.4187867,3.21338912 L15.8356164,3.21338912 L15.8356164,3.14644351 C15.8356164,1.41148117 14.4327671,0 12.7084149,0 C10.9840626,0 9.58121331,1.41148117 9.58121331,3.14644351 L9.58121331,3.21338912 L0.998043053,3.21338912 C0.446857143,3.21338912 0,3.66299582 0,4.21757322 C0,4.77215063 0.446857143,5.22175732 0.998043053,5.22175732 L8.51663405,5.22175732 L8.51663405,6.35983264 C8.51663405,8.68538912 10.3970802,10.5774059 12.7084149,10.5774059 C14.2702857,10.5774059 15.6342779,9.71287029 16.3553973,8.43514644 L22.634818,8.43514644 L23.5659256,11.2456569 C24.2825205,13.4086695 26.286591,14.8619247 28.5525479,14.8619247 L33.0019569,14.8619247 L33.0019569,17.1380753 L27.6125245,17.1380753 C25.3011898,17.1380753 23.4207436,19.0300921 23.4207436,21.3556485 L23.4207436,27.7824268 C23.4207436,30.1079833 25.3011898,32 27.6125245,32 L40.3874755,32 C42.6988102,32 44.5792564,30.1079833 44.5792564,27.7824268 L44.5792564,21.3556485 C44.5792564,19.0300921 42.6988102,17.1380753 40.3874755,17.1380753 L34.9980431,17.1380753 L34.9980431,14.8619247 L39.4474521,14.8619247 C41.7135421,14.8619247 43.7174795,13.4086695 44.4340744,11.2456569 L45.365182,8.43514644 L51.6446027,8.43514644 C52.3657221,9.71287029 53.7297143,10.5774059 55.2915851,10.5774059 C57.6029198,10.5774059 59.4833659,8.68538912 59.4833659,6.35983264 L59.4833659,5.22175732 L67.0019569,5.22175732 C67.5531429,5.22175732 68,4.77215063 68,4.21757322 C68,3.66299582 67.5531429,3.21338912 67.0019569,3.21338912 Z M11.5772994,3.14644351 C11.5772994,2.5188954 12.0847045,2.0083682 12.7084149,2.0083682 C13.3321252,2.0083682 13.8395303,2.5188954 13.8395303,3.14644351 L13.8395303,3.21338912 L11.5772994,3.21338912 L11.5772994,3.14644351 Z M12.7084149,8.56903766 C11.4977221,8.56903766 10.5127202,7.5779749 10.5127202,6.35983264 L10.5127202,5.22175732 L14.9041096,5.22175732 L14.9041096,6.35983264 C14.9041096,7.5779749 13.9191076,8.56903766 12.7084149,8.56903766 Z M42.5831703,21.3556485 L42.5831703,27.7824268 C42.5831703,29.000569 41.5981683,29.9916318 40.3874755,29.9916318 L27.6125245,29.9916318 C26.4018317,29.9916318 25.4168297,29.000569 25.4168297,27.7824268 L25.4168297,21.3556485 C25.4168297,20.1375063 26.4018317,19.1464435 27.6125245,19.1464435 L40.3874755,19.1464435 C41.5981683,19.1464435 42.5831703,20.1375063 42.5831703,21.3556485 Z M42.5403209,10.6106109 C42.0958591,11.9522008 40.8529628,12.8535565 39.447319,12.8535565 L28.5525479,12.8535565 C27.1469041,12.8535565 25.9040078,11.9522008 25.459546,10.6106109 L24.7389589,8.43514644 L43.2610411,8.43514644 L42.5403209,10.6106109 Z M54.1604697,3.14644351 C54.1604697,2.5188954 54.6678748,2.0083682 55.2915851,2.0083682 C55.9152955,2.0083682 56.4227006,2.5188954 56.4227006,3.14644351 L56.4227006,3.21338912 L54.1604697,3.21338912 L54.1604697,3.14644351 Z M57.4872798,6.35983264 C57.4872798,7.5779749 56.5022779,8.56903766 55.2915851,8.56903766 C54.0808924,8.56903766 53.0958904,7.5779749 53.0958904,6.35983264 L53.0958904,5.22175732 L57.4872798,5.22175732 L57.4872798,6.35983264 Z" id="Shape" fill-rule="nonzero"></path>
                                    <path d="M30.8062622,20.3514644 C28.4949276,20.3514644 26.6144814,22.2434812 26.6144814,24.5690377 C26.6144814,26.8945941 28.4949276,28.7866109 30.8062622,28.7866109 C33.1175969,28.7866109 34.9980431,26.8945941 34.9980431,24.5690377 C34.9980431,22.2434812 33.1175969,20.3514644 30.8062622,20.3514644 Z M30.8062622,26.7782427 C29.5955695,26.7782427 28.6105675,25.7871799 28.6105675,24.5690377 C28.6105675,23.3508954 29.5955695,22.3598326 30.8062622,22.3598326 C32.016955,22.3598326 33.0019569,23.3508954 33.0019569,24.5690377 C33.0019569,25.7871799 32.016955,26.7782427 30.8062622,26.7782427 Z" id="Shape" fill-rule="nonzero"></path>
                                    <path d="M38.258317,22.3598326 L39.3228963,22.3598326 C39.8740822,22.3598326 40.3209393,21.9102259 40.3209393,21.3556485 C40.3209393,20.8010711 39.8740822,20.3514644 39.3228963,20.3514644 L38.258317,20.3514644 C37.7071311,20.3514644 37.260274,20.8010711 37.260274,21.3556485 C37.260274,21.9102259 37.7071311,22.3598326 38.258317,22.3598326 Z" id="Shape" fill-rule="nonzero"></path>
                                    <path d="M30.8062622,23.5648536 C30.5441096,23.5648536 30.2859491,23.6719665 30.1009785,23.8594142 C29.9146771,24.045523 29.8082192,24.305272 29.8082192,24.5690377 C29.8082192,24.8328033 29.9146771,25.0925523 30.1009785,25.2786611 C30.2859491,25.4661088 30.5441096,25.5732218 30.8062622,25.5732218 C31.0684149,25.5732218 31.3265753,25.4661088 31.511546,25.2786611 C31.6978474,25.0925523 31.8043053,24.8328033 31.8043053,24.5690377 C31.8043053,24.305272 31.6978474,24.045523 31.511546,23.8594142 C31.3265753,23.6719665 31.0684149,23.5648536 30.8062622,23.5648536 Z" id="Shape" fill-rule="nonzero"></path>
                                </g>
                            </g>
                        </g>
                    </g>
                </g>
            </g>
        </g>
    </g>
</svg>