<?xml version="1.0" encoding="UTF-8"?>
<svg width="38px" height="27px" viewBox="0 0 38 27" version="1.1" xmlns="http://www.w3.org/2000/svg" xmlns:xlink="http://www.w3.org/1999/xlink">
    <!-- Generator: Sketch 52.6 (67491) - http://www.bohemiancoding.com/sketch -->
    <title>icons/FUnlimited_2x</title>
    <desc>Created with Sketch.</desc>
    <defs>
        <polygon id="path-1" points="0 0.760301101 5.44723958 0.760301101 5.44723958 6.23577907 0 6.23577907"></polygon>
        <polygon id="path-3" points="0.176374215 0.760301101 5.62262069 0.760301101 5.62262069 6.23577907 0.176374215 6.23577907"></polygon>
    </defs>
    <g id="Page-1" stroke="none" stroke-width="1" fill="none" fill-rule="evenodd">
        <g id="PAYF-Copy" transform="translate(-1163.000000, -1909.000000)">
            <g id="Group-7" transform="translate(0.000000, 1540.000000)">
                <g id="icons/FUnlimited" transform="translate(1158.000000, 365.000000)">
                    <g id="Group-29" transform="translate(4.965517, 4.069767)">
                        <path d="M19.4682207,10.6842791 C19.7496,10.3684651 20.0409103,10.0616047 20.3471172,9.77183721 C20.7551172,9.38683721 21.1896,9.03032558 21.6654621,8.72834884 C22.2091862,8.38323256 22.8091862,8.10893023 23.4696,7.9607907 C23.8213241,7.88183721 24.1887724,7.84032558 24.5661517,7.84032558 C24.5934621,7.84032558 24.6207724,7.84602326 24.6489103,7.84602326 C25.1719448,7.85334884 25.6817379,7.93067442 26.1609103,8.078 C26.6649103,8.23102326 27.1382897,8.45730233 27.5661517,8.74137209 C28.4210483,9.31032558 29.1004966,10.1136977 29.5084966,11.0619535 C29.7799448,11.6927674 29.9305655,12.3903256 29.9305655,13.1155581 C29.9305655,13.6592791 29.8461517,14.1883488 29.6889103,14.6848605 C29.531669,15.1813721 29.3024276,15.6469535 29.0127724,16.0669535 C28.4351172,16.9077674 27.6182897,17.5768372 26.6541517,17.9773023 C26.0359448,18.2345116 25.355669,18.3769535 24.6489103,18.3883488 C24.6207724,18.3883488 24.5934621,18.3924186 24.5653241,18.3924186 C23.9678069,18.3924186 23.3976,18.2849767 22.8712552,18.0985814 C22.835669,18.0863721 22.8009103,18.0733488 22.7661517,18.0611395 C22.2100138,17.8503256 21.7051862,17.5556744 21.2409103,17.213 C21.007531,17.0428837 20.7857379,16.8589302 20.5697379,16.6668372 C20.4977379,16.6025349 20.4273931,16.5366047 20.3578759,16.4706744 C19.9838069,16.1190465 19.6329103,15.7413721 19.2944276,15.3514884 C18.8433931,14.833 18.4163586,14.2933488 17.9976,13.765093 C17.5846345,13.2457907 17.1807724,12.7378837 16.7785655,12.2739302 C16.3763586,11.8091628 15.9749793,11.3891628 15.5760828,11.0424186 C15.3104276,10.8120698 15.0447724,10.6142791 14.7824276,10.4547442 C14.4323586,10.2414884 14.0897379,10.0974186 13.739669,10.0192791 C13.5402207,9.97451163 13.3358069,9.95090698 13.1206345,9.95090698 C12.7846345,9.95090698 12.4643586,10.0005581 12.1631172,10.0925349 C11.8618759,10.1853256 11.5788414,10.3196279 11.3214621,10.4905581 C10.807531,10.8324186 10.3978759,11.3175349 10.1537379,11.8848605 C9.99235862,12.2625349 9.90132414,12.6760233 9.90132414,13.1163721 C9.90132414,13.4468372 9.95263448,13.7610233 10.0461517,14.0581163 C10.1404966,14.3552093 10.2778759,14.6327674 10.4508414,14.885907 C10.7976,15.3913721 11.291669,15.7942791 11.867669,16.0335814 C12.2524966,16.1939302 12.6729103,16.2818372 13.1206345,16.2818372 C13.3159448,16.2818372 13.5021517,16.2631163 13.6850483,16.2256744 C13.8671172,16.1882326 14.0467034,16.1328837 14.2262897,16.0596279 C14.5854621,15.9147442 14.9479448,15.6941628 15.3153931,15.4052093 C15.559531,15.2114884 15.8061517,14.990093 16.0527724,14.7434651 C16.3134621,14.483 16.5749793,14.1948605 16.8373241,13.8896279 L18.2094621,15.5557907 C17.9313931,15.8691628 17.6425655,16.1727674 17.339669,16.460093 C16.931669,16.845093 16.4971862,17.2024186 16.0213241,17.5035814 C15.4784276,17.8486977 14.8767724,18.123814 14.2163586,18.2711395 C13.8646345,18.3492791 13.4971862,18.3924186 13.1206345,18.3924186 C12.5678069,18.3924186 12.0307034,18.3085814 11.5258759,18.1547442 C11.0210483,18.000093 10.5484966,17.7746279 10.1206345,17.4897442 C9.26491034,16.9216047 8.58628966,16.1182326 8.17746207,15.1699767 C7.90601379,14.5375349 7.75622069,13.8416047 7.75622069,13.1155581 C7.75622069,12.5718372 7.84063448,12.0435814 7.99787586,11.5486977 C8.15428966,11.0513721 8.38353103,10.5866047 8.67235862,10.1657907 C9.25084138,9.32416279 10.0684966,8.65753488 11.0326345,8.25625581 C11.6740138,7.98765116 12.3824276,7.84113953 13.1206345,7.84113953 C13.2406345,7.84113953 13.3581517,7.8452093 13.475669,7.85334884 C13.9829793,7.88916279 14.4679448,8.00230233 14.9189793,8.1724186 C15.4056,8.35718605 15.8533241,8.60462791 16.2687724,8.8935814 C16.3283586,8.93509302 16.3862897,8.97660465 16.4450483,9.01974419 C16.7553931,9.24765116 17.047531,9.49753488 17.3272552,9.76206977 C17.7013241,10.1145116 18.0522207,10.492186 18.3907034,10.8812558 C18.8417379,11.4005581 19.2696,11.9393953 19.6883586,12.4668372 L20.1493241,13.0447442 C20.4042207,13.362186 20.6566345,13.6690465 20.9073931,13.958814 C21.2094621,14.307186 21.5098759,14.6311395 21.8102897,14.9168372 C21.9096,15.0120698 22.0097379,15.1032326 22.1098759,15.1895116 C22.3763586,15.4206744 22.6411862,15.6184651 22.9027034,15.778 C22.9912552,15.830907 23.0781517,15.8797442 23.1650483,15.9245116 C23.4249103,16.058814 23.6839448,16.1548605 23.9462897,16.2134651 C24.1457379,16.2590465 24.3493241,16.2818372 24.5653241,16.2818372 C24.5934621,16.2818372 24.6207724,16.2769535 24.6489103,16.2761395 C24.9534621,16.268 25.2464276,16.2248605 25.5228414,16.1393953 C25.8249103,16.0474186 26.1071172,15.9131163 26.3644966,15.742186 C26.8784276,15.4011395 27.2880828,14.9143953 27.5322207,14.3486977 C27.6936,13.9693953 27.7846345,13.555907 27.7846345,13.1163721 C27.7846345,12.785907 27.7333241,12.470907 27.6398069,12.1746279 C27.5462897,11.8783488 27.4089103,11.5999767 27.2351172,11.3468372 C26.887531,10.8405581 26.3934621,10.4376512 25.8174621,10.1983488 C25.4574621,10.0493953 25.0643586,9.96962791 24.6489103,9.95823256 C24.6207724,9.9574186 24.5942897,9.95090698 24.5653241,9.95090698 C24.3700138,9.95090698 24.1829793,9.97044186 24.0017379,10.0070698 C23.8188414,10.0445116 23.6392552,10.0990465 23.4588414,10.1723023 C23.1013241,10.318 22.7380138,10.5377674 22.3705655,10.8275349 C22.1256,11.0196279 21.8798069,11.2426512 21.6331862,11.4884651 C21.3667034,11.7546279 21.1002207,12.0484651 20.8320828,12.3610233" id="Fill-1" fill="#020203"></path>
                        <path d="M7.24675862,5.47619767 C6.9537931,5.47619767 6.66082759,5.36875581 6.43324138,5.15387209 C5.96648276,4.71189535 5.95241379,3.98096512 6.4017931,3.52189535 L9.50275862,0.353988372 C9.95131034,-0.105081395 10.6936552,-0.119732558 11.1612414,0.32305814 C11.628,0.765034884 11.6428966,1.49515116 11.1935172,1.95503488 L8.09172414,5.12212791 C7.86165517,5.35736047 7.55462069,5.47619767 7.24675862,5.47619767" id="Fill-3" fill="#FED900"></path>
                        <path d="M1.17318621,11.4497209 C0.88022069,11.4497209 0.587255172,11.3422791 0.359668966,11.1273953 C-0.107089655,10.6854186 -0.121158621,9.95448837 0.32822069,9.4954186 L3.42918621,6.32669767 C3.87773793,5.86844186 4.62008276,5.85297674 5.08766897,6.29576744 C5.55442759,6.73774419 5.56932414,7.46786047 5.11994483,7.92774419 L2.01815172,11.0956512 C1.78808276,11.3308837 1.48104828,11.4497209 1.17318621,11.4497209" id="Fill-5" fill="#FED900"></path>
                        <path d="M5.58587586,6.19955814 C5.23084138,6.19955814 4.94201379,5.92688372 4.94201379,5.59072093 C4.94201379,5.25618605 5.23084138,4.98351163 5.58587586,4.98351163 C5.94091034,4.98351163 6.22973793,5.25618605 6.22973793,5.59072093 C6.22973793,5.92688372 5.94091034,6.19955814 5.58587586,6.19955814 Z M8.29787586,6.65455814 C8.44270345,6.32572093 8.52463448,5.9675814 8.52463448,5.59072093 C8.52463448,4.06130233 7.20628966,2.81676744 5.58587586,2.81676744 C3.96546207,2.81676744 2.64794483,4.06130233 2.64794483,5.59072093 C2.64794483,7.12095349 3.96546207,8.36467442 5.58587586,8.36467442 C5.96491034,8.36467442 6.32491034,8.2914186 6.6576,8.16769767 L8.79277241,10.2213023 L10.4173241,8.69269767 L8.29787586,6.65455814 Z" id="Fill-7" fill="#020203"></path>
                        <path d="M30.6527172,5.47619767 C30.3448552,5.47619767 30.0378207,5.35736047 29.8077517,5.12212791 L26.7059586,1.95503488 C26.2565793,1.49515116 26.2714759,0.765034884 26.7382345,0.32305814 C27.2049931,-0.119732558 27.9473379,-0.105081395 28.3967172,0.353988372 L31.4976828,3.52189535 C31.9470621,3.98096512 31.9329931,4.71189535 31.4662345,5.15387209 C31.2386483,5.36875581 30.9456828,5.47619767 30.6527172,5.47619767" id="Fill-9" fill="#FED900"></path>
                        <path d="M36.7254621,11.4497209 C36.4176,11.4497209 36.1105655,11.3308837 35.8804966,11.0956512 L32.779531,7.92774419 C32.3301517,7.46786047 32.3450483,6.73774419 32.8118069,6.29576744 C33.2785655,5.85297674 34.0209103,5.86844186 34.4702897,6.32669767 L37.5704276,9.4954186 C38.0198069,9.95448837 38.0057379,10.6854186 37.5389793,11.1273953 C37.3113931,11.3422791 37.0184276,11.4497209 36.7254621,11.4497209" id="Fill-11" fill="#FED900"></path>
                        <path d="M31.6694069,5.59072093 C31.6694069,5.25618605 31.9582345,4.98351163 32.313269,4.98351163 C32.6683034,4.98351163 32.9579586,5.25618605 32.9579586,5.59072093 C32.9579586,5.92688372 32.6683034,6.19955814 32.313269,6.19955814 C31.9582345,6.19955814 31.6694069,5.92688372 31.6694069,5.59072093 Z M27.4818207,8.69351163 L29.1063724,10.2213023 L31.2415448,8.16769767 C31.5750621,8.2914186 31.9342345,8.36467442 32.313269,8.36467442 C33.9328552,8.36467442 35.2512,7.12095349 35.2512,5.59072093 C35.2512,4.06130233 33.9328552,2.81676744 32.313269,2.81676744 C30.6928552,2.81676744 29.3753379,4.06130233 29.3753379,5.59072093 C29.3753379,5.9675814 29.4564414,6.32572093 29.601269,6.65455814 L27.4818207,8.69351163 Z" id="Fill-13" fill="#020203"></path>
                        <path d="M10.3478069,26.1008837 C10.0399448,26.1008837 9.73291034,25.9820465 9.50284138,25.746814 L6.40104828,22.578907 C5.95166897,22.1190233 5.96656552,21.388907 6.43332414,20.9469302 C6.90091034,20.5049535 7.6416,20.5187907 8.0918069,20.9778605 L11.1927724,24.1465814 C11.6421517,24.6056512 11.6280828,25.3365814 11.1613241,25.7785581 C10.9337379,25.9934419 10.6407724,26.1008837 10.3478069,26.1008837" id="Fill-15" fill="#FED900"></path>
                        <g id="Group-19" transform="translate(0.000000, 13.891581)">
                            <mask id="mask-2" fill="white">
                                <use xlink:href="#path-1"></use>
                            </mask>
                            <g id="Clip-18"></g>
                            <path d="M4.27423448,6.23577907 C3.96637241,6.23577907 3.65933793,6.11694186 3.42926897,5.8817093 L0.327475862,2.71461628 C-0.121903448,2.25473256 -0.107006897,1.52461628 0.359751724,1.08263953 C0.827337931,0.640662791 1.56802759,0.655313953 2.01823448,1.11356977 L5.1192,4.28147674 C5.56857931,4.74054651 5.55451034,5.47147674 5.08775172,5.91345349 C4.86016552,6.12833721 4.5672,6.23577907 4.27423448,6.23577907" id="Fill-17" fill="#FED900" mask="url(#mask-2)"></path>
                        </g>
                        <path d="M6.23006897,20.5097558 C6.23006897,20.8451047 5.94041379,21.1177791 5.5862069,21.1177791 C5.23117241,21.1177791 4.94151724,20.8451047 4.94151724,20.5097558 C4.94151724,20.174407 5.23117241,19.9017326 5.5862069,19.9017326 C5.94041379,19.9017326 6.23006897,20.174407 6.23006897,20.5097558 Z M10.4176552,17.4077791 L8.79310345,15.8791744 L6.65793103,17.933593 C6.32441379,17.8098721 5.96524138,17.7358023 5.5862069,17.7358023 C3.9657931,17.7358023 2.64827586,18.9803372 2.64827586,20.5097558 C2.64827586,22.0399884 3.9657931,23.2845233 5.5862069,23.2845233 C7.20662069,23.2845233 8.52413793,22.0399884 8.52413793,20.5097558 C8.52413793,20.1328953 8.44303448,19.7747558 8.2982069,19.4467326 L10.4176552,17.4077791 Z" id="Fill-20" fill="#020203"></path>
                        <path d="M27.551669,26.1008837 C27.2587034,26.1008837 26.9657379,25.9934419 26.7381517,25.7785581 C26.2713931,25.3365814 26.2573241,24.6056512 26.7067034,24.1465814 L29.807669,20.9778605 C30.2562207,20.5187907 30.9977379,20.5049535 31.4661517,20.9469302 C31.9329103,21.388907 31.9478069,22.1190233 31.4984276,22.578907 L28.3966345,25.746814 C28.1665655,25.9820465 27.859531,26.1008837 27.551669,26.1008837" id="Fill-22" fill="#FED900"></path>
                        <g id="Group-26" transform="translate(32.275862, 13.891581)">
                            <mask id="mask-4" fill="white">
                                <use xlink:href="#path-3"></use>
                            </mask>
                            <g id="Clip-25"></g>
                            <path d="M1.34937931,6.23577907 C1.05641379,6.23577907 0.763448276,6.12833721 0.535862069,5.91345349 C0.0691034483,5.47147674 0.0550344828,4.74054651 0.504413793,4.28147674 L3.60455172,1.11356977 C4.05310345,0.655313953 4.79462069,0.640662791 5.26303448,1.08263953 C5.7297931,1.52461628 5.74468966,2.25473256 5.29531034,2.71461628 L2.19434483,5.8817093 C1.96427586,6.11694186 1.65724138,6.23577907 1.34937931,6.23577907" id="Fill-24" fill="#FED900" mask="url(#mask-4)"></path>
                        </g>
                        <path d="M32.3135172,19.9016512 C32.6685517,19.9016512 32.9573793,20.1743256 32.9573793,20.5096744 C32.9573793,20.8450233 32.6685517,21.1176977 32.3135172,21.1176977 C31.9576552,21.1176977 31.6696552,20.8450233 31.6696552,20.5096744 C31.6696552,20.1743256 31.9576552,19.9016512 32.3135172,19.9016512 Z M29.6015172,19.4466512 C29.4566897,19.7746744 29.3747586,20.132814 29.3747586,20.5096744 C29.3747586,22.039907 30.6931034,23.2844419 32.3135172,23.2844419 C33.9331034,23.2844419 35.2514483,22.039907 35.2514483,20.5096744 C35.2514483,18.9802558 33.9331034,17.7357209 32.3135172,17.7357209 C31.9344828,17.7357209 31.5744828,17.8097907 31.2417931,17.9335116 L29.1066207,15.879093 L27.482069,17.4085116 L29.6015172,19.4466512 Z" id="Fill-27" fill="#020203"></path>
                    </g>
                </g>
            </g>
        </g>
    </g>
</svg>
