<?xml version="1.0" encoding="UTF-8"?>
<svg width="58px" height="43px" viewBox="0 0 58 43" version="1.1" xmlns="http://www.w3.org/2000/svg" xmlns:xlink="http://www.w3.org/1999/xlink">
    <!-- Generator: Sketch 52.6 (67491) - http://www.bohemiancoding.com/sketch -->
    <title>icons/FUnlimited</title>
    <desc>Created with Sketch.</desc>
    <defs>
        <polygon id="path-1" points="0 0.93408421 6.58208116 0.93408421 6.58208116 7.6611 0 7.6611"></polygon>
        <polygon id="path-3" points="0.213118843 0.93408421 6.794 0.93408421 6.794 7.6611 0.213118843 7.6611"></polygon>
    </defs>
    <g id="icons/FUnlimited" stroke="none" stroke-width="1" fill="none" fill-rule="evenodd">
        <g id="Group-29" transform="translate(6.000000, 5.000000)">
            <path d="M23.5241,13.1264 C23.8641,12.7384 24.2161,12.3614 24.5861,12.0054 C25.0791,11.5324 25.6041,11.0944 26.1791,10.7234 C26.8361,10.2994 27.5611,9.9624 28.3591,9.7804 C28.7841,9.6834 29.2281,9.6324 29.6841,9.6324 C29.7171,9.6324 29.7501,9.6394 29.7841,9.6394 C30.4161,9.6484 31.0321,9.7434 31.6111,9.9244 C32.2201,10.1124 32.7921,10.3904 33.3091,10.7394 C34.3421,11.4384 35.1631,12.4254 35.6561,13.5904 C35.9841,14.3654 36.1661,15.2224 36.1661,16.1134 C36.1661,16.7814 36.0641,17.4314 35.8741,18.0414 C35.6841,18.6514 35.4071,19.2234 35.0571,19.7394 C34.3591,20.7724 33.3721,21.5944 32.2071,22.0864 C31.4601,22.4024 30.6381,22.5774 29.7841,22.5914 C29.7501,22.5914 29.7171,22.5964 29.6831,22.5964 C28.9611,22.5964 28.2721,22.4644 27.6361,22.2354 C27.5931,22.2204 27.5511,22.2044 27.5091,22.1894 C26.8371,21.9304 26.2271,21.5684 25.6661,21.1474 C25.3841,20.9384 25.1161,20.7124 24.8551,20.4764 C24.7681,20.3974 24.6831,20.3164 24.5991,20.2354 C24.1471,19.8034 23.7231,19.3394 23.3141,18.8604 C22.7691,18.2234 22.2531,17.5604 21.7471,16.9114 C21.2481,16.2734 20.7601,15.6494 20.2741,15.0794 C19.7881,14.5084 19.3031,13.9924 18.8211,13.5664 C18.5001,13.2834 18.1791,13.0404 17.8621,12.8444 C17.4391,12.5824 17.0251,12.4054 16.6021,12.3094 C16.3611,12.2544 16.1141,12.2254 15.8541,12.2254 C15.4481,12.2254 15.0611,12.2864 14.6971,12.3994 C14.3331,12.5134 13.9911,12.6784 13.6801,12.8884 C13.0591,13.3084 12.5641,13.9044 12.2691,14.6014 C12.0741,15.0654 11.9641,15.5734 11.9641,16.1144 C11.9641,16.5204 12.0261,16.9064 12.1391,17.2714 C12.2531,17.6364 12.4191,17.9774 12.6281,18.2884 C13.0471,18.9094 13.6441,19.4044 14.3401,19.6984 C14.8051,19.8954 15.3131,20.0034 15.8541,20.0034 C16.0901,20.0034 16.3151,19.9804 16.5361,19.9344 C16.7561,19.8884 16.9731,19.8204 17.1901,19.7304 C17.6241,19.5524 18.0621,19.2814 18.5061,18.9264 C18.8011,18.6884 19.0991,18.4164 19.3971,18.1134 C19.7121,17.7934 20.0281,17.4394 20.3451,17.0644 L22.0031,19.1114 C21.6671,19.4964 21.3181,19.8694 20.9521,20.2224 C20.4591,20.6954 19.9341,21.1344 19.3591,21.5044 C18.7031,21.9284 17.9761,22.2664 17.1781,22.4474 C16.7531,22.5434 16.3091,22.5964 15.8541,22.5964 C15.1861,22.5964 14.5371,22.4934 13.9271,22.3044 C13.3171,22.1144 12.7461,21.8374 12.2291,21.4874 C11.1951,20.7894 10.3751,19.8024 9.8811,18.6374 C9.5531,17.8604 9.3721,17.0054 9.3721,16.1134 C9.3721,15.4454 9.4741,14.7964 9.6641,14.1884 C9.8531,13.5774 10.1301,13.0064 10.4791,12.4894 C11.1781,11.4554 12.1661,10.6364 13.3311,10.1434 C14.1061,9.8134 14.9621,9.6334 15.8541,9.6334 C15.9991,9.6334 16.1411,9.6384 16.2831,9.6484 C16.8961,9.6924 17.4821,9.8314 18.0271,10.0404 C18.6151,10.2674 19.1561,10.5714 19.6581,10.9264 C19.7301,10.9774 19.8001,11.0284 19.8711,11.0814 C20.2461,11.3614 20.5991,11.6684 20.9371,11.9934 C21.3891,12.4264 21.8131,12.8904 22.2221,13.3684 C22.7671,14.0064 23.2841,14.6684 23.7901,15.3164 L24.3471,16.0264 C24.6551,16.4164 24.9601,16.7934 25.2631,17.1494 C25.6281,17.5774 25.9911,17.9754 26.3541,18.3264 C26.4741,18.4434 26.5951,18.5554 26.7161,18.6614 C27.0381,18.9454 27.3581,19.1884 27.6741,19.3844 C27.7811,19.4494 27.8861,19.5094 27.9911,19.5644 C28.3051,19.7294 28.6181,19.8474 28.9351,19.9194 C29.1761,19.9754 29.4221,20.0034 29.6831,20.0034 C29.7171,20.0034 29.7501,19.9974 29.7841,19.9964 C30.1521,19.9864 30.5061,19.9334 30.8401,19.8284 C31.2051,19.7154 31.5461,19.5504 31.8571,19.3404 C32.4781,18.9214 32.9731,18.3234 33.2681,17.6284 C33.4631,17.1624 33.5731,16.6544 33.5731,16.1144 C33.5731,15.7084 33.5111,15.3214 33.3981,14.9574 C33.2851,14.5934 33.1191,14.2514 32.9091,13.9404 C32.4891,13.3184 31.8921,12.8234 31.1961,12.5294 C30.7611,12.3464 30.2861,12.2484 29.7841,12.2344 C29.7501,12.2334 29.7181,12.2254 29.6831,12.2254 C29.4471,12.2254 29.2211,12.2494 29.0021,12.2944 C28.7811,12.3404 28.5641,12.4074 28.3461,12.4974 C27.9141,12.6764 27.4751,12.9464 27.0311,13.3024 C26.7351,13.5384 26.4381,13.8124 26.1401,14.1144 C25.8181,14.4414 25.4961,14.8024 25.1721,15.1864" id="Fill-1" fill="#ffffff"></path>
            <path d="M8.7565,6.7279 C8.4025,6.7279 8.0485,6.5959 7.7735,6.3319 C7.2095,5.7889 7.1925,4.8909 7.7355,4.3269 L11.4825,0.4349 C12.0245,-0.1291 12.9215,-0.1471 13.4865,0.3969 C14.0505,0.9399 14.0685,1.8369 13.5255,2.4019 L9.7775,6.2929 C9.4995,6.5819 9.1285,6.7279 8.7565,6.7279" id="Fill-3" fill="#FED900"></path>
            <path d="M1.4176,14.0668 C1.0636,14.0668 0.7096,13.9348 0.4346,13.6708 C-0.1294,13.1278 -0.1464,12.2298 0.3966,11.6658 L4.1436,7.7728 C4.6856,7.2098 5.5826,7.1908 6.1476,7.7348 C6.7116,8.2778 6.7296,9.1748 6.1866,9.7398 L2.4386,13.6318 C2.1606,13.9208 1.7896,14.0668 1.4176,14.0668" id="Fill-5" fill="#FED900"></path>
            <path d="M6.7496,7.6166 C6.3206,7.6166 5.9716,7.2816 5.9716,6.8686 C5.9716,6.4576 6.3206,6.1226 6.7496,6.1226 C7.1786,6.1226 7.5276,6.4576 7.5276,6.8686 C7.5276,7.2816 7.1786,7.6166 6.7496,7.6166 Z M10.0266,8.1756 C10.2016,7.7716 10.3006,7.3316 10.3006,6.8686 C10.3006,4.9896 8.7076,3.4606 6.7496,3.4606 C4.7916,3.4606 3.1996,4.9896 3.1996,6.8686 C3.1996,8.7486 4.7916,10.2766 6.7496,10.2766 C7.2076,10.2766 7.6426,10.1866 8.0446,10.0346 L10.6246,12.5576 L12.5876,10.6796 L10.0266,8.1756 Z" id="Fill-7" fill="#ffffff"></path>
            <path d="M37.0387,6.7279 C36.6667,6.7279 36.2957,6.5819 36.0177,6.2929 L32.2697,2.4019 C31.7267,1.8369 31.7447,0.9399 32.3087,0.3969 C32.8727,-0.1471 33.7697,-0.1291 34.3127,0.4349 L38.0597,4.3269 C38.6027,4.8909 38.5857,5.7889 38.0217,6.3319 C37.7467,6.5959 37.3927,6.7279 37.0387,6.7279" id="Fill-9" fill="#FED900"></path>
            <path d="M44.3766,14.0668 C44.0046,14.0668 43.6336,13.9208 43.3556,13.6318 L39.6086,9.7398 C39.0656,9.1748 39.0836,8.2778 39.6476,7.7348 C40.2116,7.1908 41.1086,7.2098 41.6516,7.7728 L45.3976,11.6658 C45.9406,12.2298 45.9236,13.1278 45.3596,13.6708 C45.0846,13.9348 44.7306,14.0668 44.3766,14.0668" id="Fill-11" fill="#FED900"></path>
            <path d="M38.2672,6.8686 C38.2672,6.4576 38.6162,6.1226 39.0452,6.1226 C39.4742,6.1226 39.8242,6.4576 39.8242,6.8686 C39.8242,7.2816 39.4742,7.6166 39.0452,7.6166 C38.6162,7.6166 38.2672,7.2816 38.2672,6.8686 Z M33.2072,10.6806 L35.1702,12.5576 L37.7502,10.0346 C38.1532,10.1866 38.5872,10.2766 39.0452,10.2766 C41.0022,10.2766 42.5952,8.7486 42.5952,6.8686 C42.5952,4.9896 41.0022,3.4606 39.0452,3.4606 C37.0872,3.4606 35.4952,4.9896 35.4952,6.8686 C35.4952,7.3316 35.5932,7.7716 35.7682,8.1756 L33.2072,10.6806 Z" id="Fill-13" fill="#ffffff"></path>
            <path d="M12.5036,32.0668 C12.1316,32.0668 11.7606,31.9208 11.4826,31.6318 L7.7346,27.7398 C7.1916,27.1748 7.2096,26.2778 7.7736,25.7348 C8.3386,25.1918 9.2336,25.2088 9.7776,25.7728 L13.5246,29.6658 C14.0676,30.2298 14.0506,31.1278 13.4866,31.6708 C13.2116,31.9348 12.8576,32.0668 12.5036,32.0668" id="Fill-15" fill="#FED900"></path>
            <g id="Group-19" transform="translate(0.000000, 17.066800)">
                <mask id="mask-2" fill="white">
                    <use xlink:href="#path-1"></use>
                </mask>
                <g id="Clip-18"></g>
                <path d="M5.1647,7.6611 C4.7927,7.6611 4.4217,7.5151 4.1437,7.2261 L0.3957,3.3351 C-0.1473,2.7701 -0.1293,1.8731 0.4347,1.3301 C0.9997,0.7871 1.8947,0.8051 2.4387,1.3681 L6.1857,5.2601 C6.7287,5.8241 6.7117,6.7221 6.1477,7.2651 C5.8727,7.5291 5.5187,7.6611 5.1647,7.6611" id="Fill-17" fill="#FED900" mask="url(#mask-2)"></path>
            </g>
            <path d="M7.528,25.1977 C7.528,25.6097 7.178,25.9447 6.75,25.9447 C6.321,25.9447 5.971,25.6097 5.971,25.1977 C5.971,24.7857 6.321,24.4507 6.75,24.4507 C7.178,24.4507 7.528,24.7857 7.528,25.1977 Z M12.588,21.3867 L10.625,19.5087 L8.045,22.0327 C7.642,21.8807 7.208,21.7897 6.75,21.7897 C4.792,21.7897 3.2,23.3187 3.2,25.1977 C3.2,27.0777 4.792,28.6067 6.75,28.6067 C8.708,28.6067 10.3,27.0777 10.3,25.1977 C10.3,24.7347 10.202,24.2947 10.027,23.8917 L12.588,21.3867 Z" id="Fill-20" fill="#ffffff"></path>
            <path d="M33.2916,32.0668 C32.9376,32.0668 32.5836,31.9348 32.3086,31.6708 C31.7446,31.1278 31.7276,30.2298 32.2706,29.6658 L36.0176,25.7728 C36.5596,25.2088 37.4556,25.1918 38.0216,25.7348 C38.5856,26.2778 38.6036,27.1748 38.0606,27.7398 L34.3126,31.6318 C34.0346,31.9208 33.6636,32.0668 33.2916,32.0668" id="Fill-22" fill="#FED900"></path>
            <g id="Group-26" transform="translate(39.000000, 17.066800)">
                <mask id="mask-4" fill="white">
                    <use xlink:href="#path-3"></use>
                </mask>
                <g id="Clip-25"></g>
                <path d="M1.6305,7.6611 C1.2765,7.6611 0.9225,7.5291 0.6475,7.2651 C0.0835,6.7221 0.0665,5.8241 0.6095,5.2601 L4.3555,1.3681 C4.8975,0.8051 5.7935,0.7871 6.3595,1.3301 C6.9235,1.8731 6.9415,2.7701 6.3985,3.3351 L2.6515,7.2261 C2.3735,7.5151 2.0025,7.6611 1.6305,7.6611" id="Fill-24" fill="#FED900" mask="url(#mask-4)"></path>
            </g>
            <path d="M39.0455,24.4506 C39.4745,24.4506 39.8235,24.7856 39.8235,25.1976 C39.8235,25.6096 39.4745,25.9446 39.0455,25.9446 C38.6155,25.9446 38.2675,25.6096 38.2675,25.1976 C38.2675,24.7856 38.6155,24.4506 39.0455,24.4506 Z M35.7685,23.8916 C35.5935,24.2946 35.4945,24.7346 35.4945,25.1976 C35.4945,27.0776 37.0875,28.6066 39.0455,28.6066 C41.0025,28.6066 42.5955,27.0776 42.5955,25.1976 C42.5955,23.3186 41.0025,21.7896 39.0455,21.7896 C38.5875,21.7896 38.1525,21.8806 37.7505,22.0326 L35.1705,19.5086 L33.2075,21.3876 L35.7685,23.8916 Z" id="Fill-27" fill="#ffffff"></path>
        </g>
    </g>
</svg>
