<?xml version="1.0" encoding="UTF-8"?>
<svg width="122px" height="48px" viewBox="0 0 122 48" version="1.1" xmlns="http://www.w3.org/2000/svg" xmlns:xlink="http://www.w3.org/1999/xlink">
    <!-- Generator: Sketch 50.2 (55047) - http://www.bohemiancoding.com/sketch -->
    <title>drone-partners</title>
    <desc>Created with Sketch.</desc>
    <defs></defs>
    <g id="Page-1" stroke="none" stroke-width="1" fill="none" fill-rule="evenodd">
        <g id="Segment--Trainees-Copy" transform="translate(-879.000000, -1615.000000)" fill="#C4C4C4">
            <g id="Logo-Grid" transform="translate(250.000000, 1503.000000)">
                <g id="Logos" transform="translate(2.183673, 0.000000)">
                    <g id="drone-partners" transform="translate(627.000000, 112.000000)">
                        <path d="M69.244898,13.3907026 C69.244898,13.1989495 69.1792037,13.0448302 69.0470972,12.9244021 C68.9167856,12.792863 68.7541654,12.7272727 68.5635443,12.7272727 C68.3714873,12.7272727 68.2156878,12.792863 68.0965048,12.9244021 C67.9647573,13.0448302 67.898704,13.1989495 67.898704,13.3907026 L67.898704,23.8744004 C67.898704,24.0661535 67.9647573,24.2202729 68.0965048,24.340701 C68.2282523,24.47224 68.3840518,24.5381888 68.5635443,24.5381888 C68.7541654,24.5381888 68.9167856,24.47224 69.0470972,24.340701 C69.1792037,24.2202729 69.244898,24.0661535 69.244898,23.8744004 L69.244898,13.3907026 M63.8967387,13.3907026 C63.8841742,13.1989495 63.818121,13.0448302 63.6989379,12.9244021 C63.5671904,12.792863 63.4060061,12.7272727 63.2135901,12.7272727 C63.0229691,12.7272727 62.8675285,12.792863 62.7483455,12.9244021 C62.616239,13.0448302 62.5505447,13.1989495 62.5505447,13.3907026 L62.5505447,23.8744004 C62.5505447,24.0661535 62.616239,24.2202729 62.7483455,24.340701 C62.8675285,24.47224 63.0229691,24.5381888 63.2135901,24.5381888 C63.4060061,24.5381888 63.5671904,24.47224 63.6989379,24.340701 C63.818121,24.2202729 63.8841742,24.0661535 63.8967387,23.8744004 L63.8967387,13.3907026 M58.5467845,13.3907026 C58.5356559,13.1989495 58.4699617,13.0448302 58.3507786,12.9244021 C58.2186721,12.792863 58.0574879,12.7272727 57.8654309,12.7272727 C57.6733739,12.7272727 57.5121896,12.792863 57.3800831,12.9244021 C57.2609,13.0448302 57.1952058,13.1989495 57.1840772,13.3907026 L57.1840772,23.8744004 C57.1952058,24.0661535 57.2609,24.2202729 57.3800831,24.340701 C57.5121896,24.47224 57.6733739,24.5381888 57.8654309,24.5381888 C58.0574879,24.5381888 58.2186721,24.47224 58.3507786,24.340701 C58.4699617,24.2202729 58.5356559,24.0661535 58.5467845,23.8744004 L58.5467845,13.3907026 M53.180317,13.7308404 C53.180317,13.5405209 53.1146227,13.378158 52.9825162,13.2480527 C52.8633332,13.1276245 52.7078926,13.0616758 52.5172716,13.0505649 C52.3248556,13.0616758 52.1636713,13.1276245 52.0319238,13.2480527 C51.9127408,13.378158 51.8466875,13.5405209 51.834123,13.7308404 L51.834123,24.1966173 C51.8466875,24.3883704 51.9127408,24.5492997 52.0319238,24.6808387 C52.1636713,24.7998332 52.3248556,24.8657819 52.5172716,24.8783265 C52.7078926,24.8657819 52.8633332,24.7998332 52.9825162,24.6808387 C53.1146227,24.5492997 53.180317,24.3883704 53.180317,24.1966173 L53.180317,13.7308404 M47.8321577,14.7164872 C47.8321577,14.5261677 47.7661044,14.3638048 47.6343569,14.2336995 C47.5151739,14.1132713 47.3593744,14.0473226 47.1673174,14.0362117 C46.9766963,14.0473226 46.8140761,14.1132713 46.6837645,14.2336995 C46.551658,14.3638048 46.4859638,14.5261677 46.4859638,14.7164872 L46.4859638,25.1822641 C46.4859638,25.3740172 46.551658,25.5349465 46.6837645,25.6664855 C46.8140761,25.7980246 46.9766963,25.8639733 47.1673174,25.8639733 C47.3593744,25.8639733 47.5151739,25.7980246 47.6343569,25.6664855 C47.7661044,25.5349465 47.8321577,25.3740172 47.8321577,25.1822641 L47.8321577,14.7164872 M42.4822035,16.3659223 C42.4822035,16.1741692 42.4165092,16.01324 42.2861977,15.8813425 C42.1540912,15.762348 41.9929069,15.6967577 41.8008499,15.6842131 C41.6087929,15.6967577 41.4544293,15.762348 41.3338103,15.8813425 C41.2020628,16.01324 41.1360096,16.1741692 41.1360096,16.3659223 L41.1360096,26.8313408 C41.1360096,27.0230939 41.2020628,27.1843816 41.3338103,27.3159207 C41.4544293,27.4349151 41.6087929,27.5005054 41.8008499,27.5119748 C41.9929069,27.5005054 42.1540912,27.4349151 42.2861977,27.3159207 C42.4053807,27.1843816 42.471075,27.0230939 42.4822035,26.8313408 L42.4822035,16.3659223 M37.1340442,18.6590744 C37.1214797,18.468755 37.0568624,18.3135604 36.9362435,18.1931323 C36.8044959,18.0626685 36.6433117,17.9970782 36.4526906,17.9970782 C36.2602746,17.9970782 36.0990903,18.0626685 35.9673428,18.1931323 C35.8481598,18.3135604 35.7821065,18.468755 35.769542,18.6590744 L35.769542,29.1427722 C35.7821065,29.3348837 35.8481598,29.4900783 35.9673428,29.6090727 C36.0990903,29.7406118 36.2602746,29.8065605 36.4526906,29.8065605 C36.6433117,29.8065605 36.8044959,29.7406118 36.9362435,29.6090727 C37.0568624,29.4900783 37.1214797,29.3348837 37.1340442,29.1427722 L37.1340442,18.6590744 M31.7675767,21.6342941 C31.7675767,21.442541 31.7015235,21.2816117 31.5697759,21.1500727 C31.4505929,21.0310782 31.2947934,20.9651295 31.1027364,20.9540186 C30.9121153,20.9651295 30.7494951,21.0310782 30.6191835,21.1500727 C30.4985646,21.2816117 30.4325113,21.442541 30.4213828,21.6342941 L30.4213828,32.0997126 C30.4325113,32.2918241 30.4985646,32.4527534 30.6191835,32.5842924 C30.7494951,32.7032869 30.9121153,32.7692356 31.1027364,32.7817802 C31.2947934,32.7692356 31.4505929,32.7032869 31.5697759,32.5842924 C31.7015235,32.4527534 31.7675767,32.2918241 31.7675767,32.0997126 L31.7675767,21.6342941 M26.4176225,36.7060881 C26.4176225,36.8964076 26.3519282,37.0587705 26.2216167,37.1892343 C26.1009977,37.3207733 25.9451982,37.3863636 25.7545771,37.3863636 C25.5625201,37.3863636 25.4009768,37.3207733 25.2692293,37.1892343 C25.1374818,37.0587705 25.0714286,36.8964076 25.0714286,36.7060881 L25.0714286,26.2406696 C25.0714286,26.0489165 25.1374818,25.8876288 25.2692293,25.7560898 C25.4009768,25.6370953 25.5625201,25.571505 25.7545771,25.558602 C25.9451982,25.571505 26.1009977,25.6370953 26.2216167,25.7560898 C26.3519282,25.8876288 26.4176225,26.0489165 26.4176225,26.2406696 L26.4176225,36.7060881" id="Fill-1"></path>
                        <path d="M72.0306122,13.5121252 C72.0306122,13.3214501 71.964559,13.1605232 71.8328115,13.0289861 C71.701064,12.9085597 71.5452645,12.8440456 71.3657719,12.8315012 C71.1751509,12.8440456 71.0125306,12.9085597 70.8822191,13.0289861 C70.7501126,13.1605232 70.6844183,13.3214501 70.6844183,13.5121252 L70.6844183,23.9788253 C70.6844183,24.169142 70.7501126,24.3300689 70.8822191,24.461606 C71.0125306,24.5935015 71.1751509,24.6590909 71.3657719,24.6590909 C71.5578289,24.6590909 71.7136284,24.5935015 71.8328115,24.461606 C71.964559,24.3300689 72.0306122,24.169142 72.0306122,23.9788253 L72.0306122,13.5121252 M66.680658,13.5121252 C66.6695295,13.3214501 66.6038352,13.1605232 66.4846522,13.0289861 C66.3525457,12.9085597 66.1913614,12.8440456 65.9993044,12.8315012 C65.8072474,12.8440456 65.6528838,12.9085597 65.5322649,13.0289861 C65.4005174,13.1605232 65.3344641,13.3214501 65.3344641,13.5121252 L65.3344641,23.9788253 C65.3344641,24.169142 65.4005174,24.3300689 65.5322649,24.461606 C65.6528838,24.5935015 65.8072474,24.6590909 65.9993044,24.6590909 C66.1913614,24.6590909 66.3525457,24.5935015 66.4846522,24.461606 C66.6038352,24.3300689 66.6695295,24.169142 66.680658,23.9788253 L66.680658,13.5121252 M61.3324988,13.5121252 C61.3199343,13.3214501 61.255317,13.1605232 61.134698,13.0289861 C61.0029505,12.9085597 60.8417662,12.8440456 60.6511451,12.8315012 C60.4587292,12.8440456 60.2975449,12.9085597 60.1657974,13.0289861 C60.0466143,13.1605232 59.9805611,13.3214501 59.9679966,13.5121252 L59.9679966,23.9788253 C59.9805611,24.169142 60.0466143,24.3300689 60.1657974,24.461606 C60.2975449,24.5935015 60.4587292,24.6590909 60.6511451,24.6590909 C60.8417662,24.6590909 61.0029505,24.5935015 61.134698,24.461606 C61.255317,24.3300689 61.3199343,24.169142 61.3324988,23.9788253 L61.3324988,13.5121252 M55.9660313,13.189913 C55.9660313,12.9981627 55.899978,12.8372358 55.7682305,12.7056986 C55.6490475,12.5867059 55.4932479,12.5207582 55.3011909,12.5096474 C55.1105699,12.5096474 54.9479497,12.5752367 54.8176381,12.7056986 C54.6970191,12.8372358 54.6309659,12.9981627 54.6198373,13.189913 L54.6198373,23.6551794 C54.6309659,23.8472882 54.6970191,24.0082151 54.8176381,24.1397522 C54.9479497,24.2587449 55.1105699,24.3246927 55.3011909,24.3372371 C55.4932479,24.3246927 55.6490475,24.2587449 55.7682305,24.1397522 C55.899978,24.0082151 55.9660313,23.8472882 55.9660313,23.6551794 L55.9660313,13.189913 M50.6160771,12.2042805 C50.6160771,12.0125302 50.5503828,11.8516033 50.4200712,11.7200662 C50.2994522,11.5896043 50.1436527,11.5240149 49.9530317,11.5240149 C49.7609747,11.5240149 49.5994314,11.5896043 49.4676839,11.7200662 C49.3359364,11.8516033 49.2698831,12.0125302 49.2698831,12.2042805 L49.2698831,22.669547 C49.2698831,22.8616557 49.3359364,23.016848 49.4676839,23.1358407 C49.5994314,23.2673779 49.7609747,23.3333256 49.9530317,23.3333256 C50.1436527,23.3333256 50.2994522,23.2673779 50.4200712,23.1358407 C50.5503828,23.016848 50.6160771,22.8616557 50.6160771,22.669547 L50.6160771,12.2042805 M45.2679178,10.5552278 C45.2679178,10.3645527 45.2018645,10.2036258 45.070117,10.0720887 C44.9383695,9.9516623 44.7771852,9.88714818 44.5865642,9.87460377 C44.3941482,9.87460377 44.2387076,9.94055154 44.1195246,10.0720887 C43.9877771,10.2036258 43.9217238,10.3645527 43.9217238,10.5552278 L43.9217238,21.0219279 C43.9217238,21.2122445 43.9877771,21.3731714 44.1195246,21.5047086 C44.2387076,21.6251349 44.3941482,21.6896491 44.5865642,21.7021935 C44.7771852,21.6896491 44.9383695,21.6251349 45.070117,21.5047086 C45.190736,21.3731714 45.2553533,21.2122445 45.2679178,21.0219279 L45.2679178,10.5552278 M39.9197585,8.24347162 C39.906835,8.05315495 39.8411408,7.8907944 39.7219577,7.76069091 C39.5902102,7.64026454 39.428667,7.57431677 39.23661,7.56320601 C39.0459889,7.57431677 38.8833687,7.64026454 38.7530571,7.76069091 C38.6324381,7.8907944 38.5663849,8.05315495 38.5552563,8.24347162 L38.5552563,18.7090965 C38.5663849,18.9008468 38.6324381,19.0617737 38.7530571,19.1933108 C38.8833687,19.3248479 39.0459889,19.3907957 39.23661,19.3907957 C39.428667,19.3907957 39.5902102,19.3248479 39.7219577,19.1933108 C39.8411408,19.0617737 39.906835,18.9008468 39.9197585,18.7090965 L39.9197585,8.24347162 M34.5514961,5.28657419 C34.5514961,5.09625752 34.4858018,4.93389697 34.3554902,4.80379348 C34.2348713,4.68336712 34.0790717,4.61741934 33.8884507,4.60630858 C33.6963937,4.61741934 33.5348504,4.68336712 33.4031029,4.80379348 C33.2839199,4.93389697 33.2182256,5.09625752 33.2053021,5.28657419 L33.2053021,15.752199 C33.2182256,15.9439493 33.2839199,16.1048763 33.4031029,16.2364134 C33.5348504,16.3554061 33.6963937,16.4213539 33.8884507,16.4338983 C34.0790717,16.4213539 34.2348713,16.3554061 34.3554902,16.2364134 C34.4858018,16.1048763 34.5514961,15.9439493 34.5514961,15.752199 L34.5514961,5.28657419 M29.2033368,11.1473241 C29.2033368,11.3376408 29.1372835,11.4931915 29.005536,11.6136179 C28.886353,11.7437214 28.7309125,11.8096691 28.5384965,11.8096691 C28.3478754,11.8096691 28.1866911,11.7437214 28.0549436,11.6136179 C27.9231961,11.4931915 27.8571429,11.3376408 27.8571429,11.1473241 L27.8571429,0.682057674 C27.8571429,0.490307355 27.9231961,0.329022041 28.0549436,0.197484907 C28.1866911,0.065947773 28.3478754,0 28.5384965,0 C28.7309125,0 28.886353,0.065947773 29.005536,0.197484907 C29.1372835,0.329022041 29.2033368,0.490307355 29.2033368,0.682057674 L29.2033368,11.1473241" id="Fill-2"></path>
                        <path d="M0,47.1115222 L0,34.2045455 L4.30736026,34.2045455 C5.59140361,34.2045455 6.62883672,34.3469859 7.41969069,34.631871 C8.21054466,34.9167562 8.89487114,35.3993095 9.47269065,36.0795455 C10.3890307,37.1609462 10.8471938,38.5853506 10.8471938,40.3528013 C10.8471938,42.4981608 10.2781377,44.1609349 9.14000835,45.3411734 C8.00187902,46.5214118 6.39976714,47.1115222 4.33362465,47.1115222 L0,47.1115222 Z M1.83850743,45.7423362 L4.19354789,45.7423362 C5.87447738,45.7423362 7.0651179,45.2917593 7.76550518,44.390592 C8.51842151,43.4312848 8.89487403,42.143507 8.89487403,40.5272199 C8.89487403,39.0097704 8.52425799,37.8179219 7.78301478,36.9516385 C7.3335996,36.4225661 6.79664407,36.0606511 6.17213208,35.8658827 C5.54762008,35.6711142 4.60794791,35.5737315 3.35308736,35.5737315 L1.83850743,35.5737315 L1.83850743,45.7423362 Z M13.4824595,47.1115222 L13.4824595,37.640592 L15.2071546,37.640592 L15.2071546,39.4196617 C15.8900322,38.0940737 16.8822326,37.4312896 18.1837857,37.4312896 C18.3588825,37.4312896 18.5427314,37.4458244 18.7353379,37.4748943 L18.7353379,39.0795455 C18.4376733,38.9807078 18.175032,38.9312896 17.9474061,38.9312896 C16.8559693,38.9312896 15.9425612,39.576632 15.2071546,40.8673362 L15.2071546,47.1115222 L13.4824595,47.1115222 Z M24.5398402,47.3295455 C23.1799216,47.3295455 22.0943375,46.880422 21.2830556,45.9821617 C20.4717737,45.0839014 20.0661388,43.8818786 20.0661388,42.3760571 C20.0661388,40.8527937 20.4732328,39.6478638 21.287433,38.7612315 C22.1016332,37.8745992 23.2061858,37.4312896 24.6011238,37.4312896 C25.9960618,37.4312896 27.1006143,37.8745992 27.9148145,38.7612315 C28.7290148,39.6478638 29.1361088,40.8469798 29.1361088,42.3586152 C29.1361088,43.9051346 28.7275556,45.1202387 27.9104371,46.0039641 C27.0933187,46.8876894 25.9697976,47.3295455 24.5398402,47.3295455 Z M24.5661046,46.0388478 C26.3929481,46.0388478 27.3063561,44.8121159 27.3063561,42.3586152 C27.3063561,39.9341845 26.404621,38.7219873 24.6011238,38.7219873 C22.8034631,38.7219873 21.9046462,39.9399984 21.9046462,42.3760571 C21.9046462,44.8179298 22.7917901,46.0388478 24.5661046,46.0388478 Z M31.832658,47.1115222 L31.832658,37.640592 L33.5573531,37.640592 L33.5573531,39.4196617 C34.4678566,38.0940737 35.582623,37.4312896 36.9016857,37.4312896 C37.7246407,37.4312896 38.381244,37.6914615 38.8715151,38.2118129 C39.3617862,38.7321643 39.606918,39.4312853 39.606918,40.3091966 L39.606918,47.1115222 L37.882223,47.1115222 L37.882223,40.8673362 C37.882223,40.1638443 37.7786256,39.6623958 37.5714277,39.3629757 C37.3642298,39.0635556 37.021337,38.9138478 36.542739,38.9138478 C35.4863215,38.9138478 34.4912028,39.6027944 33.5573531,40.9807082 L33.5573531,47.1115222 L31.832658,47.1115222 Z M49.9288957,46.8062896 C48.7732567,47.1551286 47.7839745,47.3295455 46.9610195,47.3295455 C45.5602449,47.3295455 44.4177553,46.8658873 43.5335163,45.9385571 C42.6492774,45.0112269 42.2071645,43.809204 42.2071645,42.3324524 C42.2071645,40.8963987 42.5967491,39.7190849 43.37593,38.8004757 C44.1551108,37.8818664 45.1516886,37.4225687 46.3656932,37.4225687 C47.5154957,37.4225687 48.4040987,37.8295414 49.031529,38.6434989 C49.6589593,39.4574565 49.9726697,40.6144217 49.9726697,42.1144292 L49.9639149,42.6464059 L43.9668788,42.6464059 C44.2178509,44.8964172 45.3238626,46.0214059 47.284947,46.0214059 C48.0028439,46.0214059 48.8841514,45.8295474 49.9288957,45.4458245 L49.9288957,46.8062896 Z M44.045672,41.3557082 L48.2392199,41.3557082 C48.2392199,39.5940715 47.5796984,38.7132664 46.2606357,38.7132664 C44.9357364,38.7132664 44.1974225,39.5940715 44.045672,41.3557082 Z M52.8968437,47.1115222 L52.8968437,34.2045455 L56.425027,34.2045455 C57.9892253,34.2045455 59.1127464,34.4676242 59.795624,34.9937896 C60.4785016,35.5199551 60.8199353,36.384772 60.8199353,37.5882664 C60.8199353,38.9603663 60.3530174,40.0359369 59.4191677,40.8150106 C58.485318,41.5940842 57.1896209,41.9836152 55.5320377,41.9836152 L54.7178416,41.9836152 L54.7178416,47.1115222 L52.8968437,47.1115222 Z M54.7178416,40.5969873 L55.4619993,40.5969873 C56.5534362,40.5969873 57.3968065,40.3469898 57.9921357,39.8469873 C58.5874649,39.3469848 58.8851251,38.6405965 58.8851251,37.7278013 C58.8851251,36.9545416 58.6516661,36.4022215 58.1847413,36.0708245 C57.7178164,35.7394275 56.9386473,35.5737315 55.8472104,35.5737315 L54.7178416,35.5737315 L54.7178416,40.5969873 Z M67.2031507,45.9080338 C66.1700794,46.855713 65.1749608,47.3295455 64.2177648,47.3295455 C63.4298291,47.3295455 62.7761441,47.0839084 62.2566902,46.5926268 C61.7372363,46.1013453 61.4775133,45.480712 61.4775133,44.7307082 C61.4775133,43.6958193 61.9137896,42.9007692 62.7863555,42.3455338 C63.6589213,41.7902985 64.9093857,41.512685 66.5377861,41.512685 L66.9492616,41.512685 L66.9492616,40.3702431 C66.9492616,39.2714004 66.3831237,38.7219873 65.2508309,38.7219873 C64.3403274,38.7219873 63.3568817,39.0010543 62.3004642,39.5591966 L62.3004642,38.137685 C63.4619398,37.6667524 64.550442,37.4312896 65.5660036,37.4312896 C66.6282576,37.4312896 67.4118042,37.6696593 67.9166667,38.1464059 C68.4215292,38.6231525 68.6739566,39.3644241 68.6739566,40.3702431 L68.6739566,44.6609408 C68.6739566,45.6435039 68.9774532,46.134778 69.5844555,46.134778 C69.6603308,46.134778 69.7712238,46.1231502 69.9171378,46.0998943 L70.039705,47.0504757 C69.6486554,47.2365231 69.2167564,47.3295455 68.743995,47.3295455 C67.9385496,47.3295455 67.42494,46.855713 67.2031507,45.9080338 Z M66.9492616,44.9748943 L66.9492616,42.5243129 L66.3714449,42.506871 C65.4259221,42.506871 64.6613441,42.6856483 64.0776881,43.0432082 C63.494032,43.4007682 63.2022083,43.8702402 63.2022083,44.4516385 C63.2022083,44.8644312 63.3481202,45.213265 63.6399482,45.4981501 C63.9317762,45.7830353 64.2878011,45.9254757 64.7080335,45.9254757 C65.4259304,45.9254757 66.172999,45.6086184 66.9492616,44.9748943 Z M72.2022116,47.1115222 L72.2022116,37.640592 L73.9269067,37.640592 L73.9269067,39.4196617 C74.6097843,38.0940737 75.6019847,37.4312896 76.9035378,37.4312896 C77.0786346,37.4312896 77.2624835,37.4458244 77.45509,37.4748943 L77.45509,39.0795455 C77.1574254,38.9807078 76.8947841,38.9312896 76.6671583,38.9312896 C75.5757214,38.9312896 74.6623134,39.576632 73.9269067,40.8673362 L73.9269067,47.1115222 L72.2022116,47.1115222 Z M83.4292113,47.3295455 C82.5537272,47.3295455 81.8708598,47.079548 81.3805887,46.5795455 C80.8903176,46.079543 80.6451857,45.3847825 80.6451857,44.4952431 L80.6451857,38.9312896 L79.4545333,38.9312896 L79.4545333,37.640592 L80.6451857,37.640592 L80.6451857,35.9225687 L82.3698808,35.756871 L82.3698808,37.640592 L84.8562432,37.640592 L84.8562432,38.9312896 L82.3698808,38.9312896 L82.3698808,44.1812896 C82.3698808,45.4196679 82.9068363,46.0388478 83.9807635,46.0388478 C84.2083894,46.0388478 84.4856218,46.0010575 84.8124692,45.9254757 L84.8124692,47.1115222 C84.2813422,47.2568718 83.8202608,47.3295455 83.4292113,47.3295455 Z M87.2813938,47.1115222 L87.2813938,37.640592 L89.0060888,37.640592 L89.0060888,39.4196617 C89.9165923,38.0940737 91.0313587,37.4312896 92.3504214,37.4312896 C93.1733765,37.4312896 93.8299797,37.6914615 94.3202508,38.2118129 C94.8105219,38.7321643 95.0556538,39.4312853 95.0556538,40.3091966 L95.0556538,47.1115222 L93.3309587,47.1115222 L93.3309587,40.8673362 C93.3309587,40.1638443 93.2273613,39.6623958 93.0201634,39.3629757 C92.8129655,39.0635556 92.4700727,38.9138478 91.9914747,38.9138478 C90.9350572,38.9138478 89.9399386,39.6027944 89.0060888,40.9807082 L89.0060888,47.1115222 L87.2813938,47.1115222 Z M105.377631,46.8062896 C104.221992,47.1551286 103.23271,47.3295455 102.409755,47.3295455 C101.008981,47.3295455 99.866491,46.8658873 98.9822521,45.9385571 C98.0980131,45.0112269 97.6559003,43.809204 97.6559003,42.3324524 C97.6559003,40.8963987 98.0454849,39.7190849 98.8246657,38.8004757 C99.6038466,37.8818664 100.600424,37.4225687 101.814429,37.4225687 C102.964231,37.4225687 103.852834,37.8295414 104.480265,38.6434989 C105.107695,39.4574565 105.421405,40.6144217 105.421405,42.1144292 L105.412651,42.6464059 L99.4156145,42.6464059 C99.6665866,44.8964172 100.772598,46.0214059 102.733683,46.0214059 C103.45158,46.0214059 104.332887,45.8295474 105.377631,45.4458245 L105.377631,46.8062896 Z M99.4944077,41.3557082 L103.687956,41.3557082 C103.687956,39.5940715 103.028434,38.7132664 101.709371,38.7132664 C100.384472,38.7132664 99.6461583,39.5940715 99.4944077,41.3557082 Z M108.398108,47.1115222 L108.398108,37.640592 L110.122803,37.640592 L110.122803,39.4196617 C110.805681,38.0940737 111.797881,37.4312896 113.099434,37.4312896 C113.274531,37.4312896 113.45838,37.4458244 113.650987,37.4748943 L113.650987,39.0795455 C113.353322,38.9807078 113.090681,38.9312896 112.863055,38.9312896 C111.771618,38.9312896 110.85821,39.576632 110.122803,40.8673362 L110.122803,47.1115222 L108.398108,47.1115222 Z M118.256082,47.3295455 C117.468146,47.3295455 116.510964,47.1464078 115.384508,46.7801268 L115.384508,45.2016385 C116.510964,45.7597808 117.491492,46.0388478 118.32612,46.0388478 C118.822228,46.0388478 119.233699,45.9051282 119.560546,45.637685 C119.887394,45.3702418 120.050815,45.0359428 120.050815,44.634778 C120.050815,44.0475658 119.592652,43.5621055 118.676312,43.1783827 L117.66951,42.7510571 C116.181187,42.1347749 115.437037,41.2481559 115.437037,40.0911734 C115.437037,39.2655878 115.73032,38.615885 116.316894,38.1420455 C116.903468,37.6682059 117.707443,37.4312896 118.728841,37.4312896 C119.259968,37.4312896 119.916571,37.5039633 120.69867,37.6493129 L121.057617,37.7190803 L121.057617,39.1493129 C120.094584,38.8644278 119.330006,38.7219873 118.76386,38.7219873 C117.654913,38.7219873 117.100448,39.1231461 117.100448,39.9254757 C117.100448,40.4429201 117.520675,40.8789623 118.361139,41.2336152 L119.192845,41.5824524 C120.132531,41.9778032 120.797889,42.3949502 121.188939,42.8339059 C121.579988,43.2728616 121.77551,43.8208212 121.77551,44.4778013 C121.77551,45.3092008 121.445749,45.9923335 120.786218,46.5272199 C120.126687,47.0621063 119.283316,47.3295455 118.256082,47.3295455 Z" id="DronePartners"></path>
                    </g>
                </g>
            </g>
        </g>
    </g>
</svg>