<?xml version="1.0" encoding="UTF-8"?>
<svg width="511px" height="511px" viewBox="0 0 511 511" version="1.1" xmlns="http://www.w3.org/2000/svg" xmlns:xlink="http://www.w3.org/1999/xlink">
    <!-- Generator: Sketch 50.2 (55047) - http://www.bohemiancoding.com/sketch -->
    <title>drone-diamond</title>
    <desc>Created with Sketch.</desc>
    <defs></defs>
    <g id="Page-1" stroke="none" stroke-width="1" fill="none" fill-rule="evenodd">
        <g id="Home" transform="translate(-381.000000, -1641.000000)" fill="#FF2A5D" fill-rule="nonzero">
            <g id="drone-diamond" transform="translate(381.000000, 1641.000000)">
                <path d="M87.5,416.001 C85.53,416.001 83.59,416.801 82.2,418.201 C80.8,419.591 80,421.531 80,423.501 C80,425.471 80.8,427.411 82.2,428.801 C83.59,430.201 85.52,431.001 87.5,431.001 C89.47,431.001 91.41,430.201 92.8,428.801 C94.2,427.411 95,425.471 95,423.501 C95,421.531 94.2,419.591 92.8,418.201 C91.41,416.8 89.47,416.001 87.5,416.001 Z" id="Shape"></path>
                <path d="M498.197,338.197 L439.825,396.569 C435.061,393.671 429.472,392 423.5,392 C417.528,392 411.939,393.67 407.175,396.568 L394.417,383.81 C401.702,371.578 399.661,355.116 388.853,344.309 L359.717,315.173 C343.779,299.235 335,278.042 335,255.501 C335,232.959 343.778,211.767 359.717,195.827 L388.853,166.691 C399.661,155.883 401.702,139.421 394.417,127.19 L407.175,114.432 C411.939,117.33 417.528,119.001 423.5,119.001 C429.472,119.001 435.061,117.33 439.825,114.432 L498.197,172.804 C499.661,174.269 501.581,175.001 503.5,175.001 C505.419,175.001 507.339,174.269 508.803,172.804 C511.732,169.875 511.732,165.126 508.803,162.198 L450.431,103.826 C453.33,99.062 455,93.472 455,87.501 C455,70.132 440.869,56.001 423.5,56.001 C417.528,56.001 411.939,57.671 407.175,60.569 L348.804,2.197 C345.876,-0.732 341.127,-0.732 338.198,2.197 C335.269,5.126 335.269,9.875 338.198,12.803 L396.57,71.175 C393.671,75.939 392,81.528 392,87.501 C392,93.473 393.671,99.062 396.569,103.826 L383.823,116.572 C378.949,113.615 373.32,112.002 367.5,112.002 C359.083,112.002 351.173,115.28 345.228,121.23 L315.173,151.285 C299.234,167.224 278.041,176.003 255.5,176.003 C232.959,176.003 211.766,167.225 195.827,151.285 L165.775,121.233 C159.828,115.281 151.917,112.003 143.501,112.003 C137.68,112.003 132.052,113.616 127.178,116.573 L114.432,103.827 C117.33,99.062 119,93.472 119,87.501 C119,81.529 117.329,75.939 114.431,71.176 L172.803,12.804 C175.732,9.875 175.732,5.126 172.803,2.198 C169.874,-0.731 165.125,-0.731 162.197,2.198 L103.825,60.57 C99.061,57.672 93.472,56.002 87.5,56.002 C70.131,56.002 56,70.133 56,87.502 C56,93.474 57.671,99.063 60.569,103.826 L2.197,162.197 C-0.732,165.126 -0.732,169.875 2.197,172.803 C3.661,174.268 5.581,175 7.5,175 C9.419,175 11.339,174.268 12.803,172.803 L71.175,114.431 C75.939,117.329 81.528,119 87.5,119 C93.472,119 99.061,117.329 103.825,114.431 L116.583,127.189 C109.297,139.421 111.339,155.883 122.147,166.69 L151.283,195.826 C167.222,211.766 176,232.959 176,255.501 C176,278.043 167.222,299.235 151.283,315.174 L122.147,344.31 C111.34,355.118 109.298,371.579 116.583,383.811 L103.825,396.569 C99.061,393.671 93.472,392.001 87.5,392.001 C81.528,392.001 75.939,393.671 71.175,396.57 L12.803,338.198 C9.874,335.269 5.125,335.269 2.197,338.198 C-0.732,341.127 -0.732,345.875 2.197,348.804 L60.569,407.176 C57.671,411.94 56,417.528 56,423.501 C56,440.87 70.131,455.001 87.5,455.001 C93.472,455.001 99.061,453.33 103.824,450.432 L162.196,508.804 C163.66,510.268 165.58,511.001 167.499,511.001 C169.418,511.001 171.338,510.269 172.802,508.804 C175.731,505.875 175.731,501.127 172.802,498.198 L114.43,439.826 C117.328,435.062 118.999,429.473 118.999,423.501 C118.999,417.529 117.328,411.939 114.43,407.176 L127.176,394.431 C132.05,397.387 137.679,399.001 143.499,399.001 C151.916,399.001 159.826,395.723 165.771,389.772 L195.826,359.718 C211.765,343.779 232.958,335.001 255.499,335.001 C278.04,335.001 299.233,343.779 315.172,359.718 L345.224,389.77 C351.171,395.722 359.082,399 367.498,399 C373.319,399 378.948,397.386 383.821,394.429 L396.567,407.175 C393.669,411.939 391.998,417.528 391.998,423.5 C391.998,429.472 393.669,435.061 396.567,439.825 L338.195,498.197 C335.266,501.126 335.266,505.874 338.195,508.803 C339.659,510.267 341.579,511 343.498,511 C345.417,511 347.337,510.268 348.801,508.803 L407.173,450.431 C411.937,453.329 417.526,455 423.498,455 C440.867,455 454.998,440.869 454.998,423.5 C454.998,417.528 453.327,411.939 450.429,407.175 L508.801,348.803 C511.73,345.874 511.73,341.126 508.801,338.197 C505.875,335.268 501.126,335.268 498.197,338.197 Z M423.5,71.001 C432.598,71.001 440,78.402 440,87.501 C440,96.599 432.598,104.001 423.5,104.001 C414.402,104.001 407,96.599 407,87.501 C407,78.402 414.402,71.001 423.5,71.001 Z M71,87.501 C71,78.402 78.402,71.001 87.5,71.001 C96.598,71.001 104,78.402 104,87.501 C104,96.599 96.598,104.001 87.5,104.001 C78.402,104.001 71,96.598 71,87.501 Z M87.5,440.001 C78.402,440.001 71,432.599 71,423.501 C71,414.402 78.402,407.001 87.5,407.001 C96.598,407.001 104,414.402 104,423.501 C104,432.598 96.598,440.001 87.5,440.001 Z M355.835,379.166 L325.78,349.112 C308.786,332.118 286.723,322.037 263,320.279 L263,279.502 C263,275.359 259.642,272.002 255.5,272.002 C251.358,272.002 248,275.359 248,279.502 L248,320.279 C224.277,322.037 202.214,332.119 185.22,349.112 L155.163,379.169 C152.05,382.285 147.908,384.002 143.5,384.002 C138.69,384.002 134.121,381.898 130.965,378.229 C125.477,371.849 126.279,361.392 132.753,354.918 L161.889,325.782 C178.883,308.788 188.964,286.725 190.722,263.002 L231.5,263.002 C235.642,263.002 239,259.644 239,255.502 C239,251.359 235.642,248.002 231.5,248.002 L190.722,248.002 C188.964,224.279 178.883,202.215 161.889,185.222 L132.753,156.086 C126.279,149.611 125.477,139.154 130.965,132.774 C134.121,129.106 138.69,127.002 143.5,127.002 C147.908,127.002 152.05,128.718 155.166,131.836 L185.221,161.891 C202.215,178.885 224.278,188.966 248.001,190.724 L248.001,231.502 C248.001,235.644 251.359,239.002 255.501,239.002 C259.643,239.002 263.001,235.644 263.001,231.502 L263.001,190.724 C286.724,188.966 308.787,178.884 325.781,161.891 L355.838,131.834 C358.951,128.718 363.093,127.002 367.501,127.002 C372.311,127.002 376.88,129.106 380.036,132.774 C385.524,139.154 384.722,149.611 378.248,156.086 L349.112,185.222 C332.118,202.215 322.037,224.279 320.279,248.002 L279.5,248.002 C275.358,248.002 272,251.359 272,255.502 C272,259.644 275.358,263.002 279.5,263.002 L320.278,263.002 C322.036,286.725 332.117,308.788 349.111,325.782 L378.247,354.917 C384.721,361.392 385.523,371.849 380.035,378.228 C376.879,381.897 372.31,384.001 367.5,384.001 C363.093,384.001 358.951,382.284 355.835,379.166 Z M423.5,440.001 C414.402,440.001 407,432.599 407,423.501 C407,414.402 414.402,407.001 423.5,407.001 C432.598,407.001 440,414.402 440,423.501 C440,432.598 432.598,440.001 423.5,440.001 Z" id="Shape"></path>
                <path d="M423.5,416.001 C421.53,416.001 419.59,416.801 418.2,418.201 C416.8,419.591 416,421.531 416,423.501 C416,425.471 416.8,427.411 418.2,428.801 C419.59,430.201 421.53,431.001 423.5,431.001 C425.47,431.001 427.41,430.201 428.8,428.801 C430.2,427.411 431,425.471 431,423.501 C431,421.531 430.2,419.591 428.8,418.201 C427.41,416.8 425.47,416.001 423.5,416.001 Z" id="Shape"></path>
                <path d="M423.5,95.001 C425.47,95.001 427.41,94.201 428.8,92.801 C430.2,91.411 431,89.471 431,87.501 C431,85.521 430.2,83.591 428.8,82.201 C427.41,80.801 425.47,80.001 423.5,80.001 C421.53,80.001 419.59,80.801 418.2,82.201 C416.8,83.591 416,85.521 416,87.501 C416,89.471 416.8,91.411 418.2,92.801 C419.59,94.201 421.53,95.001 423.5,95.001 Z" id="Shape"></path>
                <path d="M87.5,80.001 C85.53,80.001 83.59,80.801 82.2,82.201 C80.8,83.591 80,85.531 80,87.501 C80,89.471 80.8,91.411 82.2,92.801 C83.59,94.201 85.53,95.001 87.5,95.001 C89.47,95.001 91.41,94.201 92.8,92.801 C94.2,91.411 95,89.471 95,87.501 C95,85.531 94.2,83.591 92.8,82.201 C91.41,80.8 89.47,80.001 87.5,80.001 Z" id="Shape"></path>
            </g>
        </g>
    </g>
</svg>