<?xml version="1.0" encoding="UTF-8"?>
<svg width="68px" height="24px" viewBox="0 0 68 24" version="1.1" xmlns="http://www.w3.org/2000/svg" xmlns:xlink="http://www.w3.org/1999/xlink">
    <!-- Generator: Sketch 50.2 (55047) - http://www.bohemiancoding.com/sketch -->
    <title>hobbyist-pilot</title>
    <desc>Created with Sketch.</desc>
    <defs></defs>
    <g id="Page-1" stroke="none" stroke-width="1" fill="none" fill-rule="evenodd">
        <g id="Segment--Trainees" transform="translate(-670.000000, -5326.000000)" fill="#FF2A5D" fill-rule="nonzero">
            <g id="Group-18" transform="translate(50.000000, 5054.000000)">
                <g id="Group-14" transform="translate(0.000000, 236.000000)">
                    <g id="Group-34" transform="translate(600.000000, 0.000000)">
                        <g id="Group-17" transform="translate(18.000000, 33.000000)">
                            <g id="Group-7">
                                <g id="Group-6">
                                    <g id="hobbyist-pilot" transform="translate(2.000000, 3.000000)">
                                        <path d="M66.7701163,2.15292426 L55.0339588,2.15292426 L55.0339588,1.01526566 C55.0339588,0.460891312 54.5886479,0.0114492432 54.0393692,0.0114492432 C53.4900905,0.0114492432 53.0447796,0.460891312 53.0447796,1.01526566 L53.0447796,2.15292426 L41.3086221,2.15292426 C40.7593434,2.15292426 40.3140325,2.60236633 40.3140325,3.15674068 C40.3140325,3.71111502 40.7593434,4.16055709 41.3086221,4.16055709 L53.0447796,4.16055709 L53.0447796,5.53029805 C51.8128146,5.95029484 50.9229884,7.12703536 50.9229884,8.51042822 L50.9229884,9.64808682 L45.3222553,9.64808682 C44.906119,8.40469289 43.7401948,7.5066118 42.3695177,7.5066118 L25.3951882,7.5066118 C24.0245111,7.5066118 22.8585869,8.40469289 22.4424506,9.64808682 L16.8417175,9.64808682 L16.8417175,8.51042822 C16.8417175,7.1271692 15.9518913,5.95042868 14.7199263,5.53029805 L14.7199263,4.16055709 L26.4560838,4.16055709 C27.0053625,4.16055709 27.4506734,3.71111502 27.4506734,3.15674068 C27.4506734,2.60236633 27.0053625,2.15292426 26.4560838,2.15292426 L14.7199263,2.15292426 L14.7199263,1.01526566 C14.7199263,0.460891312 14.2746154,0.0114492432 13.7253367,0.0114492432 C13.176058,0.0114492432 12.7307471,0.460891312 12.7307471,1.01526566 L12.7307471,2.15292426 L0.994589617,2.15292426 C0.445310924,2.15292426 0,2.60236633 0,3.15674068 C0,3.71111502 0.445310924,4.16055709 0.994589617,4.16055709 L12.7307471,4.16055709 L12.7307471,5.53029805 C11.4987821,5.95029484 10.6089559,7.12703536 10.6089559,8.51042822 L10.6089559,12.7933783 C10.6089559,14.5277053 12.0069511,15.9386697 13.7253367,15.9386697 C15.4437223,15.9386697 16.8417175,14.5277053 16.8417175,12.7933783 L16.8417175,11.6557197 L22.4424506,11.6557197 C22.8585869,12.8991136 24.0245111,13.7971947 25.3951882,13.7971947 L26.5223898,13.7971947 L26.5223898,17.154626 C24.729211,17.2820437 23.2082846,18.5542137 22.7666868,20.336724 L20.3750303,29.9920995 L19.0298147,29.9920995 C18.480536,29.9920995 18.035225,30.4415416 18.035225,30.9959159 C18.035225,31.5502902 18.480536,31.9997323 19.0298147,31.9997323 L21.1486884,31.9997323 C21.1498819,31.9997323 21.151208,32 21.1524015,32 C21.1533298,32 21.1541255,31.9997323 21.1550538,31.9997323 L23.273397,31.9997323 C23.8226757,31.9997323 24.2679866,31.5502902 24.2679866,30.9959159 C24.2679866,30.4415416 23.8226757,29.9920995 23.273397,29.9920995 L22.4254762,29.9920995 L24.6964559,20.8236419 C24.9297203,19.8819282 25.7382553,19.2135204 26.6880221,19.1565036 C27.1057497,20.3970868 28.2702153,21.2923572 29.6387706,21.2923572 L38.1259353,21.2923572 C39.4944906,21.2923572 40.6589561,20.3970868 41.0766838,19.1565036 C42.0263179,19.2135204 42.8349856,19.8819282 43.06825,20.8236419 L45.3392297,29.9920995 L44.4913089,29.9920995 C43.9420302,29.9920995 43.4967192,30.4415416 43.4967192,30.9959159 C43.4967192,31.5502902 43.9420302,31.9997323 44.4913089,31.9997323 L46.6096521,31.9997323 C46.6105804,31.9997323 46.6113761,32 46.6123044,32 C46.6134979,32 46.614824,31.9997323 46.6160175,31.9997323 L48.7348912,31.9997323 C49.2841699,31.9997323 49.7294808,31.5502902 49.7294808,30.9959159 C49.7294808,30.4415416 49.2841699,29.9920995 48.7348912,29.9920995 L47.3896756,29.9920995 L44.9980191,20.336724 C44.5565539,18.5540799 43.0354949,17.2820437 41.2423161,17.154626 L41.2423161,13.7971947 L42.3695177,13.7971947 C43.7401948,13.7971947 44.906119,12.8991136 45.3222553,11.6557197 L50.9229884,11.6557197 L50.9229884,12.7933783 C50.9229884,14.5277053 52.3209835,15.9386697 54.0393692,15.9386697 C55.7577548,15.9386697 57.15575,14.5277053 57.15575,12.7933783 L57.15575,8.51042822 C57.15575,7.1271692 56.2659238,5.95042868 55.0339588,5.53029805 L55.0339588,4.16055709 L66.7701163,4.16055709 C67.319395,4.16055709 67.7647059,3.71111502 67.7647059,3.15674068 C67.7647059,2.60236633 67.319395,2.15292426 66.7701163,2.15292426 Z M14.8525383,12.7933783 C14.8525383,13.4206966 14.3468889,13.9310369 13.7253367,13.9310369 C13.1037845,13.9310369 12.5981351,13.4206966 12.5981351,12.7933783 L12.5981351,8.51042822 C12.5981351,7.88310988 13.1037845,7.37276962 13.7253367,7.37276962 C14.3468889,7.37276962 14.8525383,7.88310988 14.8525383,8.51042822 L14.8525383,12.7933783 Z M42.3695177,11.7895618 L40.2477265,11.7895618 L38.1259353,11.7895618 C37.5766566,11.7895618 37.1313457,12.2390039 37.1313457,12.7933783 C37.1313457,13.3477526 37.5766566,13.7971947 38.1259353,13.7971947 L39.2531369,13.7971947 L39.2531369,18.1470658 C39.2531369,18.7743841 38.7474875,19.2847244 38.1259353,19.2847244 L29.6387706,19.2847244 C29.0172184,19.2847244 28.511569,18.7743841 28.511569,18.1470658 L28.511569,13.7971947 L33.8823529,13.7971947 C34.4316316,13.7971947 34.8769426,13.3477526 34.8769426,12.7933783 C34.8769426,12.2390039 34.4316316,11.7895618 33.8823529,11.7895618 L27.5169794,11.7895618 L25.3951882,11.7895618 C24.773636,11.7895618 24.2679866,11.2792216 24.2679866,10.6519032 C24.2679866,10.0245849 24.773636,9.51424463 25.3951882,9.51424463 L42.3695177,9.51424463 C42.9910699,9.51424463 43.4967192,10.0245849 43.4967192,10.6519032 C43.4967192,11.2792216 42.9910699,11.7895618 42.3695177,11.7895618 Z M55.1665707,12.7933783 C55.1665707,13.4206966 54.6609214,13.9310369 54.0393692,13.9310369 C53.417817,13.9310369 52.9121676,13.4206966 52.9121676,12.7933783 L52.9121676,8.51042822 C52.9121676,7.88310988 53.417817,7.37276962 54.0393692,7.37276962 C54.6609214,7.37276962 55.1665707,7.88310988 55.1665707,8.51042822 L55.1665707,12.7933783 Z" id="Drone"></path>
                                    </g>
                                </g>
                            </g>
                        </g>
                    </g>
                </g>
            </g>
        </g>
    </g>
</svg>