<?xml version="1.0" encoding="UTF-8"?>
<svg width="43px" height="42px" viewBox="0 0 43 42" version="1.1" xmlns="http://www.w3.org/2000/svg" xmlns:xlink="http://www.w3.org/1999/xlink">
    <!-- Generator: Sketch 52.6 (67491) - http://www.bohemiancoding.com/sketch -->
    <title>icons/drone</title>
    <desc>Created with Sketch.</desc>
    <defs>
        <path d="M26.874,4.316 C26.874,4.778 26.973,5.219 27.148,5.622 L24.58,8.133 L22.951,6.573 L19.106,10.354 L15.054,10.354 L11.211,6.573 L9.586,8.127 L7.026,5.622 C7.201,5.219 7.299,4.778 7.299,4.316 C7.299,2.436 5.707,0.907 3.75,0.907 C1.792,0.907 0.199,2.436 0.199,4.316 C0.199,6.195 1.792,7.724 3.75,7.724 C4.207,7.724 4.642,7.634 5.044,7.481 L7.624,10.005 L5.858,11.697 L9.919,15.597 L9.914,17.244 L9.919,18.885 L5.858,22.787 L7.581,24.436 L5.044,26.917 C4.642,26.766 4.207,26.674 3.75,26.674 C1.792,26.674 0.199,28.204 0.199,30.085 C0.199,31.964 1.792,33.493 3.75,33.493 C5.707,33.493 7.299,31.964 7.299,30.085 C7.299,29.62 7.201,29.181 7.026,28.778 L9.543,26.315 L11.211,27.91 L15.054,24.13 L19.106,24.13 L22.951,27.91 L24.624,26.309 L27.148,28.777 C26.973,29.18 26.874,29.62 26.874,30.085 C26.874,31.964 28.468,33.493 30.425,33.493 C32.383,33.493 33.976,31.964 33.976,30.085 C33.976,28.204 32.383,26.674 30.425,26.674 C29.966,26.674 29.532,26.766 29.132,26.917 L26.587,24.431 L28.305,22.787 L24.243,18.885 L24.247,17.244 L24.243,15.599 L28.305,11.697 L26.543,10.012 L29.132,7.481 C29.532,7.634 29.966,7.724 30.425,7.724 C32.383,7.724 33.976,6.195 33.976,4.316 C33.976,2.436 32.383,0.907 30.425,0.907 C28.468,0.907 26.874,2.436 26.874,4.316 Z M29.647,4.316 C29.647,3.904 29.997,3.569 30.425,3.569 C30.855,3.569 31.204,3.904 31.204,4.316 C31.204,4.729 30.855,5.064 30.425,5.064 C29.997,5.064 29.647,4.729 29.647,4.316 Z M2.971,4.316 C2.971,3.904 3.321,3.569 3.75,3.569 C4.178,3.569 4.527,3.904 4.527,4.316 C4.527,4.729 4.178,5.064 3.75,5.064 C3.321,5.064 2.971,4.729 2.971,4.316 Z M20.274,13.015 L22.976,10.357 L24.382,11.701 L21.468,14.498 L21.475,17.242 L21.468,19.984 L24.382,22.783 L22.976,24.126 L20.274,21.468 L17.084,21.468 L13.887,21.468 L11.184,24.126 L9.779,22.783 L12.692,19.984 L12.686,17.244 L12.692,14.499 L9.779,11.701 L11.184,10.357 L13.887,13.015 L20.274,13.015 Z M29.647,30.085 C29.647,29.671 29.997,29.336 30.425,29.336 C30.855,29.336 31.204,29.671 31.204,30.085 C31.204,30.496 30.855,30.831 30.425,30.831 C29.997,30.831 29.647,30.496 29.647,30.085 Z M2.971,30.085 C2.971,29.671 3.321,29.336 3.75,29.336 C4.178,29.336 4.527,29.671 4.527,30.085 C4.527,30.496 4.178,30.831 3.75,30.831 C3.321,30.831 2.971,30.496 2.971,30.085 Z" id="path-1"></path>
    </defs>
    <g id="Page-1" stroke="none" stroke-width="1" fill="none" fill-rule="evenodd">
        <g id="PAYF" transform="translate(-874.000000, -4598.000000)">
            <g id="icons/drone/white" transform="translate(873.000000, 4597.000000)">
                <g id="Group-21" transform="translate(2.000000, 1.000000)">
                    <g id="Group-17" transform="translate(0.000000, 0.552700)" stroke="#FED900" stroke-linecap="round" stroke-width="2.835">
                        <path d="M26.9116,0.8647 L31.6586,5.7577" id="Stroke-1"></path>
                        <path d="M35.2505,9.2036 L39.9975,14.0956" id="Stroke-3"></path>
                        <path d="M13.5034,0.8647 L8.7564,5.7577" id="Stroke-5"></path>
                        <path d="M5.1646,9.2036 L0.4176,14.0956" id="Stroke-7"></path>
                        <path d="M26.9116,39.5825 L31.6586,34.6895" id="Stroke-9"></path>
                        <path d="M35.2505,31.2436 L39.9975,26.3516" id="Stroke-11"></path>
                        <path d="M13.5034,39.5825 L8.7564,34.6895" id="Stroke-13"></path>
                        <path d="M5.1646,31.2436 L0.4176,26.3516" id="Stroke-15"></path>
                    </g>
                    <g id="Group-20" transform="translate(3.000000, 3.552700)">
                        <mask id="mask-2" fill="white">
                            <use xlink:href="#path-1"></use>
                        </mask>
                        <g id="Clip-19"></g>
                        <polygon id="Fill-18" fill="#FFFFFF" mask="url(#mask-2)" points="-1.788 35.479 35.963 35.479 35.963 -1.08 -1.788 -1.08"></polygon>
                    </g>
                </g>
            </g>
        </g>
    </g>
</svg>