<?xml version="1.0" encoding="UTF-8"?>
<svg width="44px" height="43px" viewBox="0 0 44 43" version="1.1" xmlns="http://www.w3.org/2000/svg" xmlns:xlink="http://www.w3.org/1999/xlink">
    <!-- Generator: Sketch 52.6 (67491) - http://www.bohemiancoding.com/sketch -->
    <title>icons/infinity copy</title>
    <desc>Created with Sketch.</desc>
    <defs>
        <polygon id="path-1" points="0 0.157748967 28.001 0.157748967 28.001 34 0 34"></polygon>
    </defs>
    <g id="icons/infinity-copy" stroke="none" stroke-width="1" fill="none" fill-rule="evenodd">
        <g id="Group-10" transform="translate(8.000000, 2.000000)">
            <g id="Group-3" transform="translate(0.000000, 6.151000)">
                <mask id="mask-2" fill="white">
                    <use xlink:href="#path-1"></use>
                </mask>
                <g id="Clip-2"></g>
                <path d="M24.664,10.3165 C24.123,10.3165 23.537,10.4065 23.086,10.6325 C22.635,9.2795 21.417,8.3775 19.975,8.2875 C19.298,8.1975 18.666,8.3775 18.08,8.7385 C17.494,7.7465 16.502,7.0695 15.284,6.9795 C14.833,6.9795 14.382,7.0695 13.932,7.2055 L13.932,3.8225 C13.932,1.9285 12.488,0.3505 10.685,0.1705 C9.692,0.0795 8.79,0.4855 8.113,1.0715 C7.437,1.7485 7.031,2.6505 7.031,3.5525 L7.031,16.4495 L6.039,15.5475 C4.461,14.1945 2.928,13.9695 1.665,14.7355 C0.853,15.1875 0.312,15.9535 0.087,16.9455 C-0.139,17.9385 0.087,18.9295 0.628,19.7415 L8.561,31.7515 C8.711,31.9775 8.79,32.2425 8.79,32.5135 L8.79,32.8745 C8.793,33.4965 9.297,34.0005 9.919,34.0005 C10.535,34.0005 11.033,33.5045 11.045,32.8915 L11.044,31.9575 C11.044,31.5965 10.935,31.2435 10.734,30.9445 L2.387,18.5685 C2.161,18.2535 2.071,17.8925 2.161,17.4865 C2.252,17.3515 2.297,16.9455 2.702,16.7205 C2.838,16.6295 3.289,16.3595 4.506,17.3065 L6.4,18.9755 C6.761,19.2905 6.941,19.7415 6.941,20.1025 L6.941,20.9595 C6.941,21.5455 7.482,22.0865 8.068,22.0865 C8.655,22.0865 9.196,21.5455 9.196,20.9595 L9.196,18.9755 L9.196,17.6225 L9.196,3.5975 C9.196,3.2815 9.332,3.0115 9.557,2.7855 C9.782,2.5605 10.098,2.4245 10.459,2.4695 C11.045,2.4695 11.586,3.0565 11.586,3.8225 L11.586,7.8815 L11.586,10.4515 L11.586,15.7735 C11.586,16.3595 12.127,16.9005 12.714,16.9005 C13.3,16.9005 13.841,16.3595 13.841,15.7735 L13.841,10.4975 C13.841,10.1815 13.976,9.9105 14.201,9.6855 C14.428,9.4595 14.743,9.3245 15.103,9.3695 C15.689,9.3695 16.23,9.9555 16.23,10.7225 L16.23,11.0385 L16.23,11.9405 L16.23,15.9535 C16.23,16.5395 16.772,17.0815 17.358,17.0815 C17.945,17.0815 18.486,16.5395 18.486,15.9535 L18.486,11.9405 C18.486,11.6245 18.621,11.2635 18.847,11.0385 C19.072,10.8125 19.388,10.6775 19.748,10.7225 C20.335,10.7225 20.876,11.3085 20.876,12.0755 L20.876,12.6165 L20.876,14.0595 L20.876,17.4865 C20.876,18.0735 21.417,18.6145 22.004,18.6145 C22.59,18.6145 23.131,18.0735 23.131,17.4865 L23.131,14.0595 C23.131,13.7435 23.266,13.4735 23.491,13.2475 C23.717,13.0225 24.033,12.8875 24.393,12.9325 C24.979,12.9325 25.52,13.5185 25.52,14.2855 L25.746,24.3415 C25.746,24.7925 25.611,25.2435 25.431,25.6495 L23.008,29.9435 C22.832,30.2565 22.738,30.6085 22.736,30.9685 L22.73,32.8415 C22.737,33.4825 23.256,34.0005 23.898,34.0005 C24.545,34.0005 25.07,33.4755 25.07,32.8285 L25.07,31.1635 C25.07,31.0665 25.094,30.9715 25.141,30.8855 L27.415,26.6865 C27.775,25.9205 28.001,25.1525 28.001,24.3415 L28.001,13.9695 C28.001,11.9845 26.559,10.4975 24.664,10.3165" id="Fill-1" fill="#020303" mask="url(#mask-2)"></path>
            </g>
            <path d="M14.3886,5.2219 L16.9476,2.6629" id="Stroke-4" stroke="#FED900" stroke-width="2.6" stroke-linecap="round"></path>
            <path d="M10.373,3.9186 L10.373,0.2996" id="Stroke-6" stroke="#FED900" stroke-width="2.6" stroke-linecap="round"></path>
            <path d="M6.3583,5.2219 L3.7993,2.6629" id="Stroke-8" stroke="#FED900" stroke-width="2.6" stroke-linecap="round"></path>
        </g>
    </g>
</svg>