<?xml version="1.0" encoding="utf-8"?>
<!-- Generator: Adobe Illustrator 21.0.2, SVG Export Plug-In . SVG Version: 6.00 Build 0)  -->
<svg version="1.1" id="Layer_1" xmlns="http://www.w3.org/2000/svg" xmlns:xlink="http://www.w3.org/1999/xlink" x="0px" y="0px"
	 viewBox="0 0 230.4 259.6" style="enable-background:new 0 0 230.4 259.6;" xml:space="preserve">
<style type="text/css">
	.st0{fill:none;stroke:#010202;stroke-width:6.9644;stroke-miterlimit:10;}
	.st1{fill:#010202;}
	.st2{fill:#F4F4F4;stroke:#010202;stroke-width:6;stroke-miterlimit:10;}
	.st3{fill:none;stroke:#010202;stroke-width:2.4512;stroke-miterlimit:10;}
	.st4{fill:#FFFFFF;stroke:#010202;stroke-width:2.0401;stroke-linecap:round;stroke-miterlimit:10;}
	.st5{font-family:'ITCAvantGardePro-Bold';}
	.st6{font-size:19.317px;}
	.st7{font-family:'Chivo-Regular';}
	.st8{font-size:6px;}
</style>
<g>
	<line class="st0" x1="142.5" y1="39.5" x2="180.8" y2="40.9"/>
	<path class="st0" d="M181.5,31.3l-0.2,5.1c-0.2,6.5,4.9,12.1,11.4,12.3c6.5,0.2,12.1-4.9,12.3-11.4l0.2-5.1"/>
	<line class="st0" x1="163.5" y1="29.1" x2="225.4" y2="31.4"/>
	<g>
		<polygon class="st1" points="143.8,77.6 138.7,52 145.3,50.6 150.8,77.8 		"/>
	</g>
	
		<ellipse transform="matrix(3.811080e-02 -0.9993 0.9993 3.811080e-02 158.1649 220.2286)" class="st0" cx="193.5" cy="28" rx="2.3" ry="2.3"/>
	<path class="st0" d="M114.5,50.3l-27.5-1.1l0.6-15.3c0.6-15.2,13.4-27.1,28.6-26.5s27.1,13.4,26.5,28.6L142,51.3L114.5,50.3z"/>
	<line class="st0" x1="87.4" y1="37.4" x2="49.1" y2="35.9"/>
	<path class="st0" d="M49.1,26.3l-0.2,5.1c-0.2,6.5-5.8,11.7-12.3,11.4S24.9,37,25.2,30.4l0.2-5.1"/>
	<line class="st0" x1="67.2" y1="25.4" x2="5.3" y2="23"/>
	<g>
		<polygon class="st1" points="83.1,75.2 90.2,50.1 83.6,48.3 76.1,75 		"/>
	</g>
	
		<ellipse transform="matrix(3.811080e-02 -0.9993 0.9993 3.811080e-02 13.9544 58.5057)" class="st0" cx="37.4" cy="22" rx="2.3" ry="2.3"/>
	
		<ellipse transform="matrix(3.811080e-02 -0.9993 0.9993 3.811080e-02 82.0916 142.9056)" class="st1" cx="115.3" cy="28.8" rx="3.3" ry="3.3"/>
	<path class="st2" d="M72.7,151.3v85.8c0,8,6.5,14.5,14.5,14.5h54.2c8,0,14.5-6.5,14.5-14.5v-86c0-3.8-1.5-7.5-4.2-10.3l-26.5-26.5
		c-5.6-5.6-14.6-5.7-20.3-0.2l-27.7,26.7C74.3,143.6,72.7,147.4,72.7,151.3z"/>
	<circle class="st3" cx="114.3" cy="124" r="4"/>
	<line class="st4" x1="114.3" y1="122.6" x2="114.3" y2="51.6"/>
</g>
<text transform="matrix(1 9.370000e-03 -9.370000e-03 1 95.0197 168.1889)"><tspan x="0" y="0" class="st1 st5 st6">First</tspan><tspan x="-11.5" y="23.2" class="st1 st5 st6">Month</tspan><tspan x="-2" y="46.4" class="st1 st5 st6">FREE</tspan></text>
<text transform="matrix(1 9.370000e-03 -9.370000e-03 1 98.7491 240.668)" class="st1 st7 st8">T&amp;Cs apply</text>
</svg>
