<?xml version="1.0" encoding="utf-8"?>
<!-- Generator: Adobe Illustrator 21.0.2, SVG Export Plug-In . SVG Version: 6.00 Build 0)  -->
<svg version="1.1" id="Layer_1" xmlns="http://www.w3.org/2000/svg" xmlns:xlink="http://www.w3.org/1999/xlink" x="0px" y="0px"
	 viewBox="0 0 225.7 259.2" style="enable-background:new 0 0 225.7 259.2;" xml:space="preserve">
<style type="text/css">
	.st0{fill:#010202;}
	.st1{fill:#F4F4F4;}
	.st2{fill:#FFFFFF;}
</style>
<g>
	<g>
		
			<rect x="155.3" y="20.5" transform="matrix(3.811258e-02 -0.9993 0.9993 3.811258e-02 113.0657 196.867)" class="st0" width="7" height="38.3"/>
	</g>
	<g>
		<path class="st0" d="M190.3,51.7c-0.2,0-0.4,0-0.6,0c-8.5-0.3-15.1-7.5-14.8-15.9l0.2-5.1l7,0.3l-0.2,5.1
			c-0.2,4.6,3.4,8.5,8.1,8.7c4.6,0.2,8.5-3.4,8.7-8.1l0.2-5.1l7,0.3l-0.2,5.1C205.3,45.2,198.5,51.7,190.3,51.7z"/>
	</g>
	<g>
		
			<rect x="188.1" y="-1.2" transform="matrix(3.811617e-02 -0.9993 0.9993 3.811617e-02 154.5555 220.1272)" class="st0" width="7" height="61.9"/>
	</g>
	<g>
		<g>
			<polygon class="st0" points="141,77.1 135.9,51.5 142.5,50.2 148,77.3 			"/>
		</g>
	</g>
	<g>
		<path class="st0" d="M190.7,33.3c-0.1,0-0.1,0-0.2,0c-1.6-0.1-3-0.7-4-1.9c-1.1-1.1-1.6-2.6-1.5-4.2c0.1-3.2,2.8-5.7,6-5.6
			c3.2,0.1,5.7,2.8,5.6,6v0C196.4,30.8,193.8,33.3,190.7,33.3z M189.5,27.4c0,0.6,0.5,1.2,1.1,1.2c0.6,0,1.2-0.5,1.2-1.1L189.5,27.4
			z M190.7,26.3c-0.6,0-1.1,0.5-1.1,1.1l2.3,0.1C191.8,26.9,191.3,26.4,190.7,26.3C190.7,26.3,190.7,26.3,190.7,26.3z"/>
	</g>
	<g>
		<path class="st0" d="M142.5,54.4l-62.1-2.4l0.7-18.8c0.7-17.1,15.1-30.5,32.2-29.8c17.1,0.7,30.5,15.1,29.8,32.2L142.5,54.4z
			 M87.7,45.4l48.1,1.8l0.5-11.9c0.5-13.3-9.9-24.5-23.2-25c-13.3-0.5-24.5,9.9-25,23.2L87.7,45.4z"/>
	</g>
	<g>
		
			<rect x="61.9" y="17" transform="matrix(3.811258e-02 -0.9993 0.9993 3.811258e-02 26.7934 100.1175)" class="st0" width="7" height="38.3"/>
	</g>
	<g>
		<path class="st0" d="M34.2,45.8c-0.2,0-0.4,0-0.6,0c-8.5-0.3-15.1-7.5-14.8-15.9l0.2-5.1l7,0.3l-0.2,5.1c-0.2,4.6,3.4,8.5,8.1,8.7
			c4.6,0.2,8.5-3.4,8.7-8.1l0.2-5.1l7,0.3L49.6,31C49.2,39.3,42.4,45.8,34.2,45.8z"/>
	</g>
	<g>
		
			<rect x="29.9" y="-7.2" transform="matrix(3.810829e-02 -0.9993 0.9993 3.810829e-02 8.4198 56.244)" class="st0" width="7" height="61.9"/>
	</g>
	<g>
		<g>
			<polygon class="st0" points="80.3,74.8 87.4,49.7 80.8,47.8 73.3,74.5 			"/>
		</g>
	</g>
	<g>
		<path class="st0" d="M34.6,27.3c-0.1,0-0.1,0-0.2,0c-3.2-0.1-5.7-2.8-5.6-6c0.1-1.6,0.7-3,1.9-4c1.1-1.1,2.6-1.6,4.2-1.5
			c3.2,0.1,5.7,2.8,5.6,6C40.2,24.9,37.7,27.3,34.6,27.3z M34.6,20.4c-0.6,0-1.1,0.5-1.1,1.1c0,0.6,0.5,1.2,1.1,1.2
			c0.7,0.1,1.2-0.5,1.2-1.1C35.7,20.9,35.2,20.4,34.6,20.4C34.6,20.4,34.6,20.4,34.6,20.4z"/>
	</g>
	<g>
		
			<ellipse transform="matrix(3.811080e-02 -0.9993 0.9993 3.811080e-02 79.8648 139.6333)" class="st0" cx="112.5" cy="28.3" rx="3.3" ry="3.3"/>
	</g>
	<g>
		<path class="st1" d="M69.9,150.8v85.8c0,8,6.5,14.5,14.5,14.5h54.2c8,0,14.5-6.5,14.5-14.5v-86c0-3.8-1.5-7.5-4.2-10.3l-26.5-26.5
			c-5.6-5.6-14.6-5.7-20.3-0.2l-27.7,26.7C71.5,143.1,69.9,146.9,69.9,150.8z"/>
		<path class="st0" d="M138.6,254.2H84.4c-9.7,0-17.5-7.9-17.5-17.5v-85.8c0-4.7,2-9.3,5.4-12.6l27.7-26.7
			c6.8-6.6,17.8-6.5,24.5,0.2l26.5,26.5c3.3,3.3,5.1,7.7,5.1,12.4v86C156.1,246.3,148.2,254.2,138.6,254.2z M112,112.7
			c-2.9,0-5.8,1.1-8,3.2l-27.7,26.7c-2.2,2.2-3.5,5.2-3.5,8.3v85.8c0,6.3,5.2,11.5,11.5,11.5h54.2c6.3,0,11.5-5.2,11.5-11.5v-86
			c0-3.1-1.2-6-3.4-8.1L120.2,116C117.9,113.8,115,112.7,112,112.7z"/>
	</g>
	<g>
		<path class="st0" d="M111.5,128.7c-2.9,0-5.2-2.3-5.2-5.2c0-2.9,2.3-5.2,5.2-5.2s5.2,2.3,5.2,5.2
			C116.7,126.4,114.3,128.7,111.5,128.7z M111.5,120.7c-1.5,0-2.8,1.2-2.8,2.8c0,1.5,1.2,2.8,2.8,2.8s2.8-1.2,2.8-2.8
			C114.2,122,113,120.7,111.5,120.7z"/>
	</g>
	<g>
		<line class="st2" x1="111.5" y1="122.1" x2="111.5" y2="51.1"/>
		<path class="st0" d="M111.5,123.1c-0.6,0-1-0.5-1-1v-71c0-0.6,0.5-1,1-1s1,0.5,1,1v71C112.5,122.7,112,123.1,111.5,123.1z"/>
	</g>
</g>
<g>
	<path class="st0" d="M96.9,156.7l0,2.4l4.2,0l0,3.2l-4.2,0l-0.1,5.4l-3.5,0l0.1-14.3l7.8,0.1l0,3.2L96.9,156.7z"/>
	<path class="st0" d="M102.9,167.8l0.1-10.7l3.2,0l-0.1,10.7L102.9,167.8z M103.1,156l0-2.4l3.2,0l0,2.4L103.1,156z"/>
	<path class="st0" d="M111.7,162l-0.1,5.9l-3.2,0l0.1-10.7l3,0l0,1.1l0,0c0.6-1.1,1.5-1.5,2.7-1.5l0,3.2
		C112.9,160.1,111.7,160.3,111.7,162z"/>
	<path class="st0" d="M119.5,168.3c-2.2,0-4.1-1.2-4.3-3.6l3.2,0c0.1,0.7,0.6,1,1.2,1c0.5,0,1.1-0.3,1.1-0.8c0-0.8-0.9-1-1.4-1.2
		c-0.5-0.2-0.9-0.3-1.4-0.5c-1.3-0.5-2.5-1.3-2.5-2.8c0-2.2,2.1-3.5,4.2-3.5c2.1,0,3.9,1.1,4.1,3.4l-3.1,0c0-0.6-0.4-0.8-1-0.8
		c-0.4,0-0.9,0.2-0.9,0.7c0,1.7,5.4,0.8,5.3,4.6C123.9,167.1,121.7,168.4,119.5,168.3z"/>
	<path class="st0" d="M129.4,159.8l-0.1,8.3l-3.2,0l0.1-8.3l-1.6,0l0-2.4l1.6,0l0-3.6l3.2,0l0,3.6l1.5,0l0,2.4L129.4,159.8z"/>
	<path class="st0" d="M93.5,190.9l0.2-10.7l0,0l-3.2,10.7l-2.4,0l-3-10.8l0,0l0,10.7l-3.4,0l0.1-14.3l4.7,0l2.8,9.4h0l2.9-9.4l4.7,0
		l-0.1,14.3L93.5,190.9z"/>
	<path class="st0" d="M104.6,191.3c-3.3,0-5.8-2.5-5.7-5.8c0-3.3,2.5-5.7,5.8-5.6c3.3,0,5.8,2.5,5.7,5.8
		C110.4,189,107.9,191.4,104.6,191.3z M104.7,182.9c-1.5,0-2.6,1.2-2.6,2.7c0,1.4,1.1,2.7,2.5,2.7c1.5,0,2.6-1.2,2.6-2.7
		C107.2,184.2,106.2,182.9,104.7,182.9z"/>
	<path class="st0" d="M118.9,191.1l0.1-5.9c0-1.2-0.2-2.2-1.7-2.2c-1.5,0-1.8,0.9-1.9,2.2l-0.1,5.8l-3.2,0l0.1-10.7l3,0l0,1.1h0
		c0.7-1.1,1.6-1.5,2.9-1.5c0.9,0,2,0.4,2.7,1c1,0.9,1.2,2.2,1.2,3.5l-0.1,6.7L118.9,191.1z"/>
	<path class="st0" d="M128.3,182.9l-0.1,8.3l-3.2,0l0.1-8.3l-1.6,0l0-2.4l1.6,0l0-3.6l3.2,0l0,3.6l1.5,0l0,2.4L128.3,182.9z"/>
	<path class="st0" d="M137.9,191.3l0.1-5.8c0-1.2-0.3-2.2-1.7-2.3c-1.4,0-1.8,0.9-1.8,2.1l-0.1,5.9l-3.2,0l0.1-14.3l3.2,0l0,4.6l0,0
		c0.6-1,1.7-1.3,2.8-1.3c1,0,2.2,0.4,2.9,1.2c1,1.2,1,2.5,1,3.9l-0.1,6L137.9,191.3z"/>
	<path class="st0" d="M94.6,203l0,2.4l4.2,0l0,3.2l-4.2,0l-0.1,5.4l-3.5,0l0.1-14.3l7.8,0.1l0,3.2L94.6,203z"/>
	<path class="st0" d="M107.7,214.2l-3.3-4.6h0l0,4.6l-3.5,0l0.1-14.3l4.5,0c1.5,0,3.2,0.1,4.4,1.1c1.2,1,1.7,2.4,1.7,3.9
		c0,2.2-1.3,4.1-3.6,4.5l3.8,4.9L107.7,214.2z M105.7,203.1l-1.3,0l0,4l1.3,0c1.4,0,2.4-0.6,2.4-2
		C108.1,203.7,107,203.1,105.7,203.1z"/>
	<path class="st0" d="M113.4,214.3l0.1-14.3l7.9,0.1l0,3.2l-4.4,0l0,2.2l4.3,0l0,3.2l-4.3,0l0,2.5l4.4,0l0,3.2L113.4,214.3z"/>
	<path class="st0" d="M123.6,214.4l0.1-14.3l7.9,0.1l0,3.2l-4.4,0l0,2.2l4.3,0l0,3.2l-4.3,0l0,2.5l4.4,0l0,3.2L123.6,214.4z"/>
</g>
<g>
	<path class="st0" d="M99.3,236.1l0,0.5l-1.3,0l0,3.6l-0.6,0l0-3.6l-1.3,0l0-0.5L99.3,236.1z"/>
	<path class="st0" d="M101.6,236.1l0,0.5c-0.1,0-0.2-0.1-0.3-0.1c-0.2,0-0.4,0.1-0.6,0.2c-0.1,0.1-0.2,0.3-0.2,0.5
		c0,0.2,0.1,0.3,0.2,0.5c0.2,0.1,0.3,0.2,0.6,0.2l0.7,0l0.2-0.9l0.4,0l0,0.9l0.6,0l0,0.5l-0.6,0l0,1.8l-1.4,0
		c-0.4,0-0.8-0.1-1.1-0.3c-0.3-0.2-0.4-0.5-0.4-0.9c0-0.5,0.3-0.8,0.8-1l0,0c-0.2-0.1-0.4-0.2-0.5-0.4c-0.1-0.1-0.2-0.3-0.2-0.5
		c0-0.3,0.1-0.5,0.2-0.7c0.1-0.2,0.3-0.3,0.5-0.4c0.2-0.1,0.4-0.1,0.6-0.1C101.3,236.1,101.5,236.1,101.6,236.1z M101.3,238.4
		c-0.3,0-0.5,0-0.7,0.2c-0.2,0.1-0.2,0.3-0.2,0.5c0,0.2,0.1,0.4,0.2,0.5c0.2,0.1,0.4,0.2,0.7,0.2l0.7,0l0-1.3L101.3,238.4z"/>
	<path class="st0" d="M106.3,236.3c0.2,0.1,0.4,0.3,0.5,0.6c0.1,0.2,0.2,0.5,0.2,0.9l-0.6,0c0-0.3-0.1-0.6-0.3-0.8
		c-0.2-0.2-0.4-0.3-0.7-0.3c-0.4,0-0.6,0.1-0.8,0.3c-0.2,0.2-0.3,0.5-0.3,1l0,0.5c0,0.4,0.1,0.8,0.3,1c0.2,0.2,0.5,0.3,0.8,0.3
		c0.3,0,0.6-0.1,0.8-0.3c0.2-0.2,0.3-0.5,0.3-0.8l0.6,0c0,0.3-0.1,0.6-0.2,0.9c-0.1,0.2-0.3,0.4-0.6,0.6c-0.2,0.1-0.5,0.2-0.8,0.2
		c-0.5,0-0.9-0.2-1.2-0.5c-0.3-0.3-0.4-0.8-0.4-1.4l0-0.5c0-0.6,0.2-1,0.5-1.4c0.3-0.3,0.7-0.5,1.2-0.5
		C105.8,236.1,106.1,236.2,106.3,236.3z"/>
	<path class="st0" d="M109.7,237.3c0.2,0.1,0.3,0.2,0.4,0.3c0.1,0.1,0.1,0.3,0.1,0.4l0,0.1l-0.6,0v-0.1c0-0.3-0.2-0.4-0.7-0.4
		c-0.4,0-0.7,0.1-0.7,0.4c0,0.1,0.1,0.2,0.2,0.3c0.1,0.1,0.3,0.1,0.6,0.2c0.3,0.1,0.5,0.1,0.6,0.2c0.2,0.1,0.3,0.1,0.4,0.3
		c0.1,0.1,0.2,0.3,0.2,0.5c0,0.3-0.1,0.6-0.3,0.7c-0.2,0.2-0.5,0.2-1,0.2l-0.1,0c-0.3,0-0.5,0-0.7-0.1c-0.2-0.1-0.3-0.2-0.4-0.3
		c-0.1-0.1-0.1-0.3-0.1-0.5l0-0.1l0.6,0l0,0.1c0,0.3,0.3,0.5,0.9,0.5c0.2,0,0.3,0,0.5-0.1c0.1-0.1,0.2-0.2,0.2-0.3
		c0-0.1,0-0.2-0.1-0.3c-0.1-0.1-0.2-0.1-0.3-0.1c-0.1,0-0.3-0.1-0.4-0.1c-0.2,0-0.4-0.1-0.6-0.2c-0.2-0.1-0.3-0.1-0.4-0.3
		c-0.1-0.1-0.2-0.3-0.2-0.5c0-0.3,0.1-0.5,0.3-0.7c0.2-0.2,0.5-0.2,0.9-0.2l0.1,0C109.3,237.2,109.5,237.2,109.7,237.3z"/>
	<path class="st0" d="M114.7,237.5c0.2,0.2,0.3,0.4,0.3,0.7l0,1.6c0,0.1,0,0.1,0,0.2c0,0,0.1,0.1,0.1,0.1c0.1,0,0.2,0,0.3-0.1l0,0.4
		c-0.1,0.1-0.3,0.1-0.5,0.1c-0.2,0-0.3-0.1-0.4-0.1c-0.1-0.1-0.1-0.2-0.1-0.4c-0.3,0.4-0.6,0.5-1.1,0.5c-0.3,0-0.6-0.1-0.8-0.2
		c-0.2-0.1-0.2-0.4-0.2-0.7c0-0.2,0.1-0.4,0.2-0.6c0.1-0.1,0.3-0.2,0.6-0.3c0.3-0.1,0.7-0.1,1.2-0.1l0-0.3c0-0.2-0.1-0.3-0.2-0.4
		s-0.3-0.1-0.5-0.1c-0.2,0-0.4,0-0.5,0.1c-0.1,0.1-0.2,0.2-0.2,0.4l0,0.1l-0.6,0c0-0.1,0-0.1,0-0.2c0-0.1,0.1-0.3,0.2-0.4
		s0.3-0.2,0.5-0.3s0.4-0.1,0.6-0.1l0.1,0C114.2,237.2,114.5,237.3,114.7,237.5z M113.4,239c-0.2,0-0.4,0.1-0.4,0.2
		c-0.1,0.1-0.1,0.2-0.1,0.3c0,0.3,0.2,0.4,0.6,0.4c0.1,0,0.3,0,0.4-0.1s0.2-0.2,0.3-0.3c0.1-0.1,0.1-0.3,0.1-0.5l0-0.1
		C114,239,113.6,239,113.4,239z"/>
	<path class="st0" d="M118.4,237.7c0.2,0.3,0.3,0.7,0.3,1.2v0.1c0,0.5-0.1,0.8-0.3,1.1c-0.2,0.3-0.5,0.4-0.9,0.4
		c-0.4,0-0.7-0.2-0.9-0.5l0,1.5l-0.6,0l0-4.2l0.4,0c0,0.1,0.1,0.3,0.1,0.4c0.2-0.3,0.5-0.5,1-0.5
		C117.9,237.3,118.2,237.4,118.4,237.7z M116.8,238c-0.1,0.2-0.2,0.5-0.2,0.9c0,0.4,0.1,0.7,0.2,0.9s0.3,0.3,0.6,0.3
		c0.3,0,0.5-0.1,0.6-0.3c0.1-0.2,0.2-0.5,0.2-0.9c0-0.4-0.1-0.7-0.2-0.9c-0.1-0.2-0.3-0.3-0.6-0.3
		C117.1,237.7,116.9,237.8,116.8,238z"/>
	<path class="st0" d="M121.9,237.7c0.2,0.3,0.3,0.7,0.3,1.2v0.1c0,0.5-0.1,0.8-0.3,1.1c-0.2,0.3-0.5,0.4-0.9,0.4
		c-0.4,0-0.7-0.2-0.9-0.5l0,1.5l-0.6,0l0-4.2l0.4,0c0,0.1,0.1,0.3,0.1,0.4c0.2-0.3,0.5-0.5,1-0.5
		C121.4,237.3,121.7,237.4,121.9,237.7z M120.3,238c-0.1,0.2-0.2,0.5-0.2,0.9c0,0.4,0.1,0.7,0.2,0.9c0.1,0.2,0.3,0.3,0.6,0.3
		c0.3,0,0.5-0.1,0.6-0.3c0.1-0.2,0.2-0.5,0.2-0.9c0-0.4-0.1-0.7-0.2-0.9c-0.1-0.2-0.3-0.3-0.6-0.3
		C120.6,237.7,120.4,237.8,120.3,238z"/>
	<path class="st0" d="M123.7,236.1l0,4.3l-0.6,0l0-4.3L123.7,236.1z"/>
	<path class="st0" d="M126,240.4c-0.1,0.3-0.3,0.6-0.4,0.8c-0.1,0.2-0.2,0.3-0.4,0.4c-0.1,0.1-0.3,0.1-0.4,0.1c-0.1,0-0.3,0-0.4-0.1
		l0-0.5c0.1,0.1,0.2,0.1,0.3,0.1c0.2,0,0.3-0.1,0.4-0.2c0.1-0.1,0.2-0.3,0.3-0.5l-1.2-3l0.6,0l0.9,2.3h0l0.9-2.3l0.6,0L126,240.4z"
		/>
</g>
</svg>
