<?xml version="1.0" encoding="UTF-8"?>
<svg width="32px" height="32px" viewBox="0 0 32 32" version="1.1" xmlns="http://www.w3.org/2000/svg" xmlns:xlink="http://www.w3.org/1999/xlink">
    <!-- Generator: Sketch 52.5 (67469) - http://www.bohemiancoding.com/sketch -->
    <title>icons/globe</title>
    <desc>Created with Sketch.</desc>
    <defs>
        <polygon id="path-1" points="1 0.5 1.5 0.5 1.5 1 1 1"></polygon>
    </defs>
    <g id="Page-1" stroke="none" stroke-width="1" fill="none" fill-rule="evenodd">
        <g id="Fly-Unlimited-Page" transform="translate(-791.000000, -1229.000000)">
            <g id="icons/globe" transform="translate(785.000000, 1224.000000)">
                <g id="Group-14" transform="translate(5.000000, 6.000000)">
                    <path d="M17.0108,29.6036 C15.5648,29.6036 11.0408,24.3376 11.0408,15.0106 C11.0408,5.7656 15.4718,0.4176 17.0108,0.4176" id="Stroke-1" stroke="#020203" stroke-width="2.835" stroke-linejoin="round"></path>
                    <path d="M17.0108,29.6036 C18.4558,29.6036 22.9808,24.3376 22.9808,15.0106 C22.9808,5.7656 18.5498,0.4176 17.0108,0.4176" id="Stroke-3" stroke="#020203" stroke-width="2.835" stroke-linejoin="round"></path>
                    <path d="M3.7442,9.7037 L30.2772,9.7037" id="Stroke-5" stroke="#FED900" stroke-width="2.835" stroke-linejoin="round"></path>
                    <path d="M3.7442,20.317 L30.2772,20.317" id="Stroke-7" stroke="#FED900" stroke-width="2.835" stroke-linejoin="round"></path>
                    <path d="M17.0108,0.4176 C25.0708,0.4176 31.6038,6.9506 31.6038,15.0106 C31.6038,23.0696 25.0708,29.6036 17.0108,29.6036 C8.9508,29.6036 2.4168,23.0696 2.4168,15.0106 C2.4168,6.9506 8.9508,0.4176 17.0108,0.4176 Z" id="Stroke-9" stroke="#020203" stroke-width="2.835" stroke-linejoin="round"></path>
                    <g id="Group-13" transform="translate(0.000000, 30.021000)">
                        <mask id="mask-2" fill="white">
                            <use xlink:href="#path-1"></use>
                        </mask>
                        <g id="Clip-12"></g>
                        <path d="" id="Stroke-11" stroke="#020203" stroke-width="2.835" stroke-linejoin="round" mask="url(#mask-2)"></path>
                    </g>
                </g>
            </g>
        </g>
    </g>
</svg>