<?xml version="1.0" encoding="UTF-8"?>
<svg width="44px" height="43px" viewBox="0 0 44 43" version="1.1" xmlns="http://www.w3.org/2000/svg" xmlns:xlink="http://www.w3.org/1999/xlink">
    <!-- Generator: Sketch 52.6 (67491) - http://www.bohemiancoding.com/sketch -->
    <title>icons/infinity copy 2</title>
    <desc>Created with Sketch.</desc>
    <g id="icons/infinity-copy-2" stroke="none" stroke-width="1" fill="none" fill-rule="evenodd">
        <g id="Group-5" transform="translate(9.000000, 11.000000)">
            <path d="M8.621,2.6271 C8.717,2.3111 9.051,2.1311 9.367,2.2261 C9.372,2.2281 9.378,2.2291 9.383,2.2311 L12.417,3.2611 C12.642,3.3361 12.887,3.3361 13.112,3.2611 L16.142,2.2531 C16.455,2.1471 16.795,2.3151 16.901,2.6281 C16.903,2.6351 16.906,2.6421 16.908,2.6491 L18.85,9.1131 L6.684,9.1131 L8.621,2.6271 Z M20.325,11.2931 L24.424,11.2931 C25.032,11.2931 25.524,10.8001 25.524,10.1921 C25.524,9.5841 25.032,9.0911 24.424,9.0911 L21.131,9.0911 L19.013,1.9981 C18.569,0.5161 17.008,-0.3249 15.526,0.1181 C15.5,0.1271 15.473,0.1351 15.446,0.1441 L12.765,1.0241 L10.083,0.1441 C8.615,-0.3439 7.03,0.4501 6.542,1.9171 C6.533,1.9441 6.524,1.9711 6.517,1.9981 L4.398,9.0911 L1.1,9.0911 C0.493,9.0911 0,9.5841 0,10.1921 C0,10.8001 0.493,11.2931 1.1,11.2931 L20.325,11.2931 Z" id="Fill-1" fill="#020303"></path>
            <path d="M17.6561,18.9537 C16.6521,18.9537 15.8381,18.1397 15.8381,17.1357 C15.8381,16.1307 16.6521,15.3167 17.6561,15.3167 C18.6611,15.3167 19.4741,16.1307 19.4741,17.1357 C19.4741,18.1397 18.6611,18.9537 17.6561,18.9537 Z M7.8731,18.9537 C6.8681,18.9587 6.0511,18.1487 6.0461,17.1437 C6.0411,16.1397 6.8501,15.3217 7.8551,15.3167 C8.8591,15.3117 9.6771,16.1217 9.6821,17.1267 L9.6821,17.1397 C9.6791,18.1387 8.8721,18.9497 7.8731,18.9537 Z M17.6561,13.1197 C16.0031,13.1227 14.5191,14.1377 13.9181,15.6777 C13.1661,15.4597 12.3671,15.4597 11.6151,15.6777 C10.8061,13.6127 8.4761,12.5947 6.4111,13.4047 C4.3461,14.2137 3.3291,16.5427 4.1371,18.6077 C4.9471,20.6727 7.2761,21.6907 9.3421,20.8817 C10.5981,20.3897 11.5241,19.2977 11.8041,17.9767 C12.3991,17.6257 13.1381,17.6257 13.7331,17.9767 C14.1881,20.1497 16.3181,21.5427 18.4911,21.0877 C20.6651,20.6327 22.0571,18.5027 21.6021,16.3297 C21.2131,14.4647 19.5661,13.1297 17.6611,13.1327 L17.6561,13.1197 Z" id="Fill-3" fill="#FED900"></path>
        </g>
    </g>
</svg>