<?xml version="1.0" encoding="UTF-8"?>
<svg width="22px" height="22px" viewBox="0 0 22 22" version="1.1" xmlns="http://www.w3.org/2000/svg" xmlns:xlink="http://www.w3.org/1999/xlink">
    <!-- Generator: Sketch 50.2 (55047) - http://www.bohemiancoding.com/sketch -->
    <title>icons-circle</title>
    <desc>Created with Sketch.</desc>
    <defs></defs>
    <g id="Page-1" stroke="none" stroke-width="1" fill="none" fill-rule="evenodd">
        <g id="Home" transform="translate(-654.000000, -3363.000000)" fill="#FFE001">
            <g id="How-it-works-+-Risk" transform="translate(0.000000, 2046.000000)">
                <g id="Group-16" transform="translate(65.000000, 908.000000)">
                    <g transform="translate(585.000000, 0.000000)" id="Group-15">
                        <g transform="translate(0.000000, 304.000000)">
                            <g id="Group-25" transform="translate(4.000000, 105.000000)">
                                <g id="Page-1">
                                    <path d="M12.3754,1.8022 C11.2334,1.5672 10.0684,1.5582 8.9124,1.7762 L8.5784,0.1922 L8.6164,0.1852 C9.9774,-0.0718 11.3534,-0.0618 12.7014,0.2172 L12.3754,1.8022 Z M3.1664,5.5452 L1.8264,4.6352 C2.6114,3.4792 3.5994,2.5062 4.7604,1.7402 L5.6504,3.0922 C4.6674,3.7402 3.8314,4.5652 3.1664,5.5452 Z M18.0464,5.6432 C17.3974,4.6602 16.5714,3.8252 15.5914,3.1612 L16.4984,1.8212 C17.6554,2.6042 18.6314,3.5902 19.3964,4.7512 L18.0464,5.6432 Z M0.1894,12.5512 L0.1864,12.5312 C-0.0726,11.1632 -0.0616,9.7832 0.2184,8.4312 L1.8044,8.7592 C1.5664,9.9042 1.5574,11.0722 1.7754,12.2312 L0.1894,12.5512 Z M20.9204,12.7342 L19.3354,12.4022 C19.5764,11.2522 19.5874,10.0772 19.3674,8.9122 L20.9504,8.5732 L20.9574,8.6122 C21.2174,9.9872 21.2044,11.3742 20.9204,12.7342 Z M4.6264,19.3112 C3.4714,18.5242 2.4974,17.5362 1.7334,16.3742 L3.0874,15.4852 C3.7334,16.4692 4.5574,17.3062 5.5374,17.9722 L4.6264,19.3112 Z M16.3644,19.4152 L15.4774,18.0612 C16.4624,17.4162 17.3004,16.5922 17.9674,15.6142 L19.3044,16.5262 C18.5174,17.6802 17.5274,18.6522 16.3644,19.4152 Z M12.5414,20.9562 L12.5314,20.9582 C11.1594,21.2172 9.7754,21.2052 8.4204,20.9222 L8.7504,19.3372 C9.8974,19.5762 11.0684,19.5862 12.2304,19.3672 L12.5414,20.9562 Z" id="icons-circle"></path>
                                </g>
                            </g>
                        </g>
                    </g>
                </g>
            </g>
        </g>
    </g>
</svg>