<?xml version="1.0" encoding="UTF-8"?>
<svg width="33px" height="16px" viewBox="0 0 33 16" version="1.1" xmlns="http://www.w3.org/2000/svg" xmlns:xlink="http://www.w3.org/1999/xlink">
    <!-- Generator: Sketch 52.5 (67469) - http://www.bohemiancoding.com/sketch -->
    <title>icons/infinity</title>
    <desc>Created with Sketch.</desc>
    <defs>
        <polygon id="path-1" points="0.0002 0.316505504 24.6952 0.316505504 24.6952 16 0.0002 16"></polygon>
    </defs>
    <g id="Page-1" stroke="none" stroke-width="1" fill="none" fill-rule="evenodd">
        <g id="Fly-Unlimited-Page" transform="translate(-391.000000, -1242.000000)">
            <g id="icons/infinity" transform="translate(385.000000, 1228.000000)">
                <g id="Group-6" transform="translate(6.000000, 13.000000)">
                    <g id="Group-3" transform="translate(0.000000, 0.685100)">
                        <mask id="mask-2" fill="white">
                            <use xlink:href="#path-1"></use>
                        </mask>
                        <g id="Clip-2"></g>
                        <path d="M24.6952,12.8546 C24.6542,12.8556 24.6152,12.8636 24.5742,12.8636 C24.2582,12.8636 23.9612,12.8286 23.6692,12.7616 C23.2852,12.6736 22.9072,12.5316 22.5262,12.3326 C22.4002,12.2656 22.2722,12.1926 22.1442,12.1136 C21.7602,11.8766 21.3732,11.5836 20.9842,11.2396 C20.8382,11.1106 20.6922,10.9756 20.5462,10.8336 C20.1072,10.4086 19.6672,9.9286 19.2262,9.4116 C18.8592,8.9796 18.4902,8.5226 18.1182,8.0516 C17.8942,7.7696 17.6712,7.4826 17.4442,7.1926 C16.8312,6.4086 16.2062,5.6066 15.5472,4.8346 C15.0522,4.2576 14.5392,3.6956 13.9932,3.1716 C13.5842,2.7786 13.1562,2.4076 12.7022,2.0686 C12.6172,2.0046 12.5312,1.9426 12.4452,1.8816 C11.8372,1.4526 11.1822,1.0836 10.4712,0.8096 C9.8122,0.5556 9.1032,0.3886 8.3612,0.3346 C8.1892,0.3226 8.0172,0.3156 7.8422,0.3166 C6.7632,0.3166 5.7282,0.5356 4.7892,0.9326 C3.3802,1.5296 2.1852,2.5216 1.3402,3.7726 C0.9182,4.3976 0.5822,5.0886 0.3532,5.8276 C0.1232,6.5636 0.0002,7.3486 0.0002,8.1576 C0.0002,9.2356 0.2192,10.2716 0.6172,11.2096 C1.2142,12.6196 2.2062,13.8136 3.4572,14.6596 C4.0822,15.0816 4.7732,15.4176 5.5102,15.6466 C6.2482,15.8756 7.0342,15.9996 7.8422,15.9996 C8.3932,15.9996 8.9312,15.9366 9.4452,15.8196 C10.4102,15.6006 11.2892,15.1916 12.0832,14.6796 C12.7782,14.2306 13.4142,13.7006 14.0092,13.1276 C14.6052,12.5546 15.1632,11.9366 15.6982,11.2996 C15.2472,10.7476 14.8082,10.1886 14.3822,9.6426 L14.3532,9.6056 C14.1402,9.3336 13.9252,9.0586 13.7102,8.7846 C13.6642,8.8396 13.6192,8.8956 13.5742,8.9506 C13.0902,9.5376 12.6092,10.0876 12.1292,10.5766 C11.7682,10.9426 11.4082,11.2726 11.0502,11.5596 C10.5132,11.9896 9.9832,12.3176 9.4592,12.5336 C9.1962,12.6426 8.9332,12.7236 8.6672,12.7796 C8.4002,12.8336 8.1292,12.8636 7.8422,12.8636 C7.1872,12.8636 6.5742,12.7316 6.0112,12.4946 C5.1692,12.1386 4.4472,11.5406 3.9392,10.7886 C3.6852,10.4116 3.4852,9.9986 3.3472,9.5576 C3.2112,9.1166 3.1362,8.6486 3.1362,8.1576 C3.1362,7.5036 3.2682,6.8886 3.5062,6.3266 C3.8622,5.4836 4.4612,4.7616 5.2132,4.2546 C5.5882,4.0006 6.0022,3.8006 6.4422,3.6636 C6.8832,3.5256 7.3512,3.4516 7.8422,3.4516 C8.1572,3.4516 8.4552,3.4876 8.7482,3.5536 C9.2582,3.6696 9.7592,3.8856 10.2722,4.2016 C10.6562,4.4396 11.0432,4.7326 11.4312,5.0766 C12.0152,5.5906 12.6012,6.2146 13.1902,6.9056 C13.7782,7.5956 14.3682,8.3516 14.9712,9.1226 C15.5842,9.9066 16.2092,10.7086 16.8692,11.4806 C17.3632,12.0596 17.8772,12.6206 18.4232,13.1446 C18.5252,13.2426 18.6282,13.3396 18.7332,13.4356 C19.0482,13.7206 19.3732,13.9936 19.7132,14.2486 C20.3922,14.7566 21.1322,15.1936 21.9442,15.5066 C21.9952,15.5256 22.0462,15.5446 22.0972,15.5636 C22.8672,15.8406 23.7002,16.0006 24.5742,16.0006 C24.6152,16.0006 24.6542,15.9946 24.6952,15.9936 L24.6952,12.8546 Z" id="Fill-1" fill="#020203" mask="url(#mask-2)"></path>
                    </g>
                    <path d="M31.7997,5.7892 C31.2027,4.3802 30.2107,3.1852 28.9607,2.3402 C28.3347,1.9172 27.6437,1.5822 26.9057,1.3532 C26.2047,1.1352 25.4597,1.0212 24.6957,1.0092 C24.6537,1.0082 24.6147,1.0002 24.5737,1.0002 C24.0237,1.0002 23.4867,1.0622 22.9717,1.1802 C22.0057,1.3992 21.1277,1.8072 20.3337,2.3202 C19.6387,2.7692 19.0027,3.2992 18.4057,3.8722 C17.8117,4.4452 17.2537,5.0642 16.7177,5.6992 C17.1677,6.2502 17.6037,6.8062 18.0287,7.3502 L18.0627,7.3942 C18.2757,7.6662 18.4897,7.9412 18.7067,8.2152 C18.7517,8.1602 18.7967,8.1042 18.8417,8.0502 C19.3257,7.4622 19.8067,6.9122 20.2867,6.4242 C20.6477,6.0572 21.0077,5.7272 21.3647,5.4412 C21.9027,5.0112 22.4327,4.6842 22.9567,4.4662 C23.2197,4.3582 23.4827,4.2772 23.7487,4.2222 C24.0157,4.1662 24.2877,4.1372 24.5737,4.1372 C24.6157,4.1372 24.6537,4.1482 24.6957,4.1492 C25.3027,4.1652 25.8787,4.2842 26.4037,4.5062 C27.2467,4.8622 27.9687,5.4612 28.4767,6.2132 C28.7307,6.5882 28.9307,7.0022 29.0687,7.4432 C29.2047,7.8842 29.2787,8.3522 29.2787,8.8432 C29.2787,9.4972 29.1487,10.1112 28.9107,10.6742 C28.5547,11.5162 27.9557,12.2382 27.2037,12.7462 C26.8277,12.9992 26.4137,13.1992 25.9737,13.3372 C25.5707,13.4632 25.1407,13.5282 24.6957,13.5392 L24.6957,16.6792 C25.7297,16.6632 26.7237,16.4512 27.6267,16.0682 C29.0357,15.4722 30.2307,14.4792 31.0757,13.2292 C31.4977,12.6032 31.8337,11.9122 32.0637,11.1742 C32.2937,10.4352 32.4157,9.6502 32.4157,8.8422 C32.4157,7.7632 32.1967,6.7272 31.7997,5.7892" id="Fill-4" fill="#FED900"></path>
                </g>
            </g>
        </g>
    </g>
</svg>