<svg xmlns="http://www.w3.org/2000/svg" width="34" height="34" viewBox="0 0 34 34">
  <g fill="none" fill-rule="evenodd">
    <path fill="#000000" fill-rule="nonzero" d="M15.2222222,30.4444444 C6.81522103,30.4444444 0,23.6292234 0,15.2222222 C0,6.81522103 6.81522103,0 15.2222222,0 C23.6292234,0 30.4444444,6.81522103 30.4444444,15.2222222 C30.4444444,23.6292234 23.6292234,30.4444444 15.2222222,30.4444444 Z M15.2222222,28.4444444 C22.5246539,28.4444444 28.4444444,22.5246539 28.4444444,15.2222222 C28.4444444,7.91979053 22.5246539,2 15.2222222,2 C7.91979053,2 2,7.91979053 2,15.2222222 C2,22.5246539 7.91979053,28.4444444 15.2222222,28.4444444 Z"/>
    <path fill="#F0D006" fill-rule="nonzero" d="M15.2222222,25.2222222 C9.69937472,25.2222222 5.22222222,20.7450697 5.22222222,15.2222222 C5.22222222,9.69937472 9.69937472,5.22222222 15.2222222,5.22222222 C20.7450697,5.22222222 25.2222222,9.69937472 25.2222222,15.2222222 C25.2222222,20.7450697 20.7450697,25.2222222 15.2222222,25.2222222 Z M15.2222222,23.2222222 C19.6405002,23.2222222 23.2222222,19.6405002 23.2222222,15.2222222 C23.2222222,10.8039442 19.6405002,7.22222222 15.2222222,7.22222222 C10.8039442,7.22222222 7.22222222,10.8039442 7.22222222,15.2222222 C7.22222222,19.6405002 10.8039442,23.2222222 15.2222222,23.2222222 Z"/>
    <polygon fill="#000000" fill-rule="nonzero" points="32.614 34.003 23.852 25.267 25.267 23.852 34.004 32.589"/>
    <polygon fill="#000000" points="34 32.586 34 34 32.614 34"/>
  </g>
</svg>
