<?xml version="1.0" encoding="UTF-8"?>
<svg width="35px" height="42px" viewBox="0 0 35 42" version="1.1" xmlns="http://www.w3.org/2000/svg" xmlns:xlink="http://www.w3.org/1999/xlink">
    <!-- Generator: Sketch 54.1 (76490) - https://sketchapp.com -->
    <title>Group 6</title>
    <desc>Created with Sketch.</desc>
    <defs>
        <polygon id="path-1" points="0.0003 0.983 34.3913 0.983 34.3913 42.9999 0.0003 42.9999"></polygon>
    </defs>
    <g id="Page-1" stroke="none" stroke-width="1" fill="none" fill-rule="evenodd">
        <g id="Enterprise-Wireframe" transform="translate(-397.000000, -1245.000000)">
            <g id="3-features" transform="translate(395.000000, 921.000000)">
                <g id="Group-6" transform="translate(2.000000, 323.000000)">
                    <g id="Group-3" transform="translate(0.000000, 0.017200)">
                        <mask id="mask-2" fill="white">
                            <use xlink:href="#path-1"></use>
                        </mask>
                        <g id="Clip-2"></g>
                        <path d="M17.1963,0.9829 L16.8463,0.9829 L16.4753,1.0719 L2.4193,4.5859 C0.9953,4.9419 0.0003,6.2159 0.0003,7.6839 L0.0003,22.0909 C0.0003,32.9129 11.9673,40.5149 15.6343,42.5869 C16.1123,42.8579 16.6513,42.9999 17.1943,42.9999 C17.7393,42.9999 18.2803,42.8569 18.7583,42.5859 C22.4253,40.5089 34.3913,32.8909 34.3913,22.0909 L34.3913,7.6839 C34.3913,6.2159 33.3973,4.9419 31.9723,4.5859 L17.9153,1.0709 L17.5773,0.9869 L17.1963,0.9829 Z M17.1963,3.8179 C17.2063,3.8179 17.2173,3.8189 17.2273,3.8219 L31.2853,7.3369 C31.4443,7.3759 31.5563,7.5199 31.5563,7.6839 L31.5563,22.0909 C31.5563,31.4109 20.5133,38.3339 17.3603,40.1189 C17.3063,40.1499 17.2513,40.1649 17.1943,40.1649 C17.1383,40.1649 17.0833,40.1499 17.0283,40.1199 C13.8743,38.3369 2.8353,31.4309 2.8353,22.0909 L2.8353,7.6839 C2.8353,7.5199 2.9463,7.3759 3.1063,7.3369 L17.1643,3.8219 C17.1753,3.8189 17.1853,3.8179 17.1963,3.8179 L17.1963,3.8179 Z" id="Fill-1" fill="#020203" mask="url(#mask-2)"></path>
                    </g>
                    <path d="M20.5215,26.3243 L13.8325,26.3243 L14.2725,21.0453 L17.9595,21.0453 C18.5955,21.0453 19.1115,20.5303 19.1115,19.8943 C19.1115,19.2583 18.5955,18.7423 17.9595,18.7423 L14.2725,18.7423 L14.2725,15.5593 C14.2725,14.7493 14.5265,14.1063 15.0355,13.6323 C15.5435,13.1573 16.2125,12.9203 17.0415,12.9203 C17.8335,12.9203 18.4945,13.1663 19.0205,13.6573 C19.4155,14.0273 19.6625,14.4763 19.7605,15.0063 L19.7605,15.0053 C19.8795,15.5833 20.3915,16.0183 21.0045,16.0183 C21.7045,16.0183 22.2705,15.4523 22.2745,14.7543 C22.1225,13.5803 21.6925,12.6343 20.9605,11.9373 C20.0385,11.0573 18.7925,10.6173 17.2215,10.6173 L16.9895,10.6173 C15.4185,10.6173 14.1515,11.0743 13.1855,11.9893 C12.2185,12.9033 11.7365,14.1453 11.7365,15.7153 L11.7365,18.7423 L9.6265,18.7423 C8.9915,18.7423 8.4755,19.2583 8.4755,19.8943 C8.4755,20.5303 8.9915,21.0453 9.6265,21.0453 L11.7365,21.0453 L11.7365,26.3243 L10.5585,26.3243 C9.9225,26.3243 9.4075,26.8403 9.4075,27.4753 C9.4075,28.1123 9.9225,28.6273 10.5585,28.6273 L20.5215,28.6273 C21.1575,28.6273 21.6725,28.1123 21.6725,27.4753 C21.6725,26.8403 21.1575,26.3243 20.5215,26.3243" id="Fill-4" fill="#FED900"></path>
                </g>
            </g>
        </g>
    </g>
</svg>