<svg xmlns="http://www.w3.org/2000/svg" viewBox="0 0 421.06034 249.12325">
  <defs>
    <style>
      .cls-1, .cls-3, .cls-4 {
        fill: none;
      }

      .cls-1, .cls-3, .cls-4, .cls-5, .cls-7 {
        stroke: #010101;
        stroke-miterlimit: 10;
      }

      .cls-1 {
        stroke-width: 13.31097px;
      }

      .cls-2 {
        fill: #010101;
      }

      .cls-3, .cls-7 {
        stroke-width: 6.65548px;
      }

      .cls-4 {
        stroke-width: 4.00422px;
      }

      .cls-5, .cls-7 {
        fill: #fff;
      }

      .cls-5 {
        stroke-linecap: round;
        stroke-width: 3.33273px;
      }

      .cls-6 {
        font-size: 49.5455px;
        fill: #1e1e1c;
        font-family: ITCAvantGardePro-Demi, ITC Avant Garde Gothic Pro;
      }
    </style>
  </defs>
  <title>Asset 2</title>
  <g id="Layer_2" data-name="Layer 2">
    <g id="Layer_1-2" data-name="Layer 1">
      <g>
        <line class="cls-1" x1="262.37231" y1="68.02335" x2="335.55865" y2="70.81457"/>
        <path class="cls-1" d="M336.939,52.51114l-.36859,9.6646a22.6783,22.6783,0,0,0,45.32365,1.72858l.36859-9.66461"/>
        <line class="cls-1" x1="302.60933" y1="48.20253" x2="420.8067" y2="52.7104"/>
        <polygon class="cls-2" points="264.959 140.853 255.145 91.966 267.875 89.405 278.306 141.362 264.959 140.853"/>
        <circle class="cls-1" cx="359.88002" cy="46.05453" r="4.46722"/>
        <path class="cls-1" d="M208.8526,88.677l-52.65541-2.0082,1.11849-29.32707a52.6937,52.6937,0,0,1,105.31083,4.0164L261.508,90.68518Z"/>
        <line class="cls-1" x1="157.06147" y1="64.00696" x2="83.87513" y2="61.21574"/>
        <path class="cls-1" d="M83.8929,42.86034l-.36859,9.6646a22.6783,22.6783,0,1,1-45.32365-1.72858l.36859-9.6646"/>
        <line class="cls-1" x1="118.45101" y1="41.179" x2="0.25365" y2="36.67113"/>
        <polygon class="cls-2" points="148.935 136.428 162.444 88.43 149.946 84.908 135.588 135.919 148.935 136.428"/>
        <circle class="cls-1" cx="61.51029" cy="34.67515" r="4.46722"/>
        <circle class="cls-2" cx="210.41595" cy="47.68574" r="6.29715"/>
        <path class="cls-3" d="M173.38506,160.385v73.06569a12.34483,12.34483,0,0,0,12.34482,12.34482H231.8593a12.34482,12.34482,0,0,0,12.34482-12.34482V160.25458a12.34481,12.34481,0,0,0-3.61571-8.7291l-22.5839-22.5839a12.34482,12.34482,0,0,0-17.3-.15541L177.159,151.50048A12.34478,12.34478,0,0,0,173.38506,160.385Z"/>
        <circle class="cls-4" cx="208.79459" cy="141.63293" r="6.54815"/>
        <line class="cls-5" x1="208.79459" y1="139.38606" x2="208.79459" y2="88.67698"/>
        <text class="cls-6" transform="translate(195.12457 216.84263)">£</text>
        <line class="cls-7" x1="173.38506" y1="225.49147" x2="244.20412" y2="171.62072"/>
      </g>
    </g>
  </g>
</svg>
