<?xml version="1.0" encoding="UTF-8"?>
<svg width="34px" height="34px" viewBox="0 0 34 34" version="1.1" xmlns="http://www.w3.org/2000/svg" xmlns:xlink="http://www.w3.org/1999/xlink">
    <!-- Generator: Sketch 50.2 (55047) - http://www.bohemiancoding.com/sketch -->
    <title>price-icon</title>
    <desc>Created with Sketch.</desc>
    <defs></defs>
    <g id="Page-1" stroke="none" stroke-width="1" fill="none" fill-rule="evenodd">
        <g id="Home" transform="translate(-450.000000, -995.000000)">
            <g id="Group-13" transform="translate(50.000000, 780.000000)">
                <g id="Group-12" transform="translate(0.000000, 216.000000)">
                    <g id="price-icon" transform="translate(401.000000, 0.000000)">
                        <circle id="Oval-4" stroke="#000000" stroke-width="2" cx="16" cy="16" r="16"></circle>
                        <path d="M17.49056,7.89504 C18.8106733,7.89504 19.8587695,8.2649563 20.63488,9.0048 C21.4109905,9.7446437 21.79904,10.8036198 21.79904,12.18176 L21.79904,12.3776 L19.66656,12.3776 L19.66656,12.0512 C19.66656,11.3983967 19.4453355,10.8652821 19.00288,10.45184 C18.5604245,10.0383979 18.00555,9.83168 17.33824,9.83168 C16.6419165,9.83168 16.0797888,10.0311447 15.65184,10.43008 C15.2238912,10.8290153 15.00992,11.3693833 15.00992,12.0512 L15.00992,14.72768 L19.07904,14.72768 L19.07904,16.66432 L15.00992,16.66432 L14.64,21.10336 L21.23328,21.10336 L21.23328,23.04 L10.91904,23.04 L10.91904,21.10336 L12.87744,21.10336 L12.87744,16.66432 L10.13568,16.66432 L10.13568,14.72768 L12.87744,14.72768 L12.87744,12.18176 C12.87744,10.8616467 13.2836226,9.81717718 14.096,9.04832 C14.9083774,8.27946282 15.9746067,7.89504 17.29472,7.89504 L17.49056,7.89504 Z" id="£" fill="#000000"></path>
                    </g>
                </g>
            </g>
        </g>
    </g>
</svg>