<svg xmlns="http://www.w3.org/2000/svg" width="68" height="32" viewBox="0 0 68 32" xmlns:xlink="http://www.w3.org/1999/xlink">
  <defs>
    <rect id="a" width="67.76" height="25.46" rx="12.73"/>
  </defs>
  <g fill="none" fill-rule="evenodd" transform="translate(0 5)">
    <mask id="b" fill="white">
      <use xlink:href="#a"/>
    </mask>
    <path fill="#FF2A5D" fill-rule="nonzero" d="M62.8381003,2.03010606 L51.7930717,2.03010606 L51.7930717,0.957347641 C51.7930717,0.434598775 51.3739847,0.0107960965 50.8570524,0.0107960965 C50.3401201,0.0107960965 49.921033,0.434598775 49.921033,0.957347641 L49.921033,2.03010606 L38.8760044,2.03010606 C38.3590722,2.03010606 37.9399851,2.45390874 37.9399851,2.9766576 C37.9399851,3.49940647 38.3590722,3.92320915 38.8760044,3.92320915 L49.921033,3.92320915 L49.921033,5.21481028 C48.761617,5.61084745 47.9241917,6.72045827 47.9241917,8.02493251 L47.9241917,9.09769092 L42.6532794,9.09769092 C42.2616489,7.92522908 41.1643846,7.07838096 39.8744251,7.07838096 L23.8996945,7.07838096 C22.6097351,7.07838096 21.5124708,7.92522908 21.1208402,9.09769092 L15.849928,9.09769092 L15.849928,8.02493251 C15.849928,6.72058448 15.0125026,5.61097365 13.8530867,5.21481028 L13.8530867,3.92320915 L24.8981152,3.92320915 C25.4150475,3.92320915 25.8341346,3.49940647 25.8341346,2.9766576 C25.8341346,2.45390874 25.4150475,2.03010606 24.8981152,2.03010606 L13.8530867,2.03010606 L13.8530867,0.957347641 C13.8530867,0.434598775 13.4339996,0.0107960965 12.9170673,0.0107960965 C12.400135,0.0107960965 11.9810479,0.434598775 11.9810479,0.957347641 L11.9810479,2.03010606 L0.936019369,2.03010606 C0.419087072,2.03010606 0,2.45390874 0,2.9766576 C0,3.49940647 0.419087072,3.92320915 0.936019369,3.92320915 L11.9810479,3.92320915 L11.9810479,5.21481028 C10.8216319,5.61084745 9.9842066,6.72045827 9.9842066,8.02493251 L9.9842066,12.0635524 C9.9842066,13.6989411 11.2998754,15.0294139 12.9170673,15.0294139 C14.5342592,15.0294139 15.849928,13.6989411 15.849928,12.0635524 L15.849928,10.990794 L21.1208402,10.990794 C21.5124708,12.1632559 22.6097351,13.010104 23.8996945,13.010104 L24.9605165,13.010104 L24.9605165,16.1760034 C23.272936,16.2961523 21.8415752,17.4957486 21.4259826,19.1765718 L19.175168,28.2811356 L17.9091706,28.2811356 C17.3922383,28.2811356 16.9731512,28.7049382 16.9731512,29.2276871 C16.9731512,29.750436 17.3922383,30.1742386 17.9091706,30.1742386 L19.9032663,30.1742386 C19.9043895,30.1742386 19.9056375,30.1744911 19.9067607,30.1744911 C19.9076343,30.1744911 19.9083832,30.1742386 19.9092568,30.1742386 L21.9028532,30.1742386 C22.4197855,30.1742386 22.8388726,29.750436 22.8388726,29.2276871 C22.8388726,28.7049382 22.4197855,28.2811356 21.9028532,28.2811356 L21.1048655,28.2811356 L23.2421097,19.6357124 C23.4616375,18.7477208 24.2225588,18.1174437 25.1163949,18.0636796 C25.5095231,19.2334911 26.6054145,20.0776888 27.8933772,20.0776888 L35.8807425,20.0776888 C37.1687051,20.0776888 38.2645966,19.2334911 38.6577247,18.0636796 C39.551436,18.1174437 40.3124822,18.7477208 40.5320099,19.6357124 L42.6692541,28.2811356 L41.8712664,28.2811356 C41.3543341,28.2811356 40.9352471,28.7049382 40.9352471,29.2276871 C40.9352471,29.750436 41.3543341,30.1742386 41.8712664,30.1742386 L43.8648629,30.1742386 C43.8657365,30.1742386 43.8664853,30.1744911 43.8673589,30.1744911 C43.8684822,30.1744911 43.8697302,30.1742386 43.8708534,30.1742386 L45.8649491,30.1742386 C46.3818814,30.1742386 46.8009684,29.750436 46.8009684,29.2276871 C46.8009684,28.7049382 46.3818814,28.2811356 45.8649491,28.2811356 L44.5989517,28.2811356 L42.3481371,19.1765718 C41.9326693,17.4956224 40.5011837,16.2961523 38.8136032,16.1760034 L38.8136032,13.010104 L39.8744251,13.010104 C41.1643846,13.010104 42.2616489,12.1632559 42.6532794,10.990794 L47.9241917,10.990794 L47.9241917,12.0635524 C47.9241917,13.6989411 49.2398605,15.0294139 50.8570524,15.0294139 C52.4742442,15.0294139 53.7899131,13.6989411 53.7899131,12.0635524 L53.7899131,8.02493251 C53.7899131,6.72058448 52.9524877,5.61097365 51.7930717,5.21481028 L51.7930717,3.92320915 L62.8381003,3.92320915 C63.3550326,3.92320915 63.7741197,3.49940647 63.7741197,2.9766576 C63.7741197,2.45390874 63.3550326,2.03010606 62.8381003,2.03010606 Z M13.9778892,12.0635524 C13.9778892,12.655084 13.502017,13.1363108 12.9170673,13.1363108 C12.3321176,13.1363108 11.8562453,12.655084 11.8562453,12.0635524 L11.8562453,8.02493251 C11.8562453,7.43340089 12.3321176,6.95217409 12.9170673,6.95217409 C13.502017,6.95217409 13.9778892,7.43340089 13.9778892,8.02493251 L13.9778892,12.0635524 Z M39.8744251,11.1170009 L37.8775838,11.1170009 L35.8807425,11.1170009 C35.3638102,11.1170009 34.9447231,11.5408036 34.9447231,12.0635524 C34.9447231,12.5863013 35.3638102,13.010104 35.8807425,13.010104 L36.9415644,13.010104 L36.9415644,17.1118273 C36.9415644,17.7033589 36.4656922,18.1845857 35.8807425,18.1845857 L27.8933772,18.1845857 C27.3084275,18.1845857 26.8325552,17.7033589 26.8325552,17.1118273 L26.8325552,13.010104 L31.8870598,13.010104 C32.4039921,13.010104 32.8230792,12.5863013 32.8230792,12.0635524 C32.8230792,11.5408036 32.4039921,11.1170009 31.8870598,11.1170009 L25.8965359,11.1170009 L23.8996945,11.1170009 C23.3147448,11.1170009 22.8388726,10.6357741 22.8388726,10.0442425 C22.8388726,9.45271086 23.3147448,8.97148405 23.8996945,8.97148405 L39.8744251,8.97148405 C40.4593748,8.97148405 40.9352471,9.45271086 40.9352471,10.0442425 C40.9352471,10.6357741 40.4593748,11.1170009 39.8744251,11.1170009 Z M51.9178743,12.0635524 C51.9178743,12.655084 51.4420021,13.1363108 50.8570524,13.1363108 C50.2721027,13.1363108 49.7962304,12.655084 49.7962304,12.0635524 L49.7962304,8.02493251 C49.7962304,7.43340089 50.2721027,6.95217409 50.8570524,6.95217409 C51.4420021,6.95217409 51.9178743,7.43340089 51.9178743,8.02493251 L51.9178743,12.0635524 Z" transform="translate(1.882 2.829)" mask="url(#b)"/>
    <rect width="7.558" height="1.856" x="19.758" y="25.46" fill="#FF2A5D" rx=".928"/>
    <rect width="7.558" height="1.856" x="40.444" y="25.46" fill="#FF2A5D" rx=".928"/>
  </g>
</svg>
