<?xml version="1.0" encoding="UTF-8"?>
<svg width="68px" height="26px" viewBox="0 0 68 26" version="1.1" xmlns="http://www.w3.org/2000/svg" xmlns:xlink="http://www.w3.org/1999/xlink">
    <!-- Generator: Sketch 50.2 (55047) - http://www.bohemiancoding.com/sketch -->
    <title>recreational-pilot</title>
    <desc>Created with Sketch.</desc>
    <defs>
        <rect id="path-1" x="0" y="0" width="72" height="32" rx="16"></rect>
    </defs>
    <g id="Page-1" stroke="none" stroke-width="1" fill="none" fill-rule="evenodd">
        <g id="Pricing" transform="translate(-870.000000, -2447.000000)">
            <g id="Group-18" transform="translate(50.000000, 2239.000000)">
                <g id="Group-14" transform="translate(0.000000, 172.000000)">
                    <g id="Group-34" transform="translate(800.000000, 0.000000)">
                        <g id="Group-17" transform="translate(18.000000, 30.000000)">
                            <g id="recreational-pilot">
                                <g id="Group-6">
                                    <mask id="mask-2" fill="white">
                                        <use xlink:href="#path-1"></use>
                                    </mask>
                                    <g id="Mask"></g>
                                    <g id="recreational-pilot" mask="url(#mask-2)" fill="#FF2A5D" fill-rule="nonzero">
                                        <g transform="translate(2.000000, 6.310345)" id="Drone">
                                            <path d="M66.7701163,2.37564056 L55.0339588,2.37564056 L55.0339588,1.12029314 C55.0339588,0.508569724 54.5886479,0.0126336477 54.0393692,0.0126336477 C53.4900905,0.0126336477 53.0447796,0.508569724 53.0447796,1.12029314 L53.0447796,2.37564056 L41.3086221,2.37564056 C40.7593434,2.37564056 40.3140325,2.87157664 40.3140325,3.48330006 C40.3140325,4.09502347 40.7593434,4.59095955 41.3086221,4.59095955 L53.0447796,4.59095955 L53.0447796,6.10239785 C51.8128146,6.56584258 50.9229884,7.86431488 50.9229884,9.39081734 L50.9229884,10.6461648 L45.3222553,10.6461648 C44.906119,9.27414388 43.7401948,8.28315785 42.3695177,8.28315785 L25.3951882,8.28315785 C24.0245111,8.28315785 22.8585869,9.27414388 22.4424506,10.6461648 L16.8417175,10.6461648 L16.8417175,9.39081734 C16.8417175,7.86446256 15.9518913,6.56599026 14.7199263,6.10239785 L14.7199263,4.59095955 L26.4560838,4.59095955 C27.0053625,4.59095955 27.4506734,4.09502347 27.4506734,3.48330006 C27.4506734,2.87157664 27.0053625,2.37564056 26.4560838,2.37564056 L14.7199263,2.37564056 L14.7199263,1.12029314 C14.7199263,0.508569724 14.2746154,0.0126336477 13.7253367,0.0126336477 C13.176058,0.0126336477 12.7307471,0.508569724 12.7307471,1.12029314 L12.7307471,2.37564056 L0.994589617,2.37564056 C0.445310924,2.37564056 0,2.87157664 0,3.48330006 C0,4.09502347 0.445310924,4.59095955 0.994589617,4.59095955 L12.7307471,4.59095955 L12.7307471,6.10239785 C11.4987821,6.56584258 10.6089559,7.86431488 10.6089559,9.39081734 L10.6089559,14.1168312 C10.6089559,16.0305714 12.0069511,17.5874976 13.7253367,17.5874976 C15.4437223,17.5874976 16.8417175,16.0305714 16.8417175,14.1168312 L16.8417175,12.8614838 L22.4424506,12.8614838 C22.8585869,14.2335046 24.0245111,15.2244907 25.3951882,15.2244907 L26.5223898,15.2244907 L26.5223898,18.9292424 C24.729211,19.0698414 23.2082846,20.4736152 22.7666868,22.440523 L20.3750303,33.0947305 L19.0298147,33.0947305 C18.480536,33.0947305 18.035225,33.5906665 18.035225,34.20239 C18.035225,34.8141134 18.480536,35.3100495 19.0298147,35.3100495 L21.1486884,35.3100495 C21.1498819,35.3100495 21.151208,35.3103448 21.1524015,35.3103448 C21.1533298,35.3103448 21.1541255,35.3100495 21.1550538,35.3100495 L23.273397,35.3100495 C23.8226757,35.3100495 24.2679866,34.8141134 24.2679866,34.20239 C24.2679866,33.5906665 23.8226757,33.0947305 23.273397,33.0947305 L22.4254762,33.0947305 L24.6964559,22.9778117 C24.9297203,21.9386794 25.7382553,21.2011259 26.6880221,21.1382109 C27.1057497,22.5071303 28.2702153,23.4950149 29.6387706,23.4950149 L38.1259353,23.4950149 C39.4944906,23.4950149 40.6589561,22.5071303 41.0766838,21.1382109 C42.0263179,21.2011259 42.8349856,21.9386794 43.06825,22.9778117 L45.3392297,33.0947305 L44.4913089,33.0947305 C43.9420302,33.0947305 43.4967192,33.5906665 43.4967192,34.20239 C43.4967192,34.8141134 43.9420302,35.3100495 44.4913089,35.3100495 L46.6096521,35.3100495 C46.6105804,35.3100495 46.6113761,35.3103448 46.6123044,35.3103448 C46.6134979,35.3103448 46.614824,35.3100495 46.6160175,35.3100495 L48.7348912,35.3100495 C49.2841699,35.3100495 49.7294808,34.8141134 49.7294808,34.20239 C49.7294808,33.5906665 49.2841699,33.0947305 48.7348912,33.0947305 L47.3896756,33.0947305 L44.9980191,22.440523 C44.5565539,20.4734675 43.0354949,19.0698414 41.2423161,18.9292424 L41.2423161,15.2244907 L42.3695177,15.2244907 C43.7401948,15.2244907 44.906119,14.2335046 45.3222553,12.8614838 L50.9229884,12.8614838 L50.9229884,14.1168312 C50.9229884,16.0305714 52.3209835,17.5874976 54.0393692,17.5874976 C55.7577548,17.5874976 57.15575,16.0305714 57.15575,14.1168312 L57.15575,9.39081734 C57.15575,7.86446256 56.2659238,6.56599026 55.0339588,6.10239785 L55.0339588,4.59095955 L66.7701163,4.59095955 C67.319395,4.59095955 67.7647059,4.09502347 67.7647059,3.48330006 C67.7647059,2.87157664 67.319395,2.37564056 66.7701163,2.37564056 Z M14.8525383,14.1168312 C14.8525383,14.8090445 14.3468889,15.3721786 13.7253367,15.3721786 C13.1037845,15.3721786 12.5981351,14.8090445 12.5981351,14.1168312 L12.5981351,9.39081734 C12.5981351,8.69860401 13.1037845,8.13546992 13.7253367,8.13546992 C14.3468889,8.13546992 14.8525383,8.69860401 14.8525383,9.39081734 L14.8525383,14.1168312 Z M42.3695177,13.0091717 L40.2477265,13.0091717 L38.1259353,13.0091717 C37.5766566,13.0091717 37.1313457,13.5051078 37.1313457,14.1168312 C37.1313457,14.7285546 37.5766566,15.2244907 38.1259353,15.2244907 L39.2531369,15.2244907 L39.2531369,20.0243485 C39.2531369,20.7165618 38.7474875,21.2796959 38.1259353,21.2796959 L29.6387706,21.2796959 C29.0172184,21.2796959 28.511569,20.7165618 28.511569,20.0243485 L28.511569,15.2244907 L33.8823529,15.2244907 C34.4316316,15.2244907 34.8769426,14.7285546 34.8769426,14.1168312 C34.8769426,13.5051078 34.4316316,13.0091717 33.8823529,13.0091717 L27.5169794,13.0091717 L25.3951882,13.0091717 C24.773636,13.0091717 24.2679866,12.4460376 24.2679866,11.7538243 C24.2679866,11.0616109 24.773636,10.4984768 25.3951882,10.4984768 L42.3695177,10.4984768 C42.9910699,10.4984768 43.4967192,11.0616109 43.4967192,11.7538243 C43.4967192,12.4460376 42.9910699,13.0091717 42.3695177,13.0091717 Z M55.1665707,14.1168312 C55.1665707,14.8090445 54.6609214,15.3721786 54.0393692,15.3721786 C53.417817,15.3721786 52.9121676,14.8090445 52.9121676,14.1168312 L52.9121676,9.39081734 C52.9121676,8.69860401 53.417817,8.13546992 54.0393692,8.13546992 C54.6609214,8.13546992 55.1665707,8.69860401 55.1665707,9.39081734 L55.1665707,14.1168312 Z"></path>
                                        </g>
                                    </g>
                                    <rect id="Path" fill="#FF2A5D" mask="url(#mask-2)" x="21" y="30" width="8" height="2" rx="1"></rect>
                                    <rect id="Path" fill="#FF2A5D" mask="url(#mask-2)" x="43" y="30" width="8" height="2" rx="1"></rect>
                                </g>
                            </g>
                        </g>
                    </g>
                </g>
            </g>
        </g>
    </g>
</svg>