<?xml version="1.0" encoding="UTF-8"?>
<svg width="132px" height="50px" viewBox="0 0 132 50" version="1.1" xmlns="http://www.w3.org/2000/svg" xmlns:xlink="http://www.w3.org/1999/xlink">
    <!-- Generator: Sketch 50.2 (55047) - http://www.bohemiancoding.com/sketch -->
    <title>the-aerial-academy</title>
    <desc>Created with Sketch.</desc>
    <defs>
        <polygon id="path-1" points="0.013769876 0.0846336207 37.3751156 0.0846336207 37.3751156 33.7354741 0.013769876 33.7354741"></polygon>
        <polygon id="path-3" points="0.197281633 0.039905303 20.5000449 0.039905303 20.5000449 11.1224432 0.197281633 11.1224432"></polygon>
    </defs>
    <g id="Page-1" stroke="none" stroke-width="1" fill="none" fill-rule="evenodd">
        <g id="Segment--Trainees-Copy" transform="translate(-874.000000, -1519.000000)">
            <g id="Logo-Grid" transform="translate(250.000000, 1503.000000)">
                <g id="Logos" transform="translate(2.183673, 0.000000)">
                    <g id="the-aerial-academy" transform="translate(622.000000, 16.000000)">
                        <path d="M30.7345613,5.4386568 C30.4973524,5.39713874 30.2569003,5.35939504 30.0132051,5.32542572 C29.7704366,5.29190044 29.5246566,5.2619275 29.2758651,5.23617298 C29.0277686,5.21041846 28.7768923,5.18843831 28.5232362,5.17045455 L22.5114711,9.86310598 L14.8427179,7.78409443 C14.6138483,7.89466126 14.3900749,8.0074483 14.1713979,8.1228996 C13.9520259,8.23879495 13.7377502,8.35735456 13.5290341,8.47813438 C13.3196231,8.59935825 13.11554,8.72324638 12.9170164,8.84957675 C12.7180296,8.97635116 12.5243707,9.10578983 12.3367347,9.23744872 L23.0326822,12.3295455 L31.4387755,5.57542219 C31.2073578,5.52591135 30.9726969,5.48039689 30.7345613,5.4386568" id="Fill-1" fill="#C4C4C4"></path>
                        <path d="M22.9847942,13.125 L22.9871082,13.136206 L22.9847942,13.1336379 L12.3367347,22.0962989 C12.5838635,22.2029889 12.8393225,22.3029086 13.1024176,22.3962916 C13.3666696,22.4901414 13.6385576,22.577221 13.917156,22.6577638 C14.1969114,22.7387735 14.4831458,22.8132464 14.7753965,22.8814159 C15.0685727,22.9498189 15.3675338,23.0121521 15.6711228,23.0681818 L23.5926664,16.044851 L33.5944424,19.3809565 C33.8547607,19.2058635 34.1048976,19.0282024 34.3448533,18.8477399 C34.5838833,18.6682112 34.8125006,18.485881 35.031168,18.3016832 C35.2489098,18.1179523 35.4564702,17.9321202 35.6540807,17.744187 C35.8507657,17.5574212 36.0375007,17.3685542 36.2142857,17.1778195 L22.9847942,13.125" id="Fill-2" fill="#C4C4C4"></path>
                        <path d="M15.1397699,6.40985759 C15.6075274,6.22166187 16.0816028,6.04405215 16.5617621,5.87702844 C17.0402834,5.71071047 17.5251226,5.55450802 18.0158117,5.40889158 C18.5053308,5.26351038 19.0009338,5.12847994 19.5019188,5.00380028 C20.0026697,4.87912061 20.5092705,4.76455646 21.0212532,4.66057832 C21.8088829,4.50108244 22.5944067,4.36981593 23.3738466,4.26630828 C24.1551584,4.16256538 24.9322583,4.0868166 25.7011684,4.03882669 C26.4735883,3.99083678 27.2394565,3.97084099 27.9947948,3.97907455 C28.755515,3.98754336 29.5068753,4.02471201 30.244898,4.09128625 L30.2123725,4.11763365 L28.4433646,5.55450802 C27.8864547,5.51310496 27.3164411,5.4916977 26.7358976,5.49075672 C26.1581621,5.48981574 25.5696627,5.50887056 24.9727396,5.54886215 C24.3776884,5.58885374 23.7737453,5.64931162 23.1630164,5.731412 C22.5536914,5.81327714 21.9366446,5.91678479 21.3146839,6.04264068 C20.8862377,6.12921072 20.4627053,6.22519054 20.0440869,6.33010965 C19.6254685,6.43479353 19.21153,6.54888718 18.8027394,6.6716849 C18.3934809,6.79471785 17.9891362,6.9266901 17.5901734,7.0678369 C17.1905087,7.20921894 16.7957578,7.35954027 16.4066229,7.51880091 C16.2475058,7.58396368 16.0904946,7.65030267 15.9353554,7.7173474 C15.7802163,7.78486261 15.626949,7.85308356 15.4757878,7.92248074 C15.3241585,7.99187791 15.1744012,8.06245131 15.0265159,8.13396569 C14.8783966,8.20571531 14.7321493,8.2784059 14.5875399,8.35227273 L12.3367347,7.71287775 C12.5576267,7.59572591 12.7817946,7.48045603 13.0092385,7.36730335 C13.2357464,7.25438591 13.4657642,7.14335043 13.699292,7.03443216 C13.9323518,6.92598437 14.1689215,6.81965379 14.4090011,6.71520516 C14.6488468,6.61122702 14.8922024,6.50936608 15.1397699,6.40985759" id="Fill-3" fill="#C4C4C4"></path>
                        <path d="M16.0236066,22.6406029 C16.7079253,22.7652616 17.4195799,22.8566475 18.154206,22.9131655 C18.8936561,22.9699113 19.6549291,22.9915614 20.4329711,22.9765203 C21.2144589,22.9614792 22.0111079,22.909747 22.8178642,22.8201843 C23.6262286,22.7303936 24.4428627,22.6030003 25.2620236,22.4373205 C25.840444,22.3208661 26.4108244,22.1877754 26.9720163,22.0385041 C27.5322893,21.8894607 28.0822251,21.7242368 28.620905,21.5437439 C29.1582066,21.3634789 29.6831036,21.1679449 30.1944474,20.9575977 C30.7041833,20.7481622 31.1994472,20.5241413 31.6793202,20.2864467 C31.8686047,20.1927818 32.0544435,20.0970659 32.2368366,19.9997547 C32.419,19.9028993 32.5977177,19.8042207 32.7727599,19.7039469 C32.9475724,19.6041288 33.1187095,19.5029434 33.2866306,19.4006185 C33.4538626,19.2982936 33.6176488,19.1950571 33.7777596,19.0909091 L37.4081633,20.2823446 C37.167193,20.4653444 36.9170343,20.646293 36.6581463,20.8242791 C36.3981098,21.0034046 36.1291145,21.1795675 35.8516197,21.3527678 C35.5729763,21.5264239 35.2858335,21.6971173 34.9899616,21.8643923 C34.6934005,22.0321231 34.3883401,22.1962075 34.0752396,22.3564178 C33.4651186,22.668634 32.8343233,22.9623908 32.1842321,23.2374602 C31.5313842,23.5134411 30.8601593,23.770051 30.1719354,24.0061503 C29.4816442,24.2431612 28.775273,24.4592057 28.0546594,24.6536002 C27.3328973,24.8484505 26.5978118,25.021195 25.8512406,25.1716058 C24.7063449,25.4029193 23.5644355,25.5749801 22.4351603,25.6884718 C21.3097903,25.8015078 20.2009598,25.8557468 19.1187761,25.8521005 C18.0437135,25.8486821 16.9985138,25.7878341 15.991906,25.6713797 C14.9949463,25.5560648 14.0391054,25.3865108 13.1326531,25.1643131 L16.0236066,22.6406029" id="Fill-4" fill="#C4C4C4"></path>
                        <path d="M10.5785795,9.14772727 C10.7761547,9.01203491 10.9782912,8.87826045 11.1845088,8.74640391 C11.3902463,8.61526659 11.5995847,8.48580744 11.8134845,8.35826621 C12.0261839,8.23120445 12.2429645,8.10582087 12.4633461,7.98283468 C12.6830074,7.86008822 12.9062698,7.73925969 13.1326531,7.6205888 L7.27309599,5.96590909 C6.52936821,6.45641542 5.8353343,6.96945723 5.17346939,7.49544496 L10.5785795,9.14772727" id="Fill-5" fill="#C4C4C4"></path>
                        <g id="Group-9">
                            <mask id="mask-2" fill="white">
                                <use xlink:href="#path-1"></use>
                            </mask>
                            <g id="Clip-7"></g>
                            <path d="M30.2168455,3.9173942 L30.1971087,3.94467281 C30.4295901,3.96612265 30.6606945,3.99060345 30.8899629,4.0181152 C31.1203789,4.04539381 31.3489588,4.07570337 31.5763913,4.10881074 C31.8045122,4.1423844 32.0310267,4.17875588 32.2563936,4.21839146 C32.4824491,4.25802704 32.7073571,4.30092672 32.9308881,4.34732367 L33.0031799,4.361779 L37.3751156,0.640697492 C36.6072155,0.426665361 35.8159066,0.237114028 34.991091,0.0846336207 L34.9054883,0.102119906 L30.2168455,3.9173942" id="Fill-6" fill="#C4C4C4" mask="url(#mask-2)"></path>
                            <path d="M11.9504164,25.1870121 C11.6674455,25.1019122 11.389753,25.011683 11.1180274,24.915625 C10.8476789,24.8202665 10.5828382,24.7195455 10.3241941,24.6132288 C10.0669269,24.5076117 9.81562664,24.3966321 9.57075235,24.2805231 L0,32.4258679 C1.1002131,32.9231779 2.28075047,33.35404 3.51613785,33.7354741 L12.8197546,25.4271571 C12.5243908,25.352549 12.2347644,25.2725784 11.9504164,25.1870121" id="Fill-8" fill="#C4C4C4" mask="url(#mask-2)"></path>
                        </g>
                        <path d="M38.9949659,18.4612309 C38.8009825,18.6488437 38.5985751,18.8349041 38.3872759,19.0194122 C38.1750407,19.2048073 37.9541476,19.3888719 37.7252987,19.5711623 C37.4950457,19.7543398 37.2566028,19.935965 37.0102041,20.115816 L48.9674464,23.8636364 C49.9649752,23.0728241 50.9044728,22.2627183 51.7346939,21.4231178 L39.5457946,17.8977273 C39.3714669,18.0868924 39.1877794,18.2749487 38.9949659,18.4612309" id="Fill-10" fill="#C4C4C4"></path>
                        <g id="Group-14" transform="translate(56.908163, 38.579545)">
                            <mask id="mask-4" fill="white">
                                <use xlink:href="#path-3"></use>
                            </mask>
                            <g id="Clip-12"></g>
                            <path d="M7.06649932,6.42173769 L5.3346517,2.49825758 L3.72834694,6.42173769 L7.06649932,6.42173769 Z M4.80856735,0.118091856 L5.88855782,0.118091856 L10.7021837,11.0120076 L9.12898912,11.0120076 L7.69858231,7.80148674 L3.11810748,7.80148674 L1.77668435,11.0120076 L0.197281633,11.0120076 L4.80856735,0.118091856 Z" id="Fill-11" fill="#C4C4C4" mask="url(#mask-4)"></path>
                            <path d="M20.5000449,8.49936553 L20.5000449,10.2057812 C19.3729184,10.8254735 18.0715034,11.1363636 16.5962599,11.1363636 C15.3973946,11.1363636 14.3804054,10.8932197 13.5452925,10.4073958 C12.7101796,9.92133996 12.0493551,9.25223011 11.562819,8.39913826 C11.0760531,7.54581439 10.832785,6.62335227 10.832785,5.63082386 C10.832785,4.05410038 11.3899102,2.7286411 12.5041605,1.65305398 C13.618181,0.577698864 14.9927143,0.039905303 16.6270707,0.039905303 C17.7539673,0.039905303 19.0066367,0.337107008 20.384619,0.932206439 L20.384619,2.59871686 C19.1294204,1.87531723 17.9025034,1.51361742 16.7036381,1.51361742 C15.4744218,1.51361742 14.4535238,1.9047822 13.6414041,2.68803977 C12.8295143,3.47106534 12.4232245,4.45245739 12.4232245,5.63082386 C12.4232245,6.8200947 12.8230762,7.79684659 13.6220898,8.56154356 C14.4215633,9.32716856 15.4436109,9.70951705 16.6882327,9.70951705 C17.9896476,9.70951705 19.2600218,9.30628788 20.5000449,8.49936553" id="Fill-13" fill="#C4C4C4" mask="url(#mask-4)"></path>
                        </g>
                        <path d="M85.5618429,45.1910679 L83.8560373,41.3235121 L82.2738867,45.1910679 L85.5618429,45.1910679 Z M83.3378637,38.9772727 L84.4016143,38.9772727 L89.1428571,49.7159091 L87.5933189,49.7159091 L86.1841948,46.5511503 L81.6728235,46.5511503 L80.3515715,49.7159091 L78.7959184,49.7159091 L83.3378637,38.9772727 Z" id="Fill-15" fill="#C4C4C4"></path>
                        <path d="M93.8236999,40.3478734 L91.886394,40.3478734 L91.886394,48.3453085 L93.8700692,48.3453085 C94.644667,48.3453085 95.2465394,48.2932574 95.6752229,48.1870825 C96.10437,48.0827501 96.4618767,47.9491678 96.7489021,47.7870265 C97.0354639,47.6258065 97.2972181,47.4272755 97.5348604,47.1907427 C98.2994888,46.4212625 98.6820349,45.448645 98.6820349,44.2733509 C98.6820349,43.1187852 98.2892876,42.1770298 97.5042567,41.4485456 C97.2149128,41.1765443 96.8829092,40.9536001 96.5084777,40.7787915 C96.1338144,40.6049042 95.7788581,40.4892864 95.4429131,40.4323987 C95.1071999,40.376202 94.5674622,40.3478734 93.8236999,40.3478734 Z M90.3367347,49.7159091 L90.3367347,38.9772727 L93.9864559,38.9772727 C95.4584468,38.9772727 96.6234734,39.1972229 97.4808402,39.6359717 C98.3382071,40.0742599 99.0200665,40.7202916 99.5264183,41.5719941 C100.032538,42.4236965 100.285714,43.3520936 100.285714,44.3581066 C100.285714,45.0769177 100.146375,45.7641757 99.8674639,46.4212625 C99.5883212,47.0776583 99.1907052,47.6550564 98.6741521,48.1532263 C98.1471659,48.6663666 97.5348604,49.0530644 96.8374673,49.3149318 C96.42965,49.4745397 96.0549868,49.5807146 95.714173,49.6343778 C95.3731274,49.6882714 94.7223354,49.7159091 93.7615652,49.7159091 L90.3367347,49.7159091 Z" id="Fill-16" fill="#C4C4C4"></path>
                        <polyline id="Fill-17" fill="#C4C4C4" points="102.27551 38.9772727 108.105266 38.9772727 108.105266 40.3478734 103.747595 40.3478734 103.747595 43.6266283 107.957925 43.6266283 107.957925 45.0048293 103.747595 45.0048293 103.747595 48.3453085 108.244898 48.3453085 108.244898 49.7159091 102.27551 49.7159091 102.27551 38.9772727"></polyline>
                        <polyline id="Fill-18" fill="#C4C4C4" points="118.754486 38.9772727 120.183673 38.9772727 120.183673 49.7159091 118.647715 49.7159091 118.647715 41.3606976 115.365912 45.5113941 115.083321 45.5113941 111.762879 41.3606976 111.762879 49.7159091 110.234694 49.7159091 110.234694 38.9772727 111.681714 38.9772727 115.228503 43.3878621 118.754486 38.9772727"></polyline>
                        <polyline id="Fill-19" fill="#C4C4C4" points="129.053992 38.9772727 130.928571 38.9772727 126.944686 44.0355244 126.944686 49.7159091 125.361667 49.7159091 125.361667 44.0355244 121.377551 38.9772727 123.241734 38.9772727 126.128457 42.6794815 129.053992 38.9772727"></polyline>
                        <path d="M63.6740878,28.0887951 L61.9682822,24.2212394 L60.3861316,28.0887951 L63.6740878,28.0887951 Z M61.4498821,21.875 L62.5138592,21.875 L67.255102,32.6136364 L65.7055638,32.6136364 L64.2964397,29.4488776 L59.7850684,29.4488776 L58.4638163,32.6136364 L56.9081633,32.6136364 L61.4498821,21.875 Z" id="Fill-20" fill="#C4C4C4"></path>
                        <polyline id="Fill-21" fill="#C4C4C4" points="69.244898 21.875 75.0746535 21.875 75.0746535 23.2456006 70.7169828 23.2456006 70.7169828 26.5243556 74.9273129 26.5243556 74.9273129 27.9025566 70.7169828 27.9025566 70.7169828 31.2430357 75.2142857 31.2430357 75.2142857 32.6136364 69.244898 32.6136364 69.244898 21.875"></polyline>
                        <path d="M78.823604,23.1820543 L78.3580671,23.1820543 L78.3580671,26.5721616 L78.9480568,26.5721616 C79.7340132,26.5721616 80.2733859,26.5052334 80.5657106,26.371607 C80.8578031,26.2389007 81.0858118,26.0376562 81.2485755,25.7683335 C81.4115715,25.4999309 81.4933017,25.1933493 81.4933017,24.8499687 C81.4933017,24.5118779 81.402284,24.2055263 81.2214095,23.9313738 C81.0403029,23.6574513 80.7855927,23.4640265 80.4572788,23.3510996 C80.1287328,23.2388627 79.5842519,23.1820543 78.823604,23.1820543 Z M76.8061224,32.6136364 L76.8061224,21.875 L79.5220255,21.875 C80.6186495,21.875 81.4891223,22.1443226 82.133444,22.6820479 C82.7773014,23.2206932 83.0993461,23.9479333 83.0993461,24.8656082 C83.0993461,25.4902711 82.9414583,26.0312164 82.626147,26.4870639 C82.3103713,26.9433714 81.8580691,27.2846821 81.2680793,27.5096159 C81.6145038,27.7354698 81.9537305,28.0427413 82.2845984,28.4321207 C82.6156985,28.8215001 83.0812355,29.5004415 83.6812093,30.468715 C84.058747,31.0791183 84.3617523,31.5372658 84.5892966,31.8452274 L85.1632653,32.6136364 L83.3164419,32.6136364 L82.8437071,31.9059457 C82.8281505,31.8808764 82.7975017,31.8364876 82.7508319,31.7748493 L82.4487553,31.3523509 L81.967894,30.5683023 L81.4489538,29.7295152 C81.1285343,29.2888473 80.8350487,28.9374169 80.5684969,28.676834 C80.3017129,28.4162511 80.0604695,28.2274263 79.8456956,28.1131194 C79.6309217,27.9976626 79.2696372,27.9401642 78.7623064,27.9401642 L78.3580671,27.9401642 L78.3580671,32.6136364 L76.8061224,32.6136364 Z" id="Fill-22" fill="#C4C4C4"></path>
                        <polygon id="Fill-23" fill="#C4C4C4" points="86.3571429 32.6136364 87.9489796 32.6136364 87.9489796 21.875 86.3571429 21.875"></polygon>
                        <path d="M95.9087817,28.0887951 L94.2029761,24.2212394 L92.6208255,28.0887951 L95.9087817,28.0887951 Z M93.684576,21.875 L94.748553,21.875 L99.4897959,32.6136364 L97.9402576,32.6136364 L96.5311335,29.4488776 L92.0197622,29.4488776 L90.6985102,32.6136364 L89.1428571,32.6136364 L93.684576,21.875 Z" id="Fill-24" fill="#C4C4C4"></path>
                        <polyline id="Fill-25" fill="#C4C4C4" points="101.081633 21.875 102.617738 21.875 102.617738 31.2150446 107.44898 31.2150446 107.44898 32.6136364 101.081633 32.6136364 101.081633 21.875"></polyline>
                        <polyline id="Fill-26" fill="#C4C4C4" points="64.0714286 9.14772727 64.0714286 9.6858581 61.0071535 9.6858581 61.0071535 17.5 60.369944 17.5 60.369944 9.6858581 57.3061224 9.6858581 57.3061224 9.14772727 64.0714286 9.14772727"></polyline>
                        <polyline id="Fill-27" fill="#C4C4C4" points="72.0306122 9.14772727 72.0306122 17.5 71.3887439 17.5 71.3887439 13.5420373 65.9012376 13.5420373 65.9012376 17.5 65.2653061 17.5 65.2653061 9.14772727 65.9012376 9.14772727 65.9012376 13.0039065 71.3887439 13.0039065 71.3887439 9.14772727 72.0306122 9.14772727"></polyline>
                        <polyline id="Fill-28" fill="#C4C4C4" points="78.6976039 9.14772727 78.6976039 9.6858581 74.6831379 9.6858581 74.6831379 13.0277873 78.5931002 13.0277873 78.5931002 13.5721782 74.6831379 13.5721782 74.6831379 16.962101 78.7959184 16.962101 78.7959184 17.5 74.0204082 17.5 74.0204082 9.14772727 78.6976039 9.14772727"></polyline>
                    </g>
                </g>
            </g>
        </g>
    </g>
</svg>