<?xml version="1.0" encoding="UTF-8"?>
<svg width="68px" height="32px" viewBox="0 0 68 32" version="1.1" xmlns="http://www.w3.org/2000/svg" xmlns:xlink="http://www.w3.org/1999/xlink">
    <!-- Generator: Sketch 50.2 (55047) - http://www.bohemiancoding.com/sketch -->
    <title>trainee-pilot</title>
    <desc>Created with Sketch.</desc>
    <defs></defs>
    <g id="Page-1" stroke="none" stroke-width="1" fill="none" fill-rule="evenodd">
        <g id="Pricing" transform="translate(-470.000000, -2441.000000)" fill="#5FD9EE">
            <g id="Group-18" transform="translate(50.000000, 2239.000000)">
                <g id="Group-14" transform="translate(0.000000, 172.000000)">
                    <g id="Group-33" transform="translate(400.000000, 0.000000)">
                        <g id="Group-23" transform="translate(20.000000, 30.000000)">
                            <g id="Drone-/-1-/-Blue">
                                <g id="Drone-/-1">
                                    <path d="M67.0019569,2.13333333 L55.2250489,2.13333333 L55.2250489,1 C55.2250489,0.447733333 54.7781918,0 54.2270059,0 C53.67582,0 53.2289628,0.447733333 53.2289628,1 L53.2289628,2.13333333 L41.4520548,2.13333333 C40.9008689,2.13333333 40.4540117,2.58106667 40.4540117,3.13333333 C40.4540117,3.6856 40.9008689,4.13333333 41.4520548,4.13333333 L53.2289628,4.13333333 L53.2289628,5.49786667 C51.9927202,5.91626667 51.0998043,7.08853333 51.0998043,8.46666667 L51.0998043,9.6 L45.4796243,9.6 C45.0620431,8.36133333 43.8920705,7.46666667 42.5166341,7.46666667 L25.4833659,7.46666667 C24.1079295,7.46666667 22.9379569,8.36133333 22.5203757,9.6 L16.9001957,9.6 L16.9001957,8.46666667 C16.9001957,7.08866667 16.0072798,5.9164 14.7710372,5.49786667 L14.7710372,4.13333333 L26.5479452,4.13333333 C27.0991311,4.13333333 27.5459883,3.6856 27.5459883,3.13333333 C27.5459883,2.58106667 27.0991311,2.13333333 26.5479452,2.13333333 L14.7710372,2.13333333 L14.7710372,1 C14.7710372,0.447733333 14.32418,0 13.7729941,0 C13.2218082,0 12.7749511,0.447733333 12.7749511,1 L12.7749511,2.13333333 L0.998043053,2.13333333 C0.446857143,2.13333333 0,2.58106667 0,3.13333333 C0,3.6856 0.446857143,4.13333333 0.998043053,4.13333333 L12.7749511,4.13333333 L12.7749511,5.49786667 C11.5387084,5.91626667 10.6457926,7.08853333 10.6457926,8.46666667 L10.6457926,12.7333333 C10.6457926,14.4610667 12.0486419,15.8666667 13.7729941,15.8666667 C15.4973464,15.8666667 16.9001957,14.4610667 16.9001957,12.7333333 L16.9001957,11.6 L22.5203757,11.6 C22.9379569,12.8386667 24.1079295,13.7333333 25.4833659,13.7333333 L26.6144814,13.7333333 L26.6144814,17.078 C24.8150763,17.2049333 23.2888689,18.4722667 22.8457378,20.248 L20.4457769,29.8666667 L19.0958904,29.8666667 C18.5447045,29.8666667 18.0978474,30.3144 18.0978474,30.8666667 C18.0978474,31.4189333 18.5447045,31.8666667 19.0958904,31.8666667 L21.2221213,31.8666667 C21.223319,31.8666667 21.2246497,31.8669333 21.2258474,31.8669333 C21.2267789,31.8669333 21.2275773,31.8666667 21.2285088,31.8666667 L23.3542074,31.8666667 C23.9053933,31.8666667 24.3522505,31.4189333 24.3522505,30.8666667 C24.3522505,30.3144 23.9053933,29.8666667 23.3542074,29.8666667 L22.5033425,29.8666667 L24.7822074,20.7330667 C25.0162818,19.7949333 25.8276243,19.1290667 26.7806888,19.0722667 C27.1998669,20.3081333 28.3683757,21.2 29.741683,21.2 L38.258317,21.2 C39.6316243,21.2 40.8001331,20.3081333 41.2193112,19.0722667 C42.1722427,19.1290667 42.9837182,19.7949333 43.2177926,20.7330667 L45.4966575,29.8666667 L44.6457926,29.8666667 C44.0946067,29.8666667 43.6477495,30.3144 43.6477495,30.8666667 C43.6477495,31.4189333 44.0946067,31.8666667 44.6457926,31.8666667 L46.7714912,31.8666667 C46.7724227,31.8666667 46.7732211,31.8669333 46.7741526,31.8669333 C46.7753503,31.8669333 46.776681,31.8666667 46.7778787,31.8666667 L48.9041096,31.8666667 C49.4552955,31.8666667 49.9021526,31.4189333 49.9021526,30.8666667 C49.9021526,30.3144 49.4552955,29.8666667 48.9041096,29.8666667 L47.5542231,29.8666667 L45.1542622,20.248 C44.7112642,18.4721333 43.1849237,17.2049333 41.3855186,17.078 L41.3855186,13.7333333 L42.5166341,13.7333333 C43.8920705,13.7333333 45.0620431,12.8386667 45.4796243,11.6 L51.0998043,11.6 L51.0998043,12.7333333 C51.0998043,14.4610667 52.5026536,15.8666667 54.2270059,15.8666667 C55.9513581,15.8666667 57.3542074,14.4610667 57.3542074,12.7333333 L57.3542074,8.46666667 C57.3542074,7.08866667 56.4612916,5.9164 55.2250489,5.49786667 L55.2250489,4.13333333 L67.0019569,4.13333333 C67.5531429,4.13333333 68,3.6856 68,3.13333333 C68,2.58106667 67.5531429,2.13333333 67.0019569,2.13333333 Z M14.9041096,12.7333333 C14.9041096,13.3582667 14.3967045,13.8666667 13.7729941,13.8666667 C13.1492838,13.8666667 12.6418787,13.3582667 12.6418787,12.7333333 L12.6418787,8.46666667 C12.6418787,7.84173333 13.1492838,7.33333333 13.7729941,7.33333333 C14.3967045,7.33333333 14.9041096,7.84173333 14.9041096,8.46666667 L14.9041096,12.7333333 Z M42.5166341,11.7333333 L40.3874755,11.7333333 L38.258317,11.7333333 C37.7071311,11.7333333 37.260274,12.1810667 37.260274,12.7333333 C37.260274,13.2856 37.7071311,13.7333333 38.258317,13.7333333 L39.3894325,13.7333333 L39.3894325,18.0666667 C39.3894325,18.6916 38.8820274,19.2 38.258317,19.2 L29.741683,19.2 C29.1179726,19.2 28.6105675,18.6916 28.6105675,18.0666667 L28.6105675,13.7333333 L34,13.7333333 C34.5511859,13.7333333 34.9980431,13.2856 34.9980431,12.7333333 C34.9980431,12.1810667 34.5511859,11.7333333 34,11.7333333 L27.6125245,11.7333333 L25.4833659,11.7333333 C24.8596556,11.7333333 24.3522505,11.2249333 24.3522505,10.6 C24.3522505,9.97506667 24.8596556,9.46666667 25.4833659,9.46666667 L42.5166341,9.46666667 C43.1403444,9.46666667 43.6477495,9.97506667 43.6477495,10.6 C43.6477495,11.2249333 43.1403444,11.7333333 42.5166341,11.7333333 Z M55.3581213,12.7333333 C55.3581213,13.3582667 54.8507162,13.8666667 54.2270059,13.8666667 C53.6032955,13.8666667 53.0958904,13.3582667 53.0958904,12.7333333 L53.0958904,8.46666667 C53.0958904,7.84173333 53.6032955,7.33333333 54.2270059,7.33333333 C54.8507162,7.33333333 55.3581213,7.84173333 55.3581213,8.46666667 L55.3581213,12.7333333 Z" id="Drone" fill-rule="nonzero"></path>
                                    <rect id="Path" x="17.2994129" y="29.8666667" width="33.4011742" height="2" rx="1"></rect>
                                </g>
                            </g>
                        </g>
                    </g>
                </g>
            </g>
        </g>
    </g>
</svg>