<?xml version="1.0" encoding="UTF-8"?>
<svg width="86px" height="42px" viewBox="0 0 86 42" version="1.1" xmlns="http://www.w3.org/2000/svg" xmlns:xlink="http://www.w3.org/1999/xlink">
    <!-- Generator: Sketch 50.2 (55047) - http://www.bohemiancoding.com/sketch -->
    <title>uav-academy</title>
    <desc>Created with Sketch.</desc>
    <defs></defs>
    <g id="Page-1" stroke="none" stroke-width="1" fill="none" fill-rule="evenodd">
        <g id="Segment--Trainees-Copy" transform="translate(-297.000000, -1622.000000)">
            <g id="Logo-Grid" transform="translate(250.000000, 1503.000000)">
                <g id="Logos" transform="translate(2.183673, 0.000000)">
                    <g id="uav-academy" transform="translate(45.000000, 119.000000)">
                        <g id="Group-43">
                            <g id="Group-21">
                                <rect id="Rectangle-23" fill="#C4C4C4" x="0" y="0" width="26.4270793" height="26.25"></rect>
                                <path d="M20.2991761,15.7973684 C20.2991761,16.871058 20.0162037,17.8184169 19.4502505,18.6394737 C18.8842974,19.4605304 18.0771303,20.0960504 17.0287253,20.5460526 C15.9803202,20.9960549 14.7695697,21.2210526 13.3964374,21.2210526 L13.0346003,21.2210526 C11.6614679,21.2210526 10.4599952,21.0000022 9.43014597,20.5578947 C8.40029674,20.1157873 7.59776861,19.4842146 7.02253751,18.6631579 C6.4473064,17.8421012 6.15969517,16.8868476 6.15969517,15.7973684 L6.15969517,4.73684211 L8.8873903,4.73684211 L8.8873903,15.75 C8.8873903,16.7605314 9.30025159,17.5736811 10.1259866,18.1894737 C10.9517215,18.8052662 12.0047498,19.1131579 13.2851029,19.1131579 C14.6025676,19.1131579 15.6463181,18.8052662 16.4163855,18.1894737 C17.186453,17.5736811 17.5714809,16.7605314 17.5714809,15.75 L17.5714809,4.73684211 L20.2991761,4.73684211 L20.2991761,15.7973684 Z" id="U" fill="#FFFFFF"></path>
                            </g>
                            <g id="Group-22" transform="translate(29.606277, 0.000000)">
                                <rect id="Rectangle-23" fill="#C4C4C4" x="0" y="0" width="26.4270793" height="26.25"></rect>
                                <path d="M14.6740205,4.73684211 L22.1590066,20.9842105 L19.198527,20.9842105 L17.578642,17.4552632 L8.41791272,17.4552632 L6.82595672,20.9842105 L4.17269673,20.9842105 L11.6576828,4.73684211 L14.6740205,4.73684211 Z M13.1099936,7.53157895 L12.9424192,7.53157895 L9.39542957,15.3473684 L16.6290542,15.3473684 L13.1099936,7.53157895 Z" id="A" fill="#FFFFFF"></path>
                            </g>
                            <g id="Group-38" transform="translate(59.212554, 0.000000)">
                                <rect id="Rectangle-23" fill="#C4C4C4" x="0" y="0" width="26.4270793" height="26.25"></rect>
                                <polygon id="V" fill="#FFFFFF" points="22.1590066 4.73684211 14.7582316 20.9842105 11.5734718 20.9842105 4.17269673 4.73684211 7.35745649 4.73684211 13.2113482 17.8342105 13.3933345 17.8342105 19.2775573 4.73684211"></polygon>
                            </g>
                        </g>
                        <path d="M10.9665796,37.3510442 L9.2781061,33.1055487 L7.58293234,37.3510442 L10.9665796,37.3510442 Z M12.4540443,41.1174242 L11.3752973,38.3891278 L7.17421456,38.3891278 L6.08206705,41.1174242 L4.7755102,41.1174242 L8.70858132,31.2689394 L10.102242,31.2689394 L13.9750104,41.1174242 L12.4540443,41.1174242 Z M21.2876114,41.3636364 C19.7465367,41.3636364 18.5561301,40.9144701 17.7163561,40.0161241 C16.876582,39.1177781 16.4567013,37.8456948 16.4567013,36.1998362 C16.4567013,34.5584139 16.8843989,33.2852216 17.7398071,32.3802211 C18.5952153,31.4752207 19.800139,31.0227273 21.3546144,31.0227273 C22.2435241,31.0227273 23.2842923,31.1669041 24.4769502,31.4552621 L24.4769502,32.7661753 C23.1190177,32.3003662 22.0715492,32.0674652 21.3345135,32.0674652 C20.2579946,32.0674652 19.4249334,32.4290163 18.8353048,33.1521294 C18.2456762,33.8752425 17.9508663,34.8955708 17.9508663,36.213145 C17.9508663,37.4686112 18.2657768,38.4589951 18.8956074,39.1843264 C19.5254379,39.9096576 20.3853001,40.2723178 21.4752196,40.2723178 C22.4132651,40.2723178 23.4182988,39.9861822 24.4903508,39.4139025 L24.4903508,40.6116912 C23.5121033,41.1129905 22.4445342,41.3636364 21.2876114,41.3636364 Z M33.1899121,37.3510442 L31.5014387,33.1055487 L29.8062649,37.3510442 L33.1899121,37.3510442 Z M34.6773768,41.1174242 L33.5986299,38.3891278 L29.3975471,38.3891278 L28.3053996,41.1174242 L26.9988428,41.1174242 L30.9319139,31.2689394 L32.3255745,31.2689394 L36.198343,41.1174242 L34.6773768,41.1174242 Z M39.2629592,41.1174242 L39.2629592,31.2689394 L42.5595026,31.2689394 C43.542217,31.2689394 44.3361936,31.3776265 44.9414563,31.5950041 C45.5467189,31.8123816 46.0704532,32.1805871 46.5126746,32.6996314 C47.2139753,33.5247789 47.5646204,34.6116504 47.5646204,35.9602785 C47.5646204,37.5972645 47.1291058,38.8660206 46.2580635,39.7665848 C45.3870213,40.6671489 44.1608802,41.1174242 42.5796035,41.1174242 L39.2629592,41.1174242 Z M40.6700204,40.0726863 L42.4723988,40.0726863 C43.7588612,40.0726863 44.6700918,39.72888 45.2061178,39.0412572 C45.7823457,38.3092715 46.0704554,37.326651 46.0704554,36.0933661 C46.0704554,34.9354979 45.7868125,34.0260748 45.2195184,33.3650696 C44.8755683,32.9613684 44.4646212,32.6852144 43.9866647,32.5365991 C43.5087082,32.3879838 42.7895508,32.3136773 41.8291709,32.3136773 L40.6700204,32.3136773 L40.6700204,40.0726863 Z M51.1719602,41.1174242 L51.1719602,31.2689394 L56.7131013,31.2689394 L56.7131013,32.3136773 L52.5790214,32.3136773 L52.5790214,35.4745086 L56.0430721,35.4745086 L56.0430721,36.5059378 L52.5790214,36.5059378 L52.5790214,40.0726863 L57.0012138,40.0726863 L57.0012138,41.1174242 L51.1719602,41.1174242 Z M60.2400376,41.1174242 L60.2400376,31.2689394 L62.1898224,31.2689394 L64.9369419,38.8882064 L67.7644649,31.2689394 L69.5065407,31.2689394 L69.5065407,41.1174242 L68.1932836,41.1174242 L68.1932836,33.1055487 L65.4595646,40.4586405 L64.0994055,40.4586405 L61.44609,33.0855856 L61.44609,41.1174242 L60.2400376,41.1174242 Z M75.8341989,41.1174242 L75.8341989,37.0050164 L72.5242549,31.2689394 L74.1323248,31.2689394 L76.7052368,35.7140663 L79.4791574,31.2689394 L80.7857143,31.2689394 L77.2412601,36.9783989 L77.2412601,41.1174242 L75.8341989,41.1174242 Z" id="ACADEMY" fill="#C4C4C4"></path>
                    </g>
                </g>
            </g>
        </g>
    </g>
</svg>