<?xml version="1.0" encoding="UTF-8"?>
<svg width="36px" height="36px" viewBox="0 0 36 36" version="1.1" xmlns="http://www.w3.org/2000/svg" xmlns:xlink="http://www.w3.org/1999/xlink">
    <!-- Generator: Sketch 54.1 (76490) - https://sketchapp.com -->
    <title>Group 9</title>
    <desc>Created with Sketch.</desc>
    <defs>
        <polygon id="path-1" points="0.000366867236 0.0665303571 35.9235338 0.0665303571 35.9235338 32.6932828 0.000366867236 32.6932828"></polygon>
        <polygon id="path-3" points="0.0484488036 0.540955556 7.40526144 0.540955556 7.40526144 22 0.0484488036 22"></polygon>
    </defs>
    <g id="Page-1" stroke="none" stroke-width="1" fill="none" fill-rule="evenodd">
        <g id="Enterprise-Wireframe" transform="translate(-1194.000000, -1248.000000)">
            <g id="3-features" transform="translate(395.000000, 921.000000)">
                <g id="Group-9" transform="translate(799.000000, 327.000000)">
                    <path d="M28.9999978,18.3172044 C29.0037568,12.6230116 24.0820132,8.00352722 18.007519,8.00000358 C11.9317718,7.99530541 7.00376322,12.6100916 7.00000425,18.3042844 C6.99749827,20.9751991 8.10263521,23.5427539 10.079853,25.4654836 C10.7840332,26.1490686 11.9455547,26.1690359 12.6747947,25.5089417 C13.4040347,24.8500222 13.4228296,23.7612192 12.7199023,23.0776342 C9.89942248,20.353865 9.96833691,16.0010022 12.8740201,13.3571021 C15.7797033,10.7132019 20.4220302,10.7778019 23.2425101,13.5003965 C26.0040994,16.1677876 26.0040994,20.4102431 23.2425101,23.0776342 C22.5345709,23.7553465 22.5471008,24.845324 23.2713288,25.5089417 C23.9943039,26.1737341 25.1558254,26.1619886 25.8650176,25.4831018 C27.8635362,23.5674193 28.987468,20.9975155 28.9999978,18.3172044" id="Fill-1" fill="#FED900"></path>
                    <g id="Group-5" transform="translate(0.000000, 0.000000)">
                        <mask id="mask-2" fill="white">
                            <use xlink:href="#path-1"></use>
                        </mask>
                        <g id="Clip-4"></g>
                        <path d="M17.9695591,0.0659263393 C8.0480707,0.0647183036 0.00159627907,7.97493616 0.000368372093,17.7370728 C-0.00208744186,23.6479915 3.00137302,29.1675067 7.99895442,32.4473237 C8.85234977,32.9438263 9.95501023,32.6647701 10.45968,31.8251853 C10.9262847,31.0496263 10.7249079,30.0542049 9.99307535,29.5130049 C3.38693581,25.1834049 1.59910326,16.4046094 5.99869395,9.90537723 C10.3995126,3.40614509 19.3227126,1.64724509 25.9276242,5.97684509 C32.5349916,10.3052371 34.3228242,19.0840326 29.9220056,25.5832647 C28.8684614,27.1404228 27.5116242,28.4753022 25.9276242,29.5130049 C25.1356242,30.0989022 24.9759963,31.207879 25.5727591,31.9870621 C26.1228614,32.7070513 27.1346567,32.9051692 27.9217451,32.4473237 C36.1781916,27.0316996 38.4080707,16.0566951 32.9033637,7.93507098 C29.57328,3.02319777 23.9715684,0.0707584821 17.9695591,0.0659263393" id="Fill-3" fill="#FED900" mask="url(#mask-2)"></path>
                    </g>
                    <g id="Group-8" transform="translate(14.000000, 14.000000)">
                        <mask id="mask-4" fill="white">
                            <use xlink:href="#path-3"></use>
                        </mask>
                        <g id="Clip-7"></g>
                        <path d="M3.72609524,0.540955556 C1.67403175,0.561733333 0.0283174603,2.17873333 0.0486349206,4.15384444 C0.0613333333,5.40417778 0.752126984,6.55551111 1.86831746,7.19351111 L1.86831746,20.2114 C1.86831746,21.1989556 2.70006349,22.0007333 3.72609524,22.0007333 C4.75339683,22.0007333 5.58387302,21.1989556 5.58387302,20.2114 L5.58387302,7.19351111 C7.35022222,6.18517778 7.93180952,3.99128889 6.88419048,2.2924 C6.22260317,1.21806667 5.02387302,0.553177778 3.72609524,0.540955556" id="Fill-6" fill="#020303" mask="url(#mask-4)"></path>
                    </g>
                </g>
            </g>
        </g>
    </g>
</svg>